<?xml version="1.0" encoding="UTF-8"?> <!-- Generator: Adobe Illustrator 25.1.0, SVG Export Plug-In . SVG Version: 6.00 Build 0) --> <svg xmlns="http://www.w3.org/2000/svg" xmlns:xlink="http://www.w3.org/1999/xlink" version="1.1" id="Layer_1" x="0px" y="0px" viewBox="0 0 57 57" style="enable-background:new 0 0 57 57;" xml:space="preserve"> <style type="text/css"> .st0{fill:#010101;} </style> <g> <polygon class="st0" points="99.2,48.6 73.9,48.6 74.1,31.7 70.3,31.6 70.2,52.7 103.2,52.7 103.2,31.7 99.2,31.7 "></polygon> <rect x="76.4" y="41.6" class="st0" width="19.8" height="4.2"></rect> <rect x="84.4" y="27.2" transform="matrix(9.611322e-02 -0.9954 0.9954 9.611322e-02 41.2971 119.7697)" class="st0" width="4.3" height="19.9"></rect> <rect x="85.5" y="20.3" transform="matrix(0.2716 -0.9624 0.9624 0.2716 34.7575 106.4399)" class="st0" width="4.3" height="19.9"></rect> <rect x="88.6" y="12.9" transform="matrix(0.517 -0.856 0.856 0.517 24.3218 88.6883)" class="st0" width="4.3" height="19.9"></rect> <rect x="94.9" y="6" transform="matrix(0.8129 -0.5824 0.5824 0.8129 8.8547 59.5239)" class="st0" width="4.3" height="19.9"></rect> <rect x="103.8" y="2.5" transform="matrix(0.9863 -0.1649 0.1649 0.9863 -0.5954 17.6505)" class="st0" width="4.3" height="19.9"></rect> </g> <g> <rect x="69.5" y="-19" class="st0" width="52.5" height="3.8"></rect> <rect x="69.5" y="-11.5" class="st0" width="52.5" height="3.8"></rect> <path class="st0" d="M110.7-41.5c-0.7,0-1.5,0.2-2.1,0.6c-0.6,0.4-1.1,1-1.4,1.7c-0.3,0.7-0.4,1.4-0.2,2.2s0.5,1.4,1,1.9 c0.5,0.5,1.2,0.9,1.9,1c0.7,0.1,1.5,0.1,2.2-0.2c0.7-0.3,1.3-0.8,1.7-1.4c0.4-0.6,0.6-1.3,0.6-2.1c0-1-0.4-1.9-1.1-2.7 S111.7-41.5,110.7-41.5z"></path> <path class="st0" d="M95.7-41.5c-0.7,0-1.5,0.2-2.1,0.6c-0.6,0.4-1.1,1-1.4,1.7c-0.3,0.7-0.4,1.4-0.2,2.2c0.1,0.7,0.5,1.4,1,1.9 c0.5,0.5,1.2,0.9,1.9,1c0.7,0.1,1.5,0.1,2.2-0.2c0.7-0.3,1.3-0.8,1.7-1.4s0.6-1.3,0.6-2.1c0-1-0.4-1.9-1.1-2.7 C97.7-41.1,96.7-41.5,95.7-41.5z M95.7-30.2c-1.5,0-2.9-0.4-4.2-1.3c-1.2-0.8-2.2-2-2.8-3.4s-0.7-2.9-0.4-4.3 c0.3-1.5,1-2.8,2.1-3.8c1-1,2.4-1.8,3.8-2.1c1.5-0.3,3-0.1,4.3,0.4c1.4,0.6,2.5,1.5,3.4,2.8c0.8,1.2,1.3,2.7,1.3,4.2 c0,2-0.8,3.9-2.2,5.3C99.6-31,97.7-30.2,95.7-30.2z"></path> <path class="st0" d="M80.7-41.5c-0.7,0-1.5,0.2-2.1,0.6c-0.6,0.4-1.1,1-1.4,1.7c-0.3,0.7-0.4,1.4-0.2,2.2c0.1,0.7,0.5,1.4,1,1.9 s1.2,0.9,1.9,1c0.7,0.1,1.5,0.1,2.2-0.2c0.7-0.3,1.3-0.8,1.7-1.4c0.4-0.6,0.6-1.3,0.6-2.1c0-1-0.4-1.9-1.1-2.7 C82.7-41.1,81.7-41.5,80.7-41.5z"></path> <path class="st0" d="M118.2-49h-45v22.5h45V-49z M118.2-22.7h-45c-1,0-1.9-0.4-2.6-1.1c-0.7-0.7-1.1-1.7-1.1-2.6V-49 c0-1,0.4-1.9,1.1-2.6c0.7-0.7,1.7-1.1,2.6-1.1h45c1,0,1.9,0.4,2.6,1.1c0.7,0.7,1.1,1.7,1.1,2.6v22.5c0,1-0.4,1.9-1.1,2.7 C120.2-23.1,119.2-22.7,118.2-22.7z"></path> </g> <g> <path class="st0" d="M9.7-27.3c0-0.4,0.1-0.9,0.3-1.3s0.4-0.8,0.7-1.1c0.3-0.3,0.7-0.6,1.1-0.7c0.4-0.2,0.8-0.3,1.3-0.2 c0.4,0,0.9,0.1,1.3,0.3c0.4,0.2,0.8,0.4,1.1,0.7c0.3,0.3,0.6,0.7,0.7,1.1c0.2,0.4,0.3,0.8,0.3,1.3c0,0.9-0.3,1.7-1,2.3 c-0.6,0.6-1.5,1-2.3,1c-0.9,0-1.7-0.3-2.3-1C10.1-25.6,9.7-26.5,9.7-27.3z"></path> <path class="st0" d="M41.7-29.4c1.5,0,2.6,1.1,2.6,2.6l0,7H17.8v-9.6L41.7-29.4z"></path> <path class="st0" d="M14.7-19.8c0.9,0,1.6-0.7,1.6-1.6c0-0.9-0.7-1.6-1.6-1.6H10c-0.2,0-0.4,0-0.6,0.1c-0.2,0.1-0.4,0.2-0.5,0.4 c-0.2,0.2-0.3,0.3-0.4,0.5c-0.1,0.2-0.1,0.4-0.1,0.6c0,0.9,0.7,1.6,1.6,1.6H14.7z"></path> <path class="st0" d="M46-12.9v7.3h4.3v-23.1c0-0.3-0.1-0.6-0.2-0.8c-0.1-0.3-0.3-0.5-0.5-0.7s-0.4-0.4-0.7-0.5s-0.5-0.2-0.8-0.2 c-0.6,0-1.1,0.2-1.5,0.6c-0.4,0.4-0.6,1-0.6,1.5v10.6H7.2v-15c0-1.2-1-2.2-2.2-2.2v0c-1.2,0-2.1,1-2.1,2.2v27.5h4.4v-7.3L46-12.9 L46-12.9z"></path> <path class="st0" d="M31.8-51.9h1v-1h1v-1h-1v-1h-1v1h-1v1h1V-51.9z M32.3-55.1c1.4,0,3.6,0.6,4.9,2l-1.7,3.3 c-0.4-0.5-0.9-0.9-1.4-1.2c-0.6-0.3-1.2-0.4-1.8-0.4c-1.3,0-2.4,0.6-3.2,1.5l-1.7-3.2C28.8-54.6,30.9-55.1,32.3-55.1L32.3-55.1z"></path> <path class="st0" d="M35.4-47.2c0,0.8-0.3,1.6-0.9,2.2s-1.4,0.9-2.2,0.9c-0.8,0-1.6-0.3-2.2-0.9s-0.9-1.4-0.9-2.2 c0-0.8,0.3-1.6,0.9-2.2s1.4-0.9,2.2-0.9c0.8,0,1.6,0.3,2.2,0.9S35.4-48.1,35.4-47.2z"></path> <path class="st0" d="M29.3-43.2c-2.2,0-3.4,1.8-3.7,2.8l-2.6,8.7h2.7l2-6.7h1.4L27-31.8h10.6l-1.9-6.7H37l2,6.7h2.6L39-40.5 c-0.3-1-1.5-2.7-3.6-2.8L29.3-43.2z"></path> <path class="st0" d="M9.5-43c2.9,0,5.2-2.3,5.2-5.2c0-2.9-2.3-5.2-5.2-5.2c-2.9,0-5.2,2.3-5.2,5.2C4.3-45.3,6.6-43,9.5-43z M9.5-41.2c-3.8,0-6.9-3.1-6.9-6.9c0-3.8,3.1-6.9,6.9-6.9c3.8,0,6.9,3.1,6.9,6.9C16.4-44.3,13.3-41.2,9.5-41.2z"></path> <path class="st0" d="M9.5-47.3c-0.1,0-0.2,0.1-0.3,0c-0.1,0-0.2,0-0.2-0.1c-0.1,0-0.1-0.1-0.2-0.2c0-0.1-0.1-0.1-0.1-0.2l0-4 c0-0.1,0.1-0.3,0.2-0.4c0.1-0.1,0.2-0.1,0.4-0.1s0.3,0.1,0.4,0.1c0.1,0.1,0.2,0.2,0.2,0.4v3.1l2.7-1.3c0.1-0.1,0.3-0.1,0.4,0 c0.1,0,0.2,0.1,0.3,0.3c0.1,0.1,0.1,0.3,0,0.4c0,0.1-0.1,0.2-0.2,0.3L9.5-47.3L9.5-47.3z"></path> </g> <g> <path class="st0" d="M1.3,44.3c-0.9,0-0.9,0-0.9,0c0,0,0,0,0,0c0,0,0,0,0,0c0,0,0,0,0,0c0,0,0,0,0,0c0,0,0,0,0,0c0,0,0,0.1,0,0.1 c0,0.1,0,0.2,0,0.3c0.1,0.3,0.2,0.7,0.4,1c0.2,0.4,0.5,0.8,1.1,1.1c0.5,0.3,1.1,0.5,1.9,0.5v-1.8c-0.5,0-0.8-0.1-1-0.2 c-0.2-0.1-0.3-0.3-0.4-0.4c-0.1-0.2-0.1-0.4-0.2-0.5c0-0.1,0-0.1,0-0.2c0,0,0,0,0,0c0,0,0,0,0,0c0,0,0,0,0,0c0,0,0,0,0,0 c0,0,0,0,0,0s0,0,0,0C2.2,44.3,2.2,44.3,1.3,44.3z M55.7,43.4H1.3v1.8h54.3V43.4z M53.2,47.5c0.8,0,1.4-0.2,1.9-0.5 c0.5-0.3,0.8-0.7,1.1-1.1c0.2-0.4,0.3-0.8,0.4-1c0-0.1,0-0.3,0-0.3c0,0,0-0.1,0-0.1c0,0,0,0,0,0c0,0,0,0,0,0c0,0,0,0,0,0 c0,0,0,0,0,0c0,0,0,0,0,0c0,0,0,0-0.9,0s-0.9,0-0.9,0c0,0,0,0,0,0s0,0,0,0c0,0,0,0,0,0c0,0,0,0,0,0c0,0,0,0,0,0c0,0,0,0,0,0 c0,0,0,0.1,0,0.2c0,0.1-0.1,0.3-0.2,0.5c-0.1,0.2-0.2,0.3-0.4,0.4c-0.2,0.1-0.5,0.2-1,0.2V47.5z M3.8,47.5h49.4v-1.8H3.8V47.5z M5.4,12.7v29.4h1.8V12.7H5.4z M6.4,10.4c-0.6,0.6-1,1.4-1,2.3h1.8c0-0.3,0.1-0.7,0.4-0.9L6.4,10.4z M8.7,9.5 c-0.9,0-1.7,0.3-2.4,0.9l1.2,1.3c0.3-0.3,0.7-0.4,1.1-0.4V9.5z M48.3,9.5H8.7v1.8h39.5V9.5z M50.6,10.4c-0.6-0.6-1.5-0.9-2.4-0.9 v1.8c0.4,0,0.8,0.2,1.1,0.4L50.6,10.4z M51.6,12.7c0-0.9-0.4-1.7-1-2.3l-1.2,1.3c0.3,0.3,0.4,0.6,0.4,0.9H51.6z M51.6,42.1V12.7 h-1.8v29.4H51.6z M6.3,43h44.5v-1.8H6.3V43z M1.3,44.3v-0.9H0.4v0.9H1.3z M55.7,44.3h0.9v-0.9h-0.9V44.3z M6.3,12.7H5.4H6.3z M48.3,10.4V9.5V10.4z M50.7,42.1V43h0.9v-0.9H50.7z M6.3,42.1H5.4V43h0.9V42.1z"></path> <path class="st0" d="M25.2,18.3c0-1.4,1.3-2.5,2.8-2.5c1.5,0,2.8,1.2,2.8,2.5c0,1.4-1.3,2.5-2.8,2.5C26.5,20.8,25.2,19.6,25.2,18.3 z M39.1,33.2c-1.9-3.2-3.7-2.7-5.7-2.9c0.2,0.5,0.2,1,0.2,1.7c3,0.7,3.7,3.9,3.7,5.8v1.7h-3.7v-1.7h1.9c0,0,0-4.2-2.8-4.2 c-2.8,0-2.8,4.1-2.8,4.2h1.9v1.7H28v-1.7c0-1.9,0.7-5.3,3.7-5.8c0-1-0.2-1.9-0.4-2.2c-0.4-0.2-0.7-0.5-0.7-1c0-1,1.5-0.7,2.6-2.5 c0,0,1.7-3.9,1.1-7.3h-1.9c0-0.3,0.2-0.5,0.2-0.8c0-0.3,0-0.5-0.2-0.8h1.5C33.4,15.5,31.5,14,28,14c-3.5,0-5.4,1.5-6.1,3.4h1.5 c0,0.3-0.2,0.5-0.2,0.8c0,0.3,0,0.5,0.2,0.8h-1.9c-0.4,3.4,1.1,7.3,1.1,7.3c1.1,1.7,2.6,1.4,2.6,2.5c0,0.8-0.9,1.2-2,1.4 c-0.4,0.3-0.7,1-0.7,2.4v2c1.1,0.3,1.9,1.4,1.9,2.4c0,1.2-1.3,2.4-2.8,2.4s-2.8-1.2-2.8-2.5c0-1.2,0.7-2,1.9-2.4v-2 c0-0.8,0.2-1.5,0.4-2.2c-1.3,0.2-2.8,0.7-4.1,2.9c-1.1,1.9-1.7,8-1.7,8h25.4C40.8,41.2,40.2,35.1,39.1,33.2z"></path> <path class="st0" d="M22.4,36.9c0,0.2-0.1,0.4-0.3,0.6c-0.2,0.2-0.4,0.2-0.7,0.2s-0.5-0.1-0.7-0.2c-0.2-0.2-0.3-0.4-0.3-0.6 c0-0.2,0.1-0.4,0.3-0.6c0.2-0.2,0.4-0.2,0.7-0.2s0.5,0.1,0.7,0.2C22.4,36.5,22.4,36.7,22.4,36.9z"></path> </g> </svg> 