<?xml version="1.0" encoding="UTF-8"?> <!-- Generator: Adobe Illustrator 25.1.0, SVG Export Plug-In . SVG Version: 6.00 Build 0) --> <svg xmlns="http://www.w3.org/2000/svg" xmlns:xlink="http://www.w3.org/1999/xlink" version="1.1" id="Layer_1" x="0px" y="0px" viewBox="0 0 57 57" style="enable-background:new 0 0 57 57;" xml:space="preserve"> <style type="text/css"> .st0{fill:#010101;} </style> <g> <polygon class="st0" points="37.7,49.6 12.4,49.6 12.6,32.7 8.8,32.7 8.7,53.7 41.7,53.7 41.7,32.8 37.7,32.8 "></polygon> <rect x="14.9" y="42.7" class="st0" width="19.8" height="4.2"></rect> <rect x="22.9" y="28.3" transform="matrix(9.611322e-02 -0.9954 0.9954 9.611322e-02 -15.3309 59.501)" class="st0" width="4.3" height="19.9"></rect> <rect x="24" y="21.4" transform="matrix(0.2716 -0.9624 0.9624 0.2716 -11.0427 48.0151)" class="st0" width="4.3" height="19.9"></rect> <rect x="27.1" y="13.9" transform="matrix(0.517 -0.856 0.856 0.517 -6.2768 36.5515)" class="st0" width="4.3" height="19.9"></rect> <rect x="33.4" y="7.1" transform="matrix(0.8129 -0.5824 0.5824 0.8129 -3.2607 23.9022)" class="st0" width="4.3" height="19.9"></rect> <rect x="42.3" y="3.5" transform="matrix(0.9863 -0.1649 0.1649 0.9863 -1.6099 7.5221)" class="st0" width="4.3" height="19.9"></rect> </g> </svg> 