<?xml version="1.0" encoding="UTF-8"?> <!-- Generator: Adobe Illustrator 25.1.0, SVG Export Plug-In . SVG Version: 6.00 Build 0) --> <svg xmlns="http://www.w3.org/2000/svg" xmlns:xlink="http://www.w3.org/1999/xlink" version="1.1" id="Layer_1" x="0px" y="0px" viewBox="0 0 57 57" style="enable-background:new 0 0 57 57;" xml:space="preserve"> <style type="text/css"> .st0{fill:#010101;} </style> <g> <polygon class="st0" points="99.2,48.6 73.9,48.6 74.1,31.7 70.3,31.6 70.2,52.7 103.2,52.7 103.2,31.7 99.2,31.7 "></polygon> <rect x="76.4" y="41.6" class="st0" width="19.8" height="4.2"></rect> <rect x="84.4" y="27.2" transform="matrix(9.611322e-02 -0.9954 0.9954 9.611322e-02 41.2971 119.7697)" class="st0" width="4.3" height="19.9"></rect> <rect x="85.5" y="20.3" transform="matrix(0.2716 -0.9624 0.9624 0.2716 34.7575 106.4399)" class="st0" width="4.3" height="19.9"></rect> <rect x="88.6" y="12.9" transform="matrix(0.517 -0.856 0.856 0.517 24.3218 88.6883)" class="st0" width="4.3" height="19.9"></rect> <rect x="94.9" y="6" transform="matrix(0.8129 -0.5824 0.5824 0.8129 8.8547 59.5239)" class="st0" width="4.3" height="19.9"></rect> <rect x="103.8" y="2.5" transform="matrix(0.9863 -0.1649 0.1649 0.9863 -0.5954 17.6505)" class="st0" width="4.3" height="19.9"></rect> </g> <g> <rect x="2.2" y="39.8" class="st0" width="52.5" height="3.8"></rect> <rect x="2.2" y="47.2" class="st0" width="52.5" height="3.8"></rect> <path class="st0" d="M43.5,17.3c-0.7,0-1.5,0.2-2.1,0.6c-0.6,0.4-1.1,1-1.4,1.7c-0.3,0.7-0.4,1.4-0.2,2.2s0.5,1.4,1,1.9 c0.5,0.5,1.2,0.9,1.9,1c0.7,0.1,1.5,0.1,2.2-0.2c0.7-0.3,1.3-0.8,1.7-1.4c0.4-0.6,0.6-1.3,0.6-2.1c0-1-0.4-1.9-1.1-2.7 S44.5,17.3,43.5,17.3z"></path> <path class="st0" d="M28.5,17.3c-0.7,0-1.5,0.2-2.1,0.6c-0.6,0.4-1.1,1-1.4,1.7c-0.3,0.7-0.4,1.4-0.2,2.2c0.1,0.7,0.5,1.4,1,1.9 c0.5,0.5,1.2,0.9,1.9,1c0.7,0.1,1.5,0.1,2.2-0.2c0.7-0.3,1.3-0.8,1.7-1.4s0.6-1.3,0.6-2.1c0-1-0.4-1.9-1.1-2.7 C30.4,17.6,29.5,17.3,28.5,17.3z M28.5,28.5c-1.5,0-2.9-0.4-4.2-1.3c-1.2-0.8-2.2-2-2.8-3.4s-0.7-2.9-0.4-4.3 c0.3-1.5,1-2.8,2.1-3.8c1-1,2.4-1.8,3.8-2.1c1.5-0.3,3-0.1,4.3,0.4c1.4,0.6,2.5,1.5,3.4,2.8c0.8,1.2,1.3,2.7,1.3,4.2 c0,2-0.8,3.9-2.2,5.3C32.4,27.7,30.5,28.5,28.5,28.5z"></path> <path class="st0" d="M13.5,17.3c-0.7,0-1.5,0.2-2.1,0.6c-0.6,0.4-1.1,1-1.4,1.7c-0.3,0.7-0.4,1.4-0.2,2.2c0.1,0.7,0.5,1.4,1,1.9 s1.2,0.9,1.9,1c0.7,0.1,1.5,0.1,2.2-0.2c0.7-0.3,1.3-0.8,1.7-1.4c0.4-0.6,0.6-1.3,0.6-2.1c0-1-0.4-1.9-1.1-2.7 C15.4,17.6,14.5,17.3,13.5,17.3z"></path> <path class="st0" d="M51,9.8H6v22.5h45V9.8z M51,36H6c-1,0-1.9-0.4-2.6-1.1c-0.7-0.7-1.1-1.7-1.1-2.6V9.8c0-1,0.4-1.9,1.1-2.6 C4.1,6.4,5,6,6,6h45c1,0,1.9,0.4,2.6,1.1c0.7,0.7,1.1,1.7,1.1,2.6v22.5c0,1-0.4,1.9-1.1,2.7C52.9,35.6,52,36,51,36z"></path> </g> </svg> 