<?xml version="1.0" encoding="UTF-8"?> <!-- Generator: Adobe Illustrator 25.1.0, SVG Export Plug-In . SVG Version: 6.00 Build 0) --> <svg xmlns="http://www.w3.org/2000/svg" xmlns:xlink="http://www.w3.org/1999/xlink" version="1.1" id="Layer_1" x="0px" y="0px" viewBox="0 0 57 57" style="enable-background:new 0 0 57 57;" xml:space="preserve"> <style type="text/css"> .st0{fill:#010101;} </style> <g> <polygon class="st0" points="99.2,48.6 73.9,48.6 74.1,31.7 70.3,31.6 70.2,52.7 103.2,52.7 103.2,31.7 99.2,31.7 "></polygon> <rect x="76.4" y="41.6" class="st0" width="19.8" height="4.2"></rect> <rect x="84.4" y="27.2" transform="matrix(9.611322e-02 -0.9954 0.9954 9.611322e-02 41.2971 119.7697)" class="st0" width="4.3" height="19.9"></rect> <rect x="85.5" y="20.3" transform="matrix(0.2716 -0.9624 0.9624 0.2716 34.7575 106.4399)" class="st0" width="4.3" height="19.9"></rect> <rect x="88.6" y="12.9" transform="matrix(0.517 -0.856 0.856 0.517 24.3218 88.6883)" class="st0" width="4.3" height="19.9"></rect> <rect x="94.9" y="6" transform="matrix(0.8129 -0.5824 0.5824 0.8129 8.8547 59.5239)" class="st0" width="4.3" height="19.9"></rect> <rect x="103.8" y="2.5" transform="matrix(0.9863 -0.1649 0.1649 0.9863 -0.5954 17.6505)" class="st0" width="4.3" height="19.9"></rect> </g> <g> <rect x="69.5" y="-19" class="st0" width="52.5" height="3.8"></rect> <rect x="69.5" y="-11.5" class="st0" width="52.5" height="3.8"></rect> <path class="st0" d="M110.7-41.5c-0.7,0-1.5,0.2-2.1,0.6c-0.6,0.4-1.1,1-1.4,1.7c-0.3,0.7-0.4,1.4-0.2,2.2s0.5,1.4,1,1.9 c0.5,0.5,1.2,0.9,1.9,1c0.7,0.1,1.5,0.1,2.2-0.2c0.7-0.3,1.3-0.8,1.7-1.4c0.4-0.6,0.6-1.3,0.6-2.1c0-1-0.4-1.9-1.1-2.7 S111.7-41.5,110.7-41.5z"></path> <path class="st0" d="M95.7-41.5c-0.7,0-1.5,0.2-2.1,0.6c-0.6,0.4-1.1,1-1.4,1.7c-0.3,0.7-0.4,1.4-0.2,2.2c0.1,0.7,0.5,1.4,1,1.9 c0.5,0.5,1.2,0.9,1.9,1c0.7,0.1,1.5,0.1,2.2-0.2c0.7-0.3,1.3-0.8,1.7-1.4s0.6-1.3,0.6-2.1c0-1-0.4-1.9-1.1-2.7 C97.7-41.1,96.7-41.5,95.7-41.5z M95.7-30.2c-1.5,0-2.9-0.4-4.2-1.3c-1.2-0.8-2.2-2-2.8-3.4s-0.7-2.9-0.4-4.3 c0.3-1.5,1-2.8,2.1-3.8c1-1,2.4-1.8,3.8-2.1c1.5-0.3,3-0.1,4.3,0.4c1.4,0.6,2.5,1.5,3.4,2.8c0.8,1.2,1.3,2.7,1.3,4.2 c0,2-0.8,3.9-2.2,5.3C99.6-31,97.7-30.2,95.7-30.2z"></path> <path class="st0" d="M80.7-41.5c-0.7,0-1.5,0.2-2.1,0.6c-0.6,0.4-1.1,1-1.4,1.7c-0.3,0.7-0.4,1.4-0.2,2.2c0.1,0.7,0.5,1.4,1,1.9 s1.2,0.9,1.9,1c0.7,0.1,1.5,0.1,2.2-0.2c0.7-0.3,1.3-0.8,1.7-1.4c0.4-0.6,0.6-1.3,0.6-2.1c0-1-0.4-1.9-1.1-2.7 C82.7-41.1,81.7-41.5,80.7-41.5z"></path> <path class="st0" d="M118.2-49h-45v22.5h45V-49z M118.2-22.7h-45c-1,0-1.9-0.4-2.6-1.1c-0.7-0.7-1.1-1.7-1.1-2.6V-49 c0-1,0.4-1.9,1.1-2.6c0.7-0.7,1.7-1.1,2.6-1.1h45c1,0,1.9,0.4,2.6,1.1c0.7,0.7,1.1,1.7,1.1,2.6v22.5c0,1-0.4,1.9-1.1,2.7 C120.2-23.1,119.2-22.7,118.2-22.7z"></path> </g> <g> <path class="st0" d="M11.8,31.6c0-0.4,0.1-0.9,0.3-1.3s0.4-0.8,0.7-1.1c0.3-0.3,0.7-0.6,1.1-0.7c0.4-0.2,0.8-0.3,1.3-0.2 c0.4,0,0.9,0.1,1.3,0.3c0.4,0.2,0.8,0.4,1.1,0.7c0.3,0.3,0.6,0.7,0.7,1.1c0.2,0.4,0.3,0.8,0.3,1.3c0,0.9-0.3,1.7-1,2.3 c-0.6,0.6-1.5,1-2.3,1c-0.9,0-1.7-0.3-2.3-1C12.2,33.3,11.8,32.4,11.8,31.6z"></path> <path class="st0" d="M43.8,29.5c1.5,0,2.6,1.1,2.6,2.6l0,7H19.9v-9.6L43.8,29.5z"></path> <path class="st0" d="M16.8,39.1c0.9,0,1.6-0.7,1.6-1.6c0-0.9-0.7-1.6-1.6-1.6h-4.7c-0.2,0-0.4,0-0.6,0.1c-0.2,0.1-0.4,0.2-0.5,0.4 c-0.2,0.2-0.3,0.3-0.4,0.5c-0.1,0.2-0.1,0.4-0.1,0.6c0,0.9,0.7,1.6,1.6,1.6H16.8z"></path> <path class="st0" d="M48.1,46v7.3h4.3V30.1c0-0.3-0.1-0.6-0.2-0.8c-0.1-0.3-0.3-0.5-0.5-0.7s-0.4-0.4-0.7-0.5S50.5,28,50.2,28 c-0.6,0-1.1,0.2-1.5,0.6c-0.4,0.4-0.6,1-0.6,1.5v10.6H9.3v-15c0-1.2-1-2.2-2.2-2.2v0c-1.2,0-2.1,1-2.1,2.2v27.5h4.4V46L48.1,46 L48.1,46z"></path> <path class="st0" d="M33.9,7h1v-1h1v-1h-1v-1h-1v1h-1v1h1V7z M34.4,3.7c1.4,0,3.6,0.6,4.9,2L37.6,9c-0.4-0.5-0.9-0.9-1.4-1.2 c-0.6-0.3-1.2-0.4-1.8-0.4c-1.3,0-2.4,0.6-3.2,1.5l-1.7-3.2C30.9,4.3,32.9,3.7,34.4,3.7L34.4,3.7z"></path> <path class="st0" d="M37.5,11.6c0,0.8-0.3,1.6-0.9,2.2s-1.4,0.9-2.2,0.9c-0.8,0-1.6-0.3-2.2-0.9s-0.9-1.4-0.9-2.2 c0-0.8,0.3-1.6,0.9-2.2s1.4-0.9,2.2-0.9c0.8,0,1.6,0.3,2.2,0.9S37.5,10.8,37.5,11.6z"></path> <path class="st0" d="M31.4,15.6c-2.2,0-3.4,1.8-3.7,2.8L25,27.1h2.7l2-6.7H31l-1.9,6.7h10.6l-1.9-6.7h1.4l2,6.7h2.6l-2.7-8.7 c-0.3-1-1.5-2.7-3.6-2.8L31.4,15.6z"></path> <path class="st0" d="M11.6,15.9c2.9,0,5.2-2.3,5.2-5.2c0-2.9-2.3-5.2-5.2-5.2c-2.9,0-5.2,2.3-5.2,5.2C6.3,13.6,8.7,15.9,11.6,15.9z M11.6,17.6c-3.8,0-6.9-3.1-6.9-6.9c0-3.8,3.1-6.9,6.9-6.9c3.8,0,6.9,3.1,6.9,6.9C18.5,14.5,15.4,17.6,11.6,17.6z"></path> <path class="st0" d="M11.6,11.6c-0.1,0-0.2,0.1-0.3,0c-0.1,0-0.2,0-0.2-0.1c-0.1,0-0.1-0.1-0.2-0.2c0-0.1-0.1-0.1-0.1-0.2l0-4 c0-0.1,0.1-0.3,0.2-0.4c0.1-0.1,0.2-0.1,0.4-0.1s0.3,0.1,0.4,0.1c0.1,0.1,0.2,0.2,0.2,0.4v3.1l2.7-1.3c0.1-0.1,0.3-0.1,0.4,0 c0.1,0,0.2,0.1,0.3,0.3c0.1,0.1,0.1,0.3,0,0.4c0,0.1-0.1,0.2-0.2,0.3L11.6,11.6L11.6,11.6z"></path> </g> </svg> 