<?xml version="1.0" encoding="UTF-8"?> <!-- Generator: Adobe Illustrator 24.0.0, SVG Export Plug-In . SVG Version: 6.00 Build 0) --> <svg xmlns="http://www.w3.org/2000/svg" xmlns:xlink="http://www.w3.org/1999/xlink" version="1.1" id="Layer_1" x="0px" y="0px" viewBox="0 0 1944 511.6" style="enable-background:new 0 0 1944 511.6;" xml:space="preserve"> <style type="text/css"> .st0{fill:url(#SVGID_1_);} .st1{fill:url(#SVGID_2_);} .st2{fill:url(#SVGID_3_);} .st3{fill:url(#SVGID_4_);} .st4{fill:url(#SVGID_5_);} .st5{fill:url(#SVGID_6_);} .st6{fill:url(#SVGID_7_);} .st7{fill:url(#SVGID_8_);} .st8{fill:#0B70B2;} .st9{fill:#58595E;} </style> <g> <linearGradient id="SVGID_1_" gradientUnits="userSpaceOnUse" x1="0" y1="377.5482" x2="306.3004" y2="377.5482"> <stop offset="4.757770e-02" style="stop-color:#499ACF"></stop> <stop offset="0.5342" style="stop-color:#4AA993"></stop> <stop offset="1" style="stop-color:#3FC064"></stop> </linearGradient> <path class="st0" d="M263.6,367c1,1,0.2,2.7-1.2,2.5c-5.2-0.6-15.6-2.3-31.8-7.8c-25.1-8.5-68.5-29.8-87.1-87.4 c-1.8-5.6-3.4-11.1-4.8-16.6c-47-9.9-93.3-11.4-136.9-14.2c-1.1-0.1-1.9,0.9-1.8,1.9c12,89.6,26.2,145.9,68.1,202.1 c42.2,56.7,98.1,63.9,129,63.9c20,0,32.1-1.9,38.1-3.3c1.6-0.4,1.8-2.5,0.3-3.2c-52.3-23.7-79.3-72-84.8-123 c-0.1-0.9,0.6-1.8,1.5-1.9c91.1-11,138,36.8,148.4,49c0.9,1.1,2.7,0.6,3-0.8c3.9-18.8,14-88.8-61.9-132.3c-5.4-3.1-10.8-6-16.2-8.7 C227.9,316.4,239.7,344.6,263.6,367z"></path> <linearGradient id="SVGID_2_" gradientUnits="userSpaceOnUse" x1="151.2518" y1="86.7704" x2="299.819" y2="342.9725"> <stop offset="0" style="stop-color:#3FC064"></stop> <stop offset="0.9248" style="stop-color:#499ACF"></stop> </linearGradient> <path class="st1" d="M331.3,279.6c-2-2.6-5.7-8-10.2-17.6c-6.6-13.9-15-39.7-1.7-70.1c-52-54.8-116.1-77.7-173.5-101.3 c-0.9-0.4-1.8,0.2-2,1.1c-13.5,68.6-18,115.6-5.2,166.1c28.8,6,57.9,15.2,86.8,29.7c-1.2-14.5,0-29.2,3.2-43.5 c0.2-0.8,1-1.3,1.8-1.1c77,16.1,101.9,67.9,106.9,80.6c0.4,1.1,2,1.3,2.6,0.2c6.6-11.3,25.4-47.8,7.8-90.5 c-9.4,12.7-15,28.2-14.8,46C333,279.9,331.9,280.3,331.3,279.6z"></path> <linearGradient id="SVGID_3_" gradientUnits="userSpaceOnUse" x1="2.406328e-04" y1="313.6459" x2="306.3001" y2="313.6459"> <stop offset="4.757770e-02" style="stop-color:#499ACF"></stop> <stop offset="0.5342" style="stop-color:#4AA993"></stop> <stop offset="1" style="stop-color:#3FC064"></stop> </linearGradient> <path class="st2" d="M143.5,274.4c18.7,57.6,62,78.9,87.1,87.4c16.3,5.5,26.6,7.3,31.8,7.8c1.4,0.2,2.2-1.6,1.2-2.5 c-23.9-22.4-35.7-50.6-38.1-79.7c-28.9-14.5-58-23.6-86.8-29.7C140.1,263.2,141.7,268.7,143.5,274.4z"></path> <linearGradient id="SVGID_4_" gradientUnits="userSpaceOnUse" x1="90.4787" y1="122.0116" x2="239.046" y2="378.214"> <stop offset="0" style="stop-color:#12652B"></stop> <stop offset="0.9648" style="stop-color:#106629"></stop> </linearGradient> <path class="st3" d="M143.5,274.4c18.7,57.6,62,78.9,87.1,87.4c16.3,5.5,26.6,7.3,31.8,7.8c1.4,0.2,2.2-1.6,1.2-2.5 c-23.9-22.4-35.7-50.6-38.1-79.7c-28.9-14.5-58-23.6-86.8-29.7C140.1,263.2,141.7,268.7,143.5,274.4z"></path> <linearGradient id="SVGID_5_" gradientUnits="userSpaceOnUse" x1="-717.0416" y1="683.5854" x2="-609.2679" y2="869.4397" gradientTransform="matrix(0.6942 0.7198 -0.7198 0.6942 1409.3668 109.5128)"> <stop offset="0" style="stop-color:#3FC064"></stop> <stop offset="0.9248" style="stop-color:#499ACF"></stop> </linearGradient> <path class="st4" d="M405.9,106.9c-0.2-0.5-0.9-0.7-1.3-0.4c-40.5,26.2-64.4,45.8-82,78.7c-1.2,2.2-2.2,4.4-3.2,6.6 c2.3,2.4,4.5,4.8,6.8,7.4c10.1,11.5,17.1,22.9,21.6,33.9c6.8-9.2,15.5-16.9,25.3-22.9c0.4-0.3,1-0.1,1.3,0.3 c26,41.4,13.6,74.9,10.1,82.7c-0.3,0.7,0.3,1.4,1,1.3c10-2.4,46-13.4,49.7-59.9C439.1,184.7,420.8,144.3,405.9,106.9z"></path> <linearGradient id="SVGID_6_" gradientUnits="userSpaceOnUse" x1="218.7713" y1="47.6174" x2="367.3386" y2="303.8198"> <stop offset="0" style="stop-color:#3FC064"></stop> <stop offset="0.9248" style="stop-color:#499ACF"></stop> </linearGradient> <path class="st5" d="M319.4,191.8c-13.3,30.4-4.9,56.2,1.7,70.1c4.6,9.7,8.2,15,10.2,17.6c0.5,0.7,1.6,0.3,1.6-0.6 c-0.3-17.7,5.4-33.3,14.8-46c-4.5-11-11.4-22.4-21.6-33.9C323.9,196.6,321.7,194.2,319.4,191.8z"></path> <linearGradient id="SVGID_7_" gradientUnits="userSpaceOnUse" x1="327.3583" y1="196.2689" x2="333.4433" y2="273.8528"> <stop offset="0" style="stop-color:#12652B"></stop> <stop offset="0.9648" style="stop-color:#106629"></stop> </linearGradient> <path class="st6" d="M319.4,191.8c-13.3,30.4-4.9,56.2,1.7,70.1c4.6,9.7,8.2,15,10.2,17.6c0.5,0.7,1.6,0.3,1.6-0.6 c-0.3-17.7,5.4-33.3,14.8-46c-4.5-11-11.4-22.4-21.6-33.9C323.9,196.6,321.7,194.2,319.4,191.8z"></path> <linearGradient id="SVGID_8_" gradientUnits="userSpaceOnUse" x1="306.3558" y1="-1.4888" x2="300.1375" y2="108.5761"> <stop offset="0" style="stop-color:#4AB97F"></stop> <stop offset="1" style="stop-color:#40AE91"></stop> </linearGradient> <path class="st7" d="M280.3,113.2c0.7,0.7,1.9,0.1,1.7-0.9c-3-18.4,5-34.7,17.6-45.8c0.2-0.2,0.6-0.2,0.8,0.1 c18.3,20.3,17.2,40,15.7,47.8c-0.3,1.5,1.3,2.7,2.6,2c7.8-4,24.5-15.3,22-41.5c-2.8-30.1-17.4-52.5-30.3-73.4c-1-1.7-3.3-2-4.7-0.6 c-20.9,19.5-33,34-40.1,55.7c-7.4,22.5,1.4,39.3,7.4,47.8C276.2,108.8,278.7,111.5,280.3,113.2z"></path> </g> <g> <g> <path class="st8" d="M540.7,45.3l45.8,0c1.4,0,2.5,1.1,2.5,2.5c0,10.9,0,54.2-0.1,77.3c0.3,4.5-1.2,10.6,4.3,12.7 c10.4-4.7,19.9-11.6,31.5-13.3c19.8-3.1,40.8-4.1,60.1,2.5c27.2,10,49.3,34.3,54.6,63c4.3,22.3,4.9,46.1-3.4,67.5 c-10.1,27.5-34.5,48.7-62.6,56.1c-20.5,5.1-42.8,5.2-62.8-2c-6.4-2.1-11.9-6-17.6-9.3c-1.5-0.9-2.5-1.6-4-2.3 c-1-0.5-2.1-0.2-2.8,0.2c-1.6,1.1-2.7,2.5-3,4.6c-0.3,1.9-0.4,5.3-0.4,7.5c0,1.4-1.1,2.5-2.5,2.5l-39.5,0c-1.4,0-2.5-1.1-2.5-2.5 l-0.1-264.5C538.2,46.4,539.3,45.3,540.7,45.3z M632.9,162.1c-24.2,2.9-44,25.9-43.4,50.2c-0.2,15.1-1.7,31.9,7.4,45 c17.2,24.6,57.2,27,78.3,6.3c23.8-25.4,22.7-73.2-7-93.7C658.1,162.5,645.1,160.1,632.9,162.1z"></path> </g> <path class="st8" d="M756.4,45.1l44.1,0.1c1.8,0,3.3,1.5,3.3,3.3l0,263c0,1.8-1.5,3.3-3.3,3.3l-44.2-0.2c-1.8,0-3.3-1.5-3.3-3.3 l0.1-262.8C753.1,46.6,754.6,45.1,756.4,45.1z"></path> <g> <path class="st8" d="M1074.7,233.5c-2.1,0-3.6,2.1-3.1,4.1c3.8,14.2,14.6,28.5,28.7,34c28.8,12.2,60.5,5.2,89.3-3.2 c1.7-0.5,3.5,0.5,4,2.3l7.9,29.8c0.4,1.6-0.4,3.2-1.9,3.8c-29.6,12.3-62.7,14.3-94.3,11c-31.7-3.6-63.2-22-75.8-52.3 c-15.5-37.6-8.1-85,20.9-114.2c22.9-22.1,56.7-30.4,87.8-25.6c24.7,2.9,48.4,16.3,61.7,37.6c13.5,20.2,13.7,45.7,10.6,69 c-0.2,1.6-1.6,2.8-3.2,2.8L1074.7,233.5z M1159.2,195.6c2.1,0,3.6-2,3.1-4c-2.6-11.2-9.5-22.6-19.9-27.6 c-16.7-7.4-38-6.7-52.3,5.5c-6.5,5.2-12.5,14.4-15.3,21.6c-0.8,2.1,0.7,4.4,3,4.4L1159.2,195.6z"></path> </g> <path class="st8" d="M831.7,126.2h44c1.8,0,3.2,1.4,3.2,3.2c0,14.3-0.1,72.7,0.3,104c0.6,14.7,5,32.1,19.1,39.4 c20.3,8.7,46.5,1.1,57.9-18.1c6.3-10.5,4-23.1,4.4-34.7c0.2-26.8,0.4-77.4,0.5-90.6c0-1.8,1.4-3.2,3.2-3.2h44.7 c1.8,0,3.2,1.4,3.2,3.2l-0.1,180.8c0,1.8-1.4,3.2-3.2,3.2l-39.7,0c-1.7,0-3.1-1.3-3.2-3c-0.2-3.8-0.5-10.2-0.8-14 c-22.7,18.4-53.6,24.7-82,18.7c-14.9-3.4-29.3-11.3-38.6-23.7c-11.8-15.7-16.1-35.9-16.1-55.3c-0.1-32.1-0.1-92.1-0.1-106.6 C828.5,127.7,829.9,126.2,831.7,126.2z"></path> </g> <g> <polygon class="st9" points="857.4,381 872.6,381.1 872.6,401.1 857.3,401.1 "></polygon> </g> <g> <polygon class="st9" points="726.8,381.1 741.9,381.1 742,401.1 726.7,401.1 "></polygon> </g> <g> <path class="st9" d="M592.5,390.9l12.4-3.2l0,24.8l16.6,0.1v13.5l-16.6-0.1c0,0-0.8,42.9,0.6,64.2c0.7,7.8,10.9,5,16.1,6.3 c-0.1,4.6-0.2,9.2-0.2,13.8c-8.3-0.2-17.5,1-24.9-3.5c-6.1-4.1-6.4-12.2-6.6-18.8c-0.1-20.6,0-61.8,0-61.8l-10.8-0.1l-0.1-13.5 l11.3-0.1L592.5,390.9z"></path> </g> <g> <path class="st9" d="M790.9,390.8l12.3-3.1l0,24.8l16.2,0.1v13.6l-16.2,0c0,0,0,37.7,0,56.5c0.4,4.1-0.5,9.2,2.8,12.2 c3.6,1.9,13.4,1.1,13.4,1.1l0,14.5c0,0-17.4,0.9-24.7-3.6c-5.9-4.3-6.3-12.1-6.4-18.7c0-20.7,0-61.9,0-61.9h-10.8v-13.5l11.3-0.1 L790.9,390.8z"></path> <path class="st9" d="M658.7,413.3l12.5-0.5c0,0,0.3,5.2,0.4,6.9c5.7-4.5,12.7-6.8,19.8-7.6c0,4.9,0,9.7,0.1,14.6 c-8.1,1.3-16.1,6.3-16.8,15.2c-2.4,22.5-1,67.9-1,67.9l-15,0.3L658.7,413.3z"></path> <path class="st9" d="M1007.3,413.4l12.6-0.7c0,0,0.4,3.5,0.5,4.6c9.7-6.2,22.1-7.6,33-4c8.4,3,10.6,12.8,10.8,20.7 c0.2,25.3,0.1,76,0.1,76H1049c0,0,0.1-45.4,0-68.2c-0.4-5-0.2-11.2-4.7-14.5c-5.8-2.5-13.7-1.9-18.1,3c-3.8,5.8-3.7,12.9-3.9,19.6 c-0.1,20.1,0,60.1,0,60.1l-14.9,0L1007.3,413.4z"></path> </g> <g> <path class="st9" d="M392.3,413.5l12.6-0.8c0,0,0.1,3.4,0.2,4.5c9.9-6,22.3-7.6,33.4-3.9c8.2,3.2,10.3,12.8,10.6,20.7 c0.3,25.3,0.1,75.9,0.1,75.9l-15.2,0.2c0,0,0-43.5,0-65.3c-0.4-5.8,0.4-13.1-4.5-17.3c-5.7-2.6-13.5-2.1-18.1,2.6 c-4.1,5.8-3.8,13.2-4.1,20c0,20,0,59.9,0,59.9l-14.9,0.1L392.3,413.5z"></path> <g> <path class="st9" d="M927.5,413.5c11.5-3.6,26.4-3.2,35,6.2c8,10.1,7.2,23.7,7.8,35.8c-0.3,13.9,1,28.7-4.6,41.8 c-6.9,14.6-26.9,16.6-40.3,10.7c-9.8-4.3-13.5-15.3-14.4-25.1c-1.4-15.5-1.5-31.1,0.4-46.6C912.6,426.8,917.7,416.6,927.5,413.5z M935.5,426.7c-9,2.3-9.5,13.4-10,20.9c0.1,13.4-1.4,27.1,1.7,40.2c2.2,12.7,23.6,12.8,25.9,0.1c2.8-16.9,2.7-34.5,0.2-51.5 C952.4,428,942.9,424.1,935.5,426.7z"></path> </g> </g> <g> <path class="st9" d="M488.1,412.6h15.3c0,0-0.1,44.9-0.1,67.3c0.3,5.2,0,11.8,4.7,15.2c4.4,3,10.3,2.4,15.2,1.2 c6.1-3.1,6.3-10.7,6.5-16.5c0.1-22.4,0-67.2,0-67.2l14.9,0c0,0,0.1,46.8-0.1,70.3c0.1,9.5-2.7,20.7-12.3,24.9 c-15.3,7.3-41.3,3.4-43.4-16.7C487.1,465,488.1,412.6,488.1,412.6z"></path> <rect x="726.7" y="412.6" class="st9" width="15.2" height="97.4"></rect> <polygon class="st9" points="857.3,412.6 872.6,412.6 872.6,510.1 857.4,510 "></polygon> </g> <g> <path class="st9" d="M1333.2,118.9c-37.9,0-60.3,18.2-62.1,19.4c-1.7,1.2-4.2,3-4.2-0.5v-11.5c0-1.7-1.3-3.7-5-3.7h-34.6 c-3.2,0-6,1.2-6,5.7v249.7c0,6.2,3.7,7,10.7,7h33.4c4.7,0,6-4.7,6-9.5c0,0,0.3-59.5,0.3-64c0-4.5,0.5-7.7,4.5-7.7 c4,0,18.7,14,51.3,14c46.3,0,96.7-31.4,96.7-100.9C1424.1,140.6,1371,118.9,1333.2,118.9z M1324.7,277.9c-8,0-32.1-4-42.9-17.4 c-10.7-13.5-10.7-23.9-10.7-32.4c0,0,0.2-2.5,0.2-20.4c0-27.2,25.4-49.3,51.3-49.3c25.9,0,51.1,19.7,51.1,62.8 C1373.8,264.2,1332.7,277.9,1324.7,277.9z"></path> <path class="st9" d="M1435,129.2c0-4.5,1.4-7.2,4.3-7.2s34.8,0,37.8,0c3.1,0,3.9,1.8,3.9,3.3c0,1.4,0,4.5,0,8s1.8,4.1,3.9,2.7 c2-1.4,18.2-17.4,43.8-17.4c12.3,0,18.8,4.7,18.8,7.8c0,3.1,0,33.9,0,37s-2.2,2.5-6.1,1.2c-3.9-1.2-23.9-4.3-36.8,5.7 c-12.9,10-18.2,21.7-18.2,42.1s0,94.5,0,96.7c0,2.2-0.6,4.7-5.7,4.7c-5.1,0-28,0-36.8,0s-9-2.2-9-10 C1434.8,296.1,1435,129.2,1435,129.2z"></path> <path class="st9" d="M1597.6,313.2h-42.7c-2.2,0-3.9-1.7-3.9-3.9v-183c0-2.2,1.7-3.9,3.9-3.9h42.7c2.2,0,3.9,1.7,3.9,3.9v183 C1601.5,311.5,1599.7,313.2,1597.6,313.2z"></path> <ellipse class="st9" cx="1575.9" cy="80.5" rx="29.9" ry="27"></ellipse> <path class="st9" d="M1676.1,308.3c0,4.5-2.4,5.1-6.1,5.1s-27.7,0-35.9,0c-8.2,0-7.6,0.6-7.6-5.1s0-145.6,0-159.2s-0.4-20-0.6-22.2 c-0.1-2.3,1-5.1,4.5-5.1s27,0,33.3,0s7.5,1.7,7.7,4.6c0.2,2,0.4,8,0.6,11.8c0,1.2,1.5,1.8,2.4,1c6.5-5.6,27-20.4,59.3-20.4 c39.8,0,59,24.4,65.8,35.1s10.5,24.4,10.5,58.1c0,33.7,0,84.3,0,92.4s-2.5,8.8-9.5,8.8c-7,0-24.1,0-31.3,0c-7.2,0-9.2,1.3-9.2-6.3 c0-7.6,0-81.8,0-101.9c0-20.1-9.2-45.9-37.2-45.9c-27.2,0-46.3,15.5-46.3,53.5C1676.7,250.7,1676.1,308.3,1676.1,308.3z"></path> <path class="st9" d="M1841.2,87c0-5,0.6-7.1,6.1-7.5c5.6-0.4,32.1-6.1,36.9-8.3c4.8-2.1,7.5,0.8,7.5,3.8s0,38.2,0,43.2 s5.6,3.8,9.4,3.8s30.6,0,35.9,0c5.4,0,6.9,0.2,6.9,6.3c0,6.1,0,24.6,0,27.3c0,2.7-3.3,6.1-7.5,6.1c-4.2,0-39.2,0-41.5,0 s-3.7,0.4-3.7,4c0,3.7,0,76.7,0,87.2c0,10.6,2.5,23.1,21.5,23.1c13.8,0,20.8-3.3,22.9-3.5c2.1-0.2,2.5,1.9,2.5,3.8 c0,1.9,2.7,30.7,2.7,31.7c0,1-1.7,2.5-3.1,3.3c-1.3,0.8-18.4,5.8-30.2,5.8s-36.7-0.6-51.1-14.6c-14.4-14-15.2-32.7-15.2-51.7 c0-19,0-72.4,0-81.3c0-8.8-1.9-7.9-8.5-7.9c-6.5,0-12.9,0-18.1,0s-3.8-3.8-3.8-6.3c0-2.5,0-21.5,0-26.5c0-5,1-7.1,4.8-7.1 s11.3,0,15.6,0c4.2,0,9.4-0.2,9.4-6.9C1840.8,108.3,1841.2,87,1841.2,87z"></path> </g> </svg> 