<?xml version="1.0" encoding="UTF-8"?> <svg xmlns="http://www.w3.org/2000/svg" xmlns:xlink="http://www.w3.org/1999/xlink" version="1.1" id="Layer_1" x="0px" y="0px" viewBox="0 0 309.1 309" style="enable-background:new 0 0 309.1 309;" xml:space="preserve"> <style type="text/css"> .st0{fill:#FFFFFF;} </style> <g> <g> <path class="st0" d="M71.3,31.6c3-6.2,6.9-14,14.9-13.9c45-0.1,89.9,0.1,134.9-0.1c6.5-0.6,12.1,4,14.4,9.7 c3.6,5.8,2,12.9,2.3,19.4c-1.9,1.7-3.7,3.4-5.6,5.1c-1.9-1.7-3.7-3.4-5.6-5.1c-1.1-6.3,2.5-14.7-2.5-19.5 c-8.3-0.7-16.6-0.2-24.9-0.4c-0.4,4.8,0.1,10-2.6,14.4c-2.9,3.8-8,4.5-12.5,4.2c-21.5-0.3-43,0.1-64.5-0.2 c-9.2-0.8-10.2-11.2-9.9-18.4c-8.9,0.1-17.9-0.3-26.7,0.6c-0.6,5.3-0.7,10.7-0.6,16c0,73.3-0.1,146.6,0,220 c8.4,0.2,16.9-0.4,25.4,0.2c3.4,1.6,3.5,7.2,0,8.8c-8.5,0.8-17.1,0.1-25.6,0.4c0.1,2.2,0.4,4.4,0.7,6.7c1.6,3.4,5.7,2.2,8.7,2.5 c43.7-0.1,87.3,0.2,131-0.2c4.6-0.1,3.8-5.8,4.2-9c-32.8-0.2-65.5-0.1-98.3,0c-3.4,0.1-6.8-0.8-10-1.8c0.9-2.6,1-7.7,4.8-7.6 c34.4,0,68.9,0.1,103.3,0c0.1-66.5,0-132.9,0-199.4c-0.1-5.7,11.2-5.8,11.1,0c0.1,66.5-0.1,132.9,0.1,199.4 c-0.2,6,1.1,12.6-2.3,18c-2.3,5.8-7.9,10.4-14.4,9.7c-45-0.1-89.9,0-134.9-0.1c-8.1,0.1-12.1-7.9-14.9-14.2 C71.3,276.8,71.3,31.6,71.3,31.6z M119.4,27c0,2.4,0,4.9,0,7.3c23.4,0.1,46.8,0.1,70.2,0c0-2.4,0-4.9,0-7.3 C166.2,26.9,142.8,26.9,119.4,27z"></path> </g> <path class="st0" d="M151.3,96.8c20.6,1.9,42.3,11.8,51.9,31.1c5.9,9.5,7.6,20.7,6.7,31.7c-0.9,0.8-2.8,2.3-3.8,3 c-1.8-1.7-3.6-3.3-5.5-5c1.5-23.1-16-45.6-39-49.2c-5.4,0.1-12.2-0.3-15-5.7C148,100.7,149.8,98.8,151.3,96.8z"></path> <g> <path class="st0" d="M103.1,112.3c5.4-4.7,11.6-10.3,19.3-9.9c7.6,7.2,12.8,16.5,18.7,25.1c0.9,3.2,0.4,6.7,0.6,10 c-3,2.3-6.1,4.4-9.3,6.4c8.8,12,18.8,23.3,31.5,31.3c3.9-3.8,8-7.5,12.8-10.3c10,6.9,21.4,12.4,29.6,21.6c1,5.7-4.6,9.9-6.5,14.8 c-1.9,5-7.5,6.7-12.1,8.5c-18.7,2.1-36.4-8-49.5-20.4c-7.6-5.2-14-12.1-19.4-19.5c-8.2-7.9-13.3-18.2-17.7-28.5 c-1.1-2.9-2.2-5.9-2-9.1C99.1,125.6,97.4,117.5,103.1,112.3z M108.3,119.8c0.1,6.6-0.8,13.5,2.1,19.7 c4.6,13.8,15.7,23.6,24.2,34.8c9.7,7.6,18.6,16.5,29.8,21.9c8.2,2.8,18.1,7.7,26.3,2c1.8-3.1,3.2-6.5,4.7-9.7 c-6.5-3.9-12.7-8.4-19.2-12.3c-2.7,4.1-5.7,8.2-10.4,10.2c-12.1-4.9-22.8-13.3-31.1-23.3c-4.5-7.2-12.5-13.4-12-22.7 c3.2-2.9,6.2-5.9,9.3-8.8c-3.8-6.1-7.9-12-11.6-18.1C115.8,114.1,111.8,116.8,108.3,119.8z"></path> </g> <path class="st0" d="M151.5,120.8c9.1,1.6,18.7,4.3,24.8,11.8c7.9,6.4,11,17.1,9.4,26.9c-3.1,5.9-9.6-0.6-9.2-5.1 c-0.3-12.6-12.5-24.4-25.3-22.1c-1.6-1.8-3.3-3.7-4.9-5.5C148.1,124.8,149.8,122.8,151.5,120.8z"></path> </g> </svg> 