<?xml version="1.0" encoding="UTF-8"?> <svg xmlns="http://www.w3.org/2000/svg" xmlns:xlink="http://www.w3.org/1999/xlink" version="1.1" id="Layer_1" x="0px" y="0px" viewBox="0 0 309.1 309" style="enable-background:new 0 0 309.1 309;" xml:space="preserve"> <style type="text/css"> .st0{fill:#FFFFFF;} </style> <g> <g> <path class="st0" d="M82.7,31.4c12.6-14.7,36.3-17.6,52.9-8.2c8.8,4.6,13.9,13.9,16.9,23c0.6,7.1,0.1,14.3,0.2,21.4 c3.2,0,6.5,0,9.7,0c-3-21,14.3-42.7,35.8-43.6c12.5,0,25.1,0.2,37.7-0.1c11.9-0.7,23.8,5.2,31.2,14.4c6.9,8.4,9.1,19.5,8.4,30.1 c7.7,1.7,14.2,6.7,17.6,13.9v156.5c-4.8,5.5-9.8,12.6-17.9,12.8c-25,0-50-0.1-75,0c4.7,9.8,8.8,20,14,29.6c3.9,0,7.7,0,11.6,0.1 c0,3.3,0,6.6,0,9.9c-46.1,0-92.2,0-138.3,0c-4.1,0.2-4.2-5.3-5.1-8.2c4.7-1.5,9.7-1.9,14.6-2.1c3.9-10.1,9-19.7,14.1-29.3 c-24.4,0-48.9,0-73.3,0.1C25.7,251.9,15.4,239.8,16,228c0.3-47.4-0.1-94.8,0.2-142.2c3.2-9.7,12.8-18.6,23.6-18.2 c11.2,0,22.4,0.1,33.6,0.1C72.9,55.1,73.8,41.1,82.7,31.4z M90.1,38.6c-3.5,5.9-5.5,12.4-7.2,19c1.6,0,4.7,0.1,6.3,0.1 c2.5-4.7,4.3-9.7,6.5-14.5c7.5,0.3,8.9,10.1,15.7,12.2c10.1,4,21.2,1.6,31.7,2.1c-0.4-11.6-6-24.5-18.4-27.1 C112.7,25.4,99.1,30.3,90.1,38.6z M179.6,45c-3.3,4.5-5.5,9.7-6.9,15.1c-0.5,11.6,5.4,23.5,15.8,29c5.2,2,11,1.6,15.9,4.2 c0.1,5.6-0.5,11.3-2.4,16.6c7.1-5.2,12.1-12.6,18.6-18.6c9.6-0.6,19.7,1.6,28.9-2.2c12.5-6.8,20.2-23.6,13.7-37.1 C259,41.7,248,36,237.6,34.1c-13-0.1-26.1-0.5-39.1,0.2C191.8,36.7,183.3,38.2,179.6,45z M95,67.6c-3.9,0.3-7.7,0.8-11.6,1 c-0.4,9.5,0.4,19.4,4.7,28c4.6,5.3,9.6,11.5,17,12.6c13.6,5,29.1-3.7,35.4-16.1c3.6-7.9,1.8-16.7,2.3-25.1 c-7.9,0.4-15.9-0.8-23.8-0.3c-7.3,0.7-14-2.9-20.2-6.2C97.5,63.5,96.2,65.5,95,67.6z M32.8,79.6c-1.5,1.6-3.1,3.1-4.6,4.6 C27.9,127.5,28,170.7,28,214c3.2,0,6.5,0,9.8,0c1.1-17.3-2.8-35.2,3.6-51.8c4.9-13.5,14.1-25.5,26.4-33.1c6.3-5,14.5-5.5,21.8-8.3 c-0.1-2.4-0.2-4.8-0.4-7.2c-9.2-8.9-16.3-21.1-16-34.2C59.7,79.5,46.2,79.4,32.8,79.6z M152.7,79.5c1.7,11.3-3.4,22.5-11.4,30.3 c-3.6,2.5-2.2,7.3-2.7,11c8.3,3.5,17.6,5.2,24.6,11.4c10.5,6.8,17.6,17.8,22.4,29.2c4.7,17.2,1.8,35.1,2.6,52.6 c31.6,0,63.3,0,94.9,0c0-43.3,0.1-86.5-0.1-129.8c-1.6-1.6-3.2-3.2-4.8-4.9c-9.6-1.1-10.4,11.5-17.9,15c-10.8,8.4-24.8,10-38,8.9 c-4.5,8.7-13.2,17.4-23.7,16c-4-4.7-11.5-10.5-6.6-17.1c-6.5-2.7-12.8-5.9-18.2-10.3c-3-3.9-5.4-8.2-8-12.3 C161.6,79.5,157.1,79.5,152.7,79.5z M96.5,117.3c2.1,8.4,10.1,15.5,18.4,17.7c4.7-3.5,8.6-8,13.9-10.7c0-1.4,0-4.1,0.1-5.5 C118.3,122.3,106.7,122.1,96.5,117.3z M83.2,132.9c4,5.2,7.5,10.7,10.9,16.3c4.5-0.9,8.1-3.9,12-6.3c-4.7-2.9-9-6.4-13.3-9.8 C89.6,132.8,86.4,132.9,83.2,132.9z M121.9,142.9c2.9,2.4,6.2,4.4,9.4,6.4c4-5.4,8.3-10.6,11.8-16.4 C134.1,130.7,128.4,138.3,121.9,142.9z M49.6,176.2c-3.1,12.4-1.5,25.2-1.8,37.8c5.9,0,11.8,0,17.8,0c0.1-7.8-0.4-15.5,0.1-23.2 c2-3.6,7.6-3.6,9.7,0c0.4,7.8,0,15.5,0.1,23.3c5.9,0,11.8,0,17.7,0c2.8-6.1,2-13.1,4.3-19.4c2.3-6.2,0.9-12.9,2.8-19.1 c1.6-4.3-1-8.5-1.6-12.8c-2.3-0.1-4.6-0.1-7-0.2c-5.4-8.4-11.9-16.2-17.8-24.3C60.3,145.8,49.4,160.2,49.6,176.2z M137.4,159.2 c-3.1,3.8-9.8,3.3-11.2,8.7c-2.8,3.9,0.1,8.4,0.8,12.4c3.4,11,2.7,22.8,6.3,33.7c5.8,0,11.6,0,17.4,0c0.4-8.7-1.7-17.8,2.3-26 c3.3,0.4,7.4-0.8,9.5,2.7c0.4,7.7,0,15.5,0.1,23.2c5.2,0,10.5,0,15.8,0c0-11.9,0-23.8,0-35.7c0.4-6.6-2.9-12.6-5.2-18.6 c-3-9.5-11.8-15.2-18.7-21.6C147.7,144.2,143.3,152.4,137.4,159.2z M106.8,153.3c0.4,3.9,1.4,7.6,2.8,11.2c2.2,0,4.4,0,6.6,0 c1.4-3.2,3-6.4,4.7-9.6c-2-1.5-3.8-3.1-5.9-4.4C112.2,151.2,109.5,152.4,106.8,153.3z M111.7,174.4c-0.6,8.1-4.5,15.6-4.5,23.7 c0.1,5.4-1.7,10.5-2.4,15.7c5.8,0.1,11.6,0.1,17.4,0.1c-1.7-13.2-6.4-26.1-5.3-39.6C115.6,174.4,113,174.4,111.7,174.4z M28,223.9 c0,3.8,0,7.6,0,11.4c4,3,8.3,7,13.8,6.4c75.9,0,151.8,0,227.7,0c5.5,0.6,9.7-3.3,13.8-6.4c0-3.8,0-7.6,0-11.4 C198.2,223.9,113.1,223.9,28,223.9z M121.7,251.6c-3.7,10.1-8.9,19.6-13.1,29.5c31.4,0.2,62.7,0.3,94.1-0.1 c-4.9-9.6-9.9-19.3-13.4-29.5C166.8,251.6,144.3,251.6,121.7,251.6z"></path> </g> <path class="st0" d="M192.7,49.9c16.9-0.3,33.8,0,50.7-0.1c5.9-0.4,5.9,10.3,0,9.9c-16.3,0-32.6,0-49,0 C189.3,59.9,188.5,51.9,192.7,49.9z"></path> <path class="st0" d="M194.8,67.6c4.9,0,9.8,0,14.7,0c1.8,2.1,3.6,4.1,5.5,6.2c-5.2,6.9-15,2.7-22.4,3.7c-0.8-1-2.4-3-3.2-4 C191.2,71.5,193,69.6,194.8,67.6z"></path> <path class="st0" d="M228.4,67.6c4.9,0,9.8,0,14.7,0c1.7,2,3.5,3.9,5.2,5.9c-0.8,1-2.4,3-3.1,4c-6.3,0-12.6,0-19,0 c-0.8-1-2.4-3-3.2-4C224.8,71.5,226.6,69.6,228.4,67.6z"></path> <g> <path class="st0" d="M202.1,131c3.2-1.6,6.2-4.3,10-4.1c15.8,0,31.7,0.1,47.5,0c3.4-0.3,6.5,1.1,9.7,2.2 c3.7,7.8,1.8,16.6,2.1,24.9c-1.6,1.5-3.1,3-4.6,4.6c-20.8,0-41.6,0-62.4,0C200.4,149.9,202.6,140.2,202.1,131z M212,138.9 c0,3.3,0,6.5,0,9.8c16.5,0.1,33,0.1,49.5,0c0-3.3,0-6.5,0-9.8C245,138.8,228.5,138.8,212,138.9z"></path> </g> <path class="st0" d="M206.6,168.5c20.1,0,40.2,0,60.3,0c1.7,2,3.5,4,5.3,5.9c-1.8,2-3.6,3.9-5.4,5.9c-20.1,0-40.2,0-60.2,0 c-1.8-2-3.6-4-5.3-5.9C203.1,172.5,204.8,170.5,206.6,168.5z"></path> <path class="st0" d="M206.6,190.3c20.1,0,40.2,0,60.2,0c1.7,2,3.5,4,5.3,5.9c-1.8,2-3.6,3.9-5.3,5.9c-20.1,0-40.2,0-60.3,0 c-1.8-2-3.6-4-5.3-5.9C203.1,194.2,204.8,192.2,206.6,190.3z"></path> <path class="st0" d="M153.2,228c7.2-3.6,10.9,9.3,3.2,9.8C150.6,239.5,148.1,230.4,153.2,228z"></path> </g> </svg> 