<?xml version="1.0" encoding="UTF-8"?> <!-- Generator: Adobe Illustrator 24.0.0, SVG Export Plug-In . SVG Version: 6.00 Build 0) --> <svg xmlns="http://www.w3.org/2000/svg" xmlns:xlink="http://www.w3.org/1999/xlink" version="1.1" id="Layer_1" x="0px" y="0px" viewBox="0 0 300 300" style="enable-background:new 0 0 300 300;" xml:space="preserve"> <style type="text/css"> .st0{fill:#0F4774;} </style> <g> <g> <path class="st0" d="M151.7,70.1c8.6,0,15.5-7,15.5-15.5s-7-15.5-15.5-15.5c-8.6,0-15.5,7-15.5,15.5S143.1,70.1,151.7,70.1z"></path> </g> <g> <polygon class="st0" points="130.6,166.9 149.7,166.9 149.7,132.8 153.6,132.8 153.6,166.9 172.7,166.9 172.7,122 181.3,125.1 181.3,85.5 165.9,72.9 160.6,84 157.5,74.5 157.5,107.4 157.5,110.4 154.4,110.4 148.9,110.4 145.8,110.4 145.8,107.4 145.8,73 142.7,84 137.4,72.9 122,85.5 122,125.1 130.6,122 "></polygon> </g> <g> <path class="st0" d="M151.7,74.7c-1.9,0-3.5,1.6-3.5,3.5c0,1.4,0.9,2.7,2.2,3.2h2.6c1.3-0.5,2.2-1.8,2.2-3.2 C155.1,76.3,153.6,74.7,151.7,74.7z"></path> </g> <g> <path class="st0" d="M126.2,125.6l-2.4,0.9c-1,0.9-1.4,2.4-0.9,3.8c0.7,1.8,2.7,2.7,4.5,2c1.8-0.7,2.7-2.7,2-4.5 C128.9,126.5,127.6,125.6,126.2,125.6z"></path> </g> <g> <path class="st0" d="M174,127.8c-0.7,1.8,0.1,3.8,1.9,4.5c1.8,0.7,3.8-0.1,4.5-1.9c0.5-1.3,0.2-2.8-0.8-3.8l-2.4-1 C175.8,125.6,174.5,126.4,174,127.8z"></path> </g> <g> <rect x="148.9" y="84.5" class="st0" width="5.5" height="22.9"></rect> </g> <g> <polygon class="st0" points="175.2,180.1 129.6,180.1 129.6,206.7 106.5,206.7 129.5,233.8 152.4,260.9 175.3,233.8 198.2,206.7 175.2,206.7 "></polygon> </g> <g> <polygon class="st0" points="257.7,101.6 230.5,78.7 230.5,101.8 203.9,101.8 203.9,147.4 230.5,147.4 230.5,170.4 257.7,147.5 284.8,124.6 "></polygon> </g> <g> <polygon class="st0" points="69.5,78.7 42.3,101.6 15.2,124.6 42.3,147.5 69.5,170.4 69.5,147.4 96.1,147.4 96.1,101.8 69.5,101.8 "></polygon> </g> </g> </svg> 