<?xml version="1.0" encoding="UTF-8"?> <!-- Generator: Adobe Illustrator 24.0.0, SVG Export Plug-In . SVG Version: 6.00 Build 0) --> <svg xmlns="http://www.w3.org/2000/svg" xmlns:xlink="http://www.w3.org/1999/xlink" version="1.1" id="Layer_1" x="0px" y="0px" viewBox="0 0 300 300" style="enable-background:new 0 0 300 300;" xml:space="preserve"> <style type="text/css"> .st0{fill:#FFFFFF;} </style> <g> <g> <path class="st0" d="M88.8,159c0-2.7-2.7-4.9-6-4.9c-3.3,0-6,2.2-6,4.9s2.7,4.9,6,4.9C86.1,163.9,88.8,161.7,88.8,159z"></path> </g> <g> <path class="st0" d="M82.8,182.4l6.8-9c-0.7-4.9-3.5-8.6-6.8-8.6c-3.3,0-6.1,3.7-6.8,8.6L82.8,182.4z"></path> </g> <g> <path class="st0" d="M105.1,160.6c-0.8-0.1-1.6,0.2-2,0.8l-9.1,12c8.1-5.2,17.9-8.1,25.1-9.7C113,161.9,107.5,160.9,105.1,160.6z"></path> </g> <g> <path class="st0" d="M80.4,191.1c0.3-1.4,0.8-2.8,1.4-4.1l-5.7-7.6l-13.5-18c-0.5-0.6-1.2-0.9-2-0.8c-6.6,0.9-36.9,6.3-41.2,24.6 c0,0.1,0,0.2,0,0.3L15,215.2c-0.2,1.3,0.8,2.4,2.1,2.4h47.9h11.6l3.6-25.9C80.3,191.5,80.3,191.3,80.4,191.1z"></path> </g> <g> <path class="st0" d="M58.8,127.1c0.5,0,1-0.1,1.5-0.2l4,10.8l0,0c2.1,8.2,9.6,14.4,18.5,14.4c8.9,0,16.3-6.1,18.4-14.4l4-10.8 c0.5,0.2,1,0.3,1.5,0.3c2.8,0,5.1-2.3,5.1-5.1v-7.3c0-2.4-1.7-4.5-4-5V97.8c0-8.5-5.2-15.9-12.6-19.1c-3.4-2.6-7.7-4.2-12.5-4.2 c-4.8,0-9.1,1.5-12.5,4.2c-7.4,3.2-12.6,10.5-12.6,19.1v11.9c-2.3,0.5-4,2.5-4,5v7.3C53.7,124.8,56,127.1,58.8,127.1z"></path> </g> <g> <path class="st0" d="M223.3,159c0-2.7-2.7-4.9-6-4.9c-3.3,0-6,2.2-6,4.9s2.7,4.9,6,4.9C220.6,163.9,223.3,161.7,223.3,159z"></path> </g> <g> <path class="st0" d="M217.2,182.4l6.8-9c-0.7-4.9-3.5-8.6-6.8-8.6c-3.3,0-6.1,3.7-6.8,8.6L217.2,182.4z"></path> </g> <g> <path class="st0" d="M196.9,161.4c-0.5-0.6-1.2-0.9-2-0.8c-2.4,0.3-7.8,1.3-14,3.1c7.2,1.6,17,4.5,25.1,9.7L196.9,161.4z"></path> </g> <g> <path class="st0" d="M285,215.2l-4.1-29.8c0-0.1,0-0.2,0-0.3c-4.4-18.3-34.6-23.6-41.2-24.6c-0.8-0.1-1.6,0.2-2,0.8l-13.5,18 l-5.7,7.6c0.6,1.3,1,2.6,1.4,4.1c0.1,0.2,0.1,0.5,0.1,0.7l3.6,25.9h11.6h47.9C284.2,217.6,285.2,216.5,285,215.2z"></path> </g> <g> <path class="st0" d="M193.2,127.1c0.5,0,1-0.1,1.5-0.2l4,10.8l0,0c2.1,8.2,9.6,14.4,18.5,14.4c8.9,0,16.3-6.1,18.4-14.4l4-10.8 c0.5,0.2,1,0.3,1.5,0.3c2.8,0,5.1-2.3,5.1-5.1v-7.3c0-2.4-1.7-4.5-4-5V97.8c0-8.5-5.2-15.9-12.6-19.1c-3.4-2.6-7.7-4.2-12.5-4.2 c-4.8,0-9.1,1.5-12.5,4.2c-7.4,3.2-12.6,10.5-12.6,19.1v11.9c-2.3,0.5-4,2.5-4,5v7.3C188.1,124.8,190.4,127.1,193.2,127.1z"></path> </g> <g> <path class="st0" d="M152.9,172.2c-0.9,0.3-1.9,0.4-2.9,0.4s-2-0.2-2.9-0.4c-1.8,1.3-3.2,3.7-3.9,6.6l3.4,4.6l3.3,4.4l3.3-4.4 l3.4-4.6C156.1,175.9,154.7,173.5,152.9,172.2z"></path> </g> <g> <path class="st0" d="M215.2,192.1c-4.5-18.8-35.5-24.2-42.3-25.2c-0.1,0-0.2,0-0.3,0c-0.7,0-1.3,0.3-1.8,0.9L157,186.2l-7,9.2 l-7-9.2l-13.9-18.4c-0.4-0.6-1.1-0.9-1.8-0.9c-0.1,0-0.2,0-0.3,0c-6.8,1-37.8,6.4-42.3,25.2c0,0.1,0,0.2,0,0.3l-4.2,30.5 c-0.2,1.3,0.8,2.5,2.2,2.5h49.1h36.3h49.1c1.3,0,2.4-1.2,2.2-2.5l-4.2-30.5C215.2,192.3,215.2,192.2,215.2,192.1z"></path> </g> <g> <path class="st0" d="M156.2,165.4c0-1.2-0.5-2.3-1.4-3.2c-1.6,0.3-3.2,0.5-4.8,0.5c-1.6,0-3.2-0.2-4.7-0.5 c-0.9,0.9-1.4,1.9-1.4,3.1c0,2.8,2.8,5,6.2,5C153.4,170.4,156.2,168.1,156.2,165.4z"></path> </g> <g> <path class="st0" d="M168.9,143.4l4.1-11c0.5,0.2,1,0.3,1.6,0.3c2.9,0,5.2-2.3,5.2-5.2v-7.5c0-2.5-1.8-4.6-4.1-5.1v-12.2 c0-8.7-5.3-16.3-12.9-19.5c-3.4-2.7-7.9-4.3-12.8-4.3c-4.9,0-9.3,1.6-12.8,4.3c-7.6,3.3-12.9,10.8-12.9,19.5v12.2 c-2.3,0.5-4.1,2.6-4.1,5.1v7.5c0,2.9,2.3,5.2,5.2,5.2c0.5,0,1-0.1,1.5-0.2l4.1,11l0,0c2.2,8.4,9.8,14.7,18.9,14.7 C159,158.1,166.7,151.8,168.9,143.4z"></path> </g> </g> </svg> 