<?xml version="1.0" encoding="UTF-8"?> <!-- Generator: Adobe Illustrator 24.0.0, SVG Export Plug-In . SVG Version: 6.00 Build 0) --> <svg xmlns="http://www.w3.org/2000/svg" xmlns:xlink="http://www.w3.org/1999/xlink" version="1.1" id="Layer_1" x="0px" y="0px" viewBox="0 0 300 300" style="enable-background:new 0 0 300 300;" xml:space="preserve"> <style type="text/css"> .st0{fill:#FFFFFF;} </style> <g> <g> <g> <path class="st0" d="M143.5,53.6c-8,0-14.5,6.5-14.5,14.5v3.1c0,8,6.5,14.5,14.5,14.5c8,0,14.5-6.5,14.5-14.5v-3.1 C158,60.2,151.5,53.6,143.5,53.6"></path> </g> <g> <g> <path class="st0" d="M143.5,91.2c-1.8,0-3.4,1.5-3.4,3.4v10.3c0,1.8,1.5,3.4,3.4,3.4c1.8,0,3.4-1.5,3.4-3.4V94.6 C146.9,92.8,145.3,91.2,143.5,91.2z"></path> </g> </g> <g> <path class="st0" d="M165.4,90.5h-6.4c-0.4,0-0.7,0.2-0.9,0.5l-5.7,9.5l-8,14.3c-0.4,0.7-1.5,0.7-1.9,0l-8-14.3l-5.7-9.5 c-0.2-0.3-0.5-0.5-0.9-0.5h-6.4c-3,0-5.4,2.4-5.4,5.4v54.4c0,3,2.4,5.4,5.4,5.4c2.8,0,5.2-2.3,5.2-5.2v-29c0-0.6,0.5-1.1,1.1-1.1 h0.7c0.6,0,1.1,0.5,1.1,1.1V214c0,0.6,0.5,1.1,1.1,1.1h11.4v-49.6h2.9v49.6h11.4c0.6,0,1.1-0.5,1.1-1.1v-92.5 c0-0.6,0.5-1.1,1.1-1.1h0.7c0.6,0,1.1,0.5,1.1,1.1v29.9c0,2.4,1.9,4.3,4.3,4.3h0.9c3,0,5.4-2.4,5.4-5.4V95.9 C170.8,93,168.4,90.5,165.4,90.5z"></path> </g> <g> <rect x="196.9" y="148.6" class="st0" width="22.6" height="66.5"></rect> </g> <g> <path class="st0" d="M232,137.4l-20.2-24.5c-1.9-2.4-5.6-2.4-7.5,0l-20,24.5c-2.6,3.2-0.3,7.9,3.8,7.9h40.1 C232.4,145.3,234.6,140.5,232,137.4l-20.2-24.5c-1.9-2.4-5.6-2.4-7.5,0l-20,24.5c-2.6,3.2-0.3,7.9,3.8,7.9h40.1 C232.4,145.3,234.6,140.5,232,137.4z"></path> </g> <g> <rect x="67.6" y="177.3" class="st0" width="22.6" height="37.8"></rect> </g> <g> <path class="st0" d="M55,166.1c-2.6,3.2-0.3,7.9,3.8,7.9h40.1c4.1,0,6.4-4.8,3.7-7.9l-20.2-24.5c-1.9-2.4-5.6-2.4-7.5,0L55,166.1 "></path> </g> <g> <path class="st0" d="M55,166.1c-2.6,3.2-0.3,7.9,3.8,7.9h40.1c4.1,0,6.4-4.8,3.7-7.9l-20.2-24.5c-1.9-2.4-5.6-2.4-7.5,0L55,166.1 "></path> </g> </g> <g> <path class="st0" d="M284.1,232L250.3,220v9h-217V87.9h8.4L28.8,54.1c-0.3-0.7-1.3-0.7-1.5,0L15.3,87.9h9.2v149.4h0.5v0.5h225.3 v8.6l33.8-12.9C284.9,233.3,284.8,232.2,284.1,232z"></path> </g> </g> </svg> 