<?xml version="1.0" encoding="UTF-8"?> <!-- Generator: Adobe Illustrator 24.0.0, SVG Export Plug-In . SVG Version: 6.00 Build 0) --> <svg xmlns="http://www.w3.org/2000/svg" xmlns:xlink="http://www.w3.org/1999/xlink" version="1.1" id="_x2014_ÎÓÈ_x5F_1" x="0px" y="0px" viewBox="0 0 795.8 795.8" style="enable-background:new 0 0 795.8 795.8;" xml:space="preserve"> <style type="text/css"> .st0{opacity:0.5;fill:#EAEBED;} .st1{fill:#0A6EB0;} </style> <ellipse class="st0" cx="397.9" cy="631.4" rx="214.8" ry="15.9"></ellipse> <path class="st1" d="M609.2,539.6h-91.5l-27.7-73c6.3-5.8,8.8-15,5.6-23.5l-12.5-32.9c-4.2-11.1-16.6-16.7-27.7-12.5l0,0 c-11.1,4.2-16.7,16.6-12.5,27.7l12.5,32.9c3.2,8.5,11.2,13.7,19.7,13.9l25.5,67.4H297.7l25.5-67.4c8.5-0.2,16.5-5.4,19.7-13.9 l12.5-32.9c4.2-11.1-1.4-23.5-12.5-27.7l0,0c-11.1-4.2-23.5,1.4-27.7,12.5l-12.5,32.9c-3.2,8.5-0.7,17.7,5.6,23.5l-27.7,73h-94 c-10,0-16.1,10.9-10.9,19.4l4.1,6.7c4.6,7.6,12.9,12.2,21.8,12.2h392.6c8.9,0,17.1-4.6,21.8-12.2l4.1-6.7 C625.3,550.5,619.2,539.6,609.2,539.6z M505.4,439.4c3.8,9.9,2.4,20.8-3.4,29.2l22.9,60.5h72.3c1.6-6,2.5-12.4,2.6-18.9 c0.7-36.9-24.8-68.3-58.9-78.1c-15.8-4.5-31.2-10.7-45.4-18.8L505.4,439.4z M198.6,529.2h74.9l22.9-60.5c-5.8-8.5-7.2-19.3-3.4-29.2 l10.6-27.9c-15.2,9.1-31.6,15.8-48.7,20.7c-34.1,9.7-59.6,41.1-58.9,78.1C196.1,516.8,197,523.1,198.6,529.2z M327.2,386.9 c2.6-0.7,5.4-1,8.1-1c3.9,0,7.7,0.7,11.3,2.1c8,3,14.3,9,17.8,16.8c3.5,7.8,3.8,16.5,0.7,24.5l-12.5,32.9 c-3.8,9.9-12,17.1-21.9,19.6l-18,47.5h172.6l-18-47.5c-9.9-2.5-18.2-9.7-21.9-19.6l-12.5-32.9c-3-8-2.8-16.7,0.7-24.5 c3.5-7.8,9.8-13.7,17.8-16.8c3.6-1.4,7.5-2.1,11.3-2.1c1.8,0,3.6,0.2,5.3,0.5c-4.5-12.4-3.2-26.7,4.9-38.5 c29.9-43.7,49.1-105,49.1-145.4c0-68.7-55.7-124.5-124.5-124.5s-124.5,55.7-124.5,124.5c0,40.4,19.3,101.8,49.1,145.4 C330.8,359.8,332.1,374.4,327.2,386.9z"></path> <g> <path class="st1" d="M261.1,725.1c-1.6,0.8-4.8,1.6-8.9,1.6c-9.5,0-16.7-6-16.7-17.1c0-10.6,7.2-17.7,17.6-17.7 c4.2,0,6.9,0.9,8,1.5l-1.1,3.5c-1.6-0.8-4-1.4-6.8-1.4c-7.9,0-13.2,5-13.2,13.9c0,8.3,4.8,13.6,13,13.6c2.7,0,5.4-0.5,7.1-1.4 L261.1,725.1z"></path> <path class="st1" d="M294.3,709c0,11.6-7,17.8-15.7,17.8c-8.9,0-15.2-6.9-15.2-17.1c0-10.7,6.7-17.7,15.7-17.7 C288.4,692,294.3,699,294.3,709z M268.2,709.6c0,7.2,3.9,13.7,10.8,13.7c6.9,0,10.8-6.4,10.8-14c0-6.7-3.5-13.7-10.8-13.7 C271.8,695.5,268.2,702.2,268.2,709.6z"></path> <path class="st1" d="M328.4,711.4c-0.2-4.7-0.5-10.4-0.5-14.6h-0.2c-1.1,4-2.5,8.2-4.2,12.8l-6,16.4h-3.3l-5.5-16.1 c-1.6-4.8-3-9.1-3.9-13.1h-0.1c-0.1,4.2-0.3,9.9-0.6,14.9l-0.9,14.5h-4.2l2.4-33.7h5.5l5.8,16.3c1.4,4.2,2.6,7.9,3.4,11.4h0.2 c0.8-3.4,2-7.1,3.5-11.4l6-16.3h5.5l2.1,33.7h-4.2L328.4,711.4z"></path> <path class="st1" d="M344.5,692.5v33.7h-4.3v-33.7H344.5z"></path> <path class="st1" d="M352.1,726.2v-33.7h4.8l10.8,17.1c2.5,4,4.5,7.5,6.1,11l0.1,0c-0.4-4.5-0.5-8.6-0.5-13.9v-14.1h4.1v33.7H373 l-10.7-17.1c-2.4-3.8-4.6-7.6-6.3-11.3l-0.2,0c0.2,4.2,0.4,8.3,0.4,13.9v14.4H352.1z"></path> <path class="st1" d="M410.7,724.7c-2,0.7-5.8,1.8-10.4,1.8c-5.1,0-9.3-1.3-12.6-4.5c-2.9-2.8-4.7-7.3-4.7-12.6 c0-10,7-17.4,18.3-17.4c3.9,0,7,0.8,8.4,1.5l-1,3.5c-1.8-0.8-4-1.4-7.5-1.4c-8.2,0-13.6,5.1-13.6,13.6c0,8.5,5.2,13.6,13,13.6 c2.8,0,4.8-0.4,5.8-0.9V712h-6.9v-3.5h11.1V724.7z"></path> <path class="st1" d="M427.3,720.9c2,1.2,4.8,2.2,7.8,2.2c4.5,0,7.1-2.3,7.1-5.8c0-3.2-1.8-5-6.4-6.7c-5.5-2-8.9-4.8-8.9-9.6 c0-5.2,4.4-9.2,10.9-9.2c3.5,0,6,0.8,7.5,1.7l-1.2,3.5c-1.1-0.6-3.4-1.6-6.4-1.6c-4.6,0-6.4,2.8-6.4,5.1c0,3.2,2,4.7,6.7,6.5 c5.7,2.2,8.6,5,8.6,9.9c0,5.2-3.8,9.7-11.8,9.7c-3.2,0-6.8-1-8.6-2.2L427.3,720.9z"></path> <path class="st1" d="M481.4,709c0,11.6-7,17.8-15.7,17.8c-8.9,0-15.2-6.9-15.2-17.1c0-10.7,6.6-17.7,15.7-17.7 C475.4,692,481.4,699,481.4,709z M455.2,709.6c0,7.2,3.9,13.7,10.8,13.7c6.9,0,10.8-6.4,10.8-14c0-6.7-3.5-13.7-10.8-13.7 C458.8,695.5,455.2,702.2,455.2,709.6z"></path> <path class="st1" d="M515.8,709c0,11.6-7,17.8-15.7,17.8c-8.9,0-15.2-6.9-15.2-17.1c0-10.7,6.7-17.7,15.7-17.7 C509.9,692,515.8,699,515.8,709z M489.7,709.6c0,7.2,3.9,13.7,10.8,13.7c6.9,0,10.8-6.4,10.8-14c0-6.7-3.5-13.7-10.8-13.7 C493.3,695.5,489.7,702.2,489.7,709.6z"></path> <path class="st1" d="M521.5,726.2v-33.7h4.8l10.8,17.1c2.5,4,4.5,7.5,6,11l0.1,0c-0.4-4.5-0.5-8.6-0.5-13.9v-14.1h4.1v33.7h-4.4 l-10.7-17.1c-2.4-3.8-4.6-7.6-6.3-11.3l-0.1,0c0.2,4.2,0.3,8.3,0.3,13.9v14.4H521.5z"></path> <path class="st1" d="M553.4,723.7c0-1.8,1.2-3.1,3-3.1c1.8,0,3,1.3,3,3.1c0,1.8-1.1,3.1-3,3.1C554.6,726.8,553.4,725.4,553.4,723.7 z M554.6,716.5l-0.7-24h4.8l-0.7,24H554.6z"></path> </g> </svg> 