<?xml version="1.0" encoding="UTF-8"?> <!-- Generator: Adobe Illustrator 24.0.0, SVG Export Plug-In . SVG Version: 6.00 Build 0) --> <svg xmlns="http://www.w3.org/2000/svg" xmlns:xlink="http://www.w3.org/1999/xlink" version="1.1" id="Layer_1" x="0px" y="0px" viewBox="0 0 300 300" style="enable-background:new 0 0 300 300;" xml:space="preserve"> <style type="text/css"> .st0{fill:#0F4774;} </style> <g> <g> <path class="st0" d="M185,82.4c-16.8,0-32.6,4.1-46.6,11.4l-0.9,14.2c13.8-8.7,30-13.8,47.5-13.8c49.1,0,89,39.9,89,89 c0,49.1-39.9,89-89,89c-49.1,0-89-39.9-89-89c0-16,4.3-31,11.7-44l-13.8,0.9c-6.2,13.1-9.7,27.7-9.7,43.1 C84.2,238.8,129.4,284,185,284s100.8-45.2,100.8-100.8S240.6,82.4,185,82.4z"></path> </g> <g> <path class="st0" d="M185,236.6c29.4,0,53.4-23.9,53.4-53.4c0-29.4-23.9-53.4-53.4-53.4c-11.4,0-21.9,3.6-30.6,9.7l19.3,19.3 c3.4-1.6,7.3-2.5,11.3-2.5c14.9,0,26.9,12.1,26.9,26.9c0,14.9-12.1,26.9-26.9,26.9c-14.9,0-26.9-12.1-26.9-26.9c0-2,0.2-4,0.7-5.9 l-20.2-20.2c-4.4,7.7-6.9,16.7-6.9,26.2C131.7,212.6,155.6,236.6,185,236.6z"></path> </g> <g> <polygon class="st0" points="14.2,72.2 77.3,135.3 122.2,132.3 182.4,192.6 191.1,192.5 190.8,184.2 130.5,124 133.5,79.1 70.4,16 67.3,61.3 92.1,86 84.2,93.9 59.5,69.2 "></polygon> </g> </g> </svg> 