<?xml version="1.0" encoding="UTF-8"?> <!-- Generator: Adobe Illustrator 24.0.0, SVG Export Plug-In . SVG Version: 6.00 Build 0) --> <svg xmlns="http://www.w3.org/2000/svg" xmlns:xlink="http://www.w3.org/1999/xlink" version="1.1" id="Layer_1" x="0px" y="0px" viewBox="0 0 300 300" style="enable-background:new 0 0 300 300;" xml:space="preserve"> <style type="text/css"> .st0{fill:#0F4774;} </style> <g> <g> <path class="st0" d="M50.1,256.3c-1.5,0-2.8-0.3-4-0.7c-1.3-0.4-2.6,0.3-2.9,1.6l-0.5,1.8c1.4,0.8,3.9,1.5,6.4,1.6v3.6h3.7v-3.9 c4.4-0.8,6.7-3.6,6.7-7c0-3.4-1.8-5.5-6.3-7.1c-3.2-1.2-4.5-2-4.5-3.3c0-1.1,0.8-2.1,3.3-2.1c2.7,0,4.5,0.9,5.4,1.3l0.8-3 c0.2-0.8-0.2-1.6-1-1.8c-1.1-0.4-2.4-0.6-4.1-0.7v-3.3h-3.7v3.6c-4,0.8-6.4,3.4-6.4,6.7c0,3.7,2.8,5.6,6.8,6.9 c2.8,0.9,4,1.9,4,3.3C53.7,255.5,52.3,256.3,50.1,256.3z"></path> </g> <g> <path class="st0" d="M17.6,277h47.1c8.4,0,15.1-6.8,15.1-15.1V138.4H17.6V277z M51.1,230c10.4,0,18.9,8.5,18.9,18.9 c0,10.4-8.5,18.9-18.9,18.9c-10.4,0-18.9-8.5-18.9-18.9C32.3,238.5,40.7,230,51.1,230z"></path> </g> <g> <path class="st0" d="M264.5,191.6c0,0,19.1-2.9,17.9-21.4c-1-16.1-13-15.5-16-15.1c3-0.6,14.3-3.6,14.3-16.6 c-3.6-17.9-25.5-22-58.4-17.6c-6.1,0.8-11.2-4.7-9.8-10.8c2.5-10.5,4.6-21.9,5.4-32.4c0.1-0.6,0.3-1.1,0.3-1.7 c2.4-19.4-5.6-32.8-10-41.5c-4.5-8.7-22.5-11.5-22.5-11.5s-18.5,0.1-15.8,8.1c3.2,9.5,4,24.5,3.9,37.2c-3.2,13.6-4.2,29.2-9,39.3 c-12.7,29.6-75.8,35.7-75.8,35.7v124.4c52,1.2,29.5,8.8,91.8,9.4c61.8-5.2,94.1-12.7,93-35.2c-0.6-12.6-12.1-15-12.1-15 s16.2,4,17.9-14.4C281.2,193.9,264.5,191.6,264.5,191.6z"></path> </g> </g> </svg> 