<?xml version="1.0" encoding="UTF-8"?> <!-- Generator: Adobe Illustrator 24.0.0, SVG Export Plug-In . SVG Version: 6.00 Build 0) --> <svg xmlns="http://www.w3.org/2000/svg" xmlns:xlink="http://www.w3.org/1999/xlink" version="1.1" id="Layer_1" x="0px" y="0px" viewBox="0 0 300 300" style="enable-background:new 0 0 300 300;" xml:space="preserve"> <style type="text/css"> .st0{fill:#0F4774;} </style> <g> <g> <path class="st0" d="M150,289.5c15.4,0,29.6-9,40.9-24.2h-81.8C120.4,280.5,134.6,289.5,150,289.5z"></path> </g> <g> <rect x="94.6" y="215.4" class="st0" width="109.7" height="12.1"></rect> </g> <g> <path class="st0" d="M204.2,191.1c27.8-16.5,45.6-45.9,45.6-80.8c0-55-44.8-99.8-99.8-99.8c-55,0-99.8,44.8-99.8,99.8 c0,34.4,17.3,63.5,44.4,80.1v14.4h109.7V191.1z M63.8,110.3c0-47.5,38.7-86.2,86.2-86.2c47.5,0,86.2,38.7,86.2,86.2 c0,46.6-37.1,81.7-86.2,81.7C100.8,192,63.8,156.9,63.8,110.3z"></path> </g> <g> <path class="st0" d="M94.6,239.4c0,4.6,2.1,8.6,5.4,11.3c0.7,1.4,1.5,2.7,2.2,4.1h95.6c1.2-2.1,2.4-4.3,3.5-6.6 c1.8-2.4,2.9-5.4,2.9-8.7v-1.3H94.6V239.4z"></path> </g> <g> <g> <path class="st0" d="M150,70c9.1,0,16.5-7.4,16.5-16.5c0-9.1-7.4-16.5-16.5-16.5c-9.1,0-16.5,7.4-16.5,16.5 C133.5,62.6,140.9,70,150,70z"></path> </g> <g> <polygon class="st0" points="165.2,73 159.5,84.7 156.2,74.7 156.2,109.6 156.2,112.9 152.9,112.9 147.1,112.9 143.8,112.9 143.8,109.6 143.8,73 140.5,84.7 134.8,73 118.4,86.4 118.4,128.5 127.6,125.2 127.6,173 147.9,173 147.9,136.7 152.1,136.7 152.1,173 172.4,173 172.4,125.2 181.6,128.5 181.6,86.4 "></polygon> </g> <g> <path class="st0" d="M153.7,78.6c0-2-1.7-3.7-3.7-3.7c-2,0-3.7,1.7-3.7,3.7c0,1.5,1,2.9,2.3,3.4h2.8 C152.7,81.5,153.7,80.1,153.7,78.6z"></path> </g> <g> <g> <path class="st0" d="M119.4,134c0.7,1.9,2.9,2.9,4.8,2.1c1.9-0.7,2.9-2.9,2.1-4.8c-0.6-1.4-1.9-2.3-3.4-2.4l-2.6,1 C119.2,131,118.8,132.6,119.4,134z"></path> </g> <g> <path class="st0" d="M173.8,131.3c-0.8,1.9,0.1,4,2,4.8c1.9,0.8,4-0.1,4.8-2c0.6-1.4,0.2-3-0.9-4l-2.5-1 C175.7,129,174.3,129.9,173.8,131.3z"></path> </g> </g> <g> <rect x="147.1" y="85.3" class="st0" width="5.9" height="24.3"></rect> </g> </g> </g> </svg> 