<?xml version="1.0" encoding="UTF-8"?> <!-- Generator: Adobe Illustrator 24.0.0, SVG Export Plug-In . SVG Version: 6.00 Build 0) --> <svg xmlns="http://www.w3.org/2000/svg" xmlns:xlink="http://www.w3.org/1999/xlink" version="1.1" id="Layer_1" x="0px" y="0px" viewBox="0 0 300 300" style="enable-background:new 0 0 300 300;" xml:space="preserve"> <style type="text/css"> .st0{fill:#FFFFFF;} </style> <g> <g> <path class="st0" d="M161.8,202.9c-1.2-8.5-6.1-14.9-11.8-14.9c-5.8,0-10.6,6.4-11.8,14.9l11.8,15.7L161.8,202.9z"></path> </g> <g> <path class="st0" d="M267.7,275.5l-7.2-51.7c0-0.1,0-0.3-0.1-0.4c-7.6-31.8-60.1-41-71.6-42.7c-1.4-0.2-2.7,0.4-3.5,1.4 l-23.5,31.2L150,229l-11.8-15.7l-23.5-31.2c-0.8-1.1-2.2-1.6-3.5-1.4c-11.5,1.6-64,10.9-71.6,42.7c0,0.1-0.1,0.3-0.1,0.4 l-7.2,51.7c-0.3,2.2,1.4,4.3,3.7,4.3h83.2h61.5H264C266.2,279.7,268,277.7,267.7,275.5z"></path> </g> <g> <path class="st0" d="M150,20.3c-40.6,0-73.5,32.9-73.5,73.5s32.9,73.5,73.5,73.5c40.6,0,73.5-32.9,73.5-73.5S190.6,20.3,150,20.3z M156.6,138.9v15h-14.4v-14c-9.9-0.4-19.5-3.1-25.1-6.3l1.8-7.2c1.3-5,6.5-7.9,11.4-6.3c4.7,1.6,10.1,2.7,15.7,2.7 c8.4,0,14.2-3.2,14.2-9.1c0-5.6-4.7-9.1-15.6-12.8c-15.8-5.3-26.5-12.7-26.5-27c0-13,9.1-23.1,24.9-26.2v-14h14.4v13 c6.7,0.3,12,1.4,16.1,2.7c3,1,4.7,4.1,3.9,7.1l-3,11.6c-3.8-1.6-10.6-5-21.2-5c-9.6,0-12.7,4.1-12.7,8.3c0,4.9,5.2,8,17.7,12.7 c17.5,6.2,24.6,14.3,24.6,27.6C182.9,124.8,173.6,136,156.6,138.9z"></path> </g> </g> </svg> 