<?xml version="1.0" encoding="UTF-8"?> <!-- Generator: Adobe Illustrator 24.0.0, SVG Export Plug-In . SVG Version: 6.00 Build 0) --> <svg xmlns="http://www.w3.org/2000/svg" xmlns:xlink="http://www.w3.org/1999/xlink" version="1.1" id="Layer_1" x="0px" y="0px" viewBox="0 0 300 300" style="enable-background:new 0 0 300 300;" xml:space="preserve"> <style type="text/css"> .st0{fill:#0F4774;} </style> <g> <g> <path class="st0" d="M282.1,229.4l-5.7-41.2c0-0.1,0-0.2-0.1-0.3c-4.9-20.5-33.2-29.2-48.7-32.5c-1.5-0.3-2.7,1.3-1.9,2.6l6,10.4 c3.5,6.1-0.9,13.8-8,13.8h-17.3c0,0,0,0,0,0l-7.6,13.2c3.4,4.1,6,8.8,7.3,14.3c0.1,0.3,0.1,0.6,0.2,1l3.1,22.2h3.4h66.3 C281,232.7,282.3,231.1,282.1,229.4z"></path> </g> <g> <path class="st0" d="M142.2,170.5c0.5,0,0.9,0,1.4,0.1c1.2,0.2,2.7,0.4,4.3,0.7c0.2-1,0.5-2,1.1-2.9l6.3-11c0.8-1.5-0.4-3.3-2.1-3 c-4.2,0.8-10.4,2.1-17,4.2c-2,2.6-4.3,4.9-7,6.9l5.7,8.3C136.9,171.7,139.5,170.5,142.2,170.5z"></path> </g> <g> <path class="st0" d="M156.8,113.6v10.1c0,6.7-4.8,12.3-11.2,13.5l-1.2,3.2h6.7h12.2c1,0,1.9,0.5,2.4,1.2c0.9,1.1,1.8,2.2,2.7,3.1 l0,0c0,0,20.2,18.2,21.9,38.4c0,0.2,0,0.5,0.1,0.7c0-0.2,0-0.5,0.1-0.7c1.7-20.1,21.9-38.4,21.9-38.4l0,0c0.9-1,1.8-2,2.7-3.1 c0.6-0.8,1.5-1.2,2.4-1.2h12.2h12.1c3.6,0,5.3-4.6,2.4-6.9c-2.5-2-4.7-4.2-6.7-6.8c-3.3-4.4-5.7-9.7-7.5-16.2 c-0.8-2.9-1.5-6.1-2.1-9.5c0-0.5,0-1,0-1.5c0-8.7-1.3-16.9-3.7-24.2c-0.4-1.1-0.6-2.2-0.8-3.3c-0.9-4.5-3.1-8.6-6.1-11.8 c-0.8-0.8-1.5-1.6-2.2-2.5c-6.5-8.5-15-13.6-24.4-13.6c-0.1,0-0.3,0-0.4,0c-0.1,0-0.3,0-0.4,0c-9.1,0-17.5,4.9-23.9,13 c0,0-0.1,0.1-0.1,0.1c-5.1,3.9-8.7,9.7-9.7,16.4c-0.3,2.3-0.6,4.5-1.2,6.8c-1.5,6-2.3,12.5-2.3,19.2c0,0.5,0,1,0,1.5 c-0.1,0.9-0.3,1.7-0.5,2.6C155.1,106.1,156.8,109.7,156.8,113.6z"></path> </g> <g> <path class="st0" d="M107.6,199.1l4.1,5.5l4.1-5.5l3.6-4.7c-0.5-2.9-1.5-5.4-2.8-7.4c-2,0.9-4.2,1.4-6.5,1.4 c-2.3,0-4.5-0.5-6.5-1.4c-0.8,1.2-1.5,2.5-2,4.1L107.6,199.1z"></path> </g> <g> <path class="st0" d="M199.8,211.5c0-0.1,0-0.2-0.1-0.4c-6.1-25.3-47.9-32.7-57.1-34c-0.1,0-0.3,0-0.4,0c-0.9,0-1.8,0.4-2.4,1.2 l-18.7,24.8l-9.4,12.5l-9.4-12.5l-18.7-24.8c-0.6-0.8-1.5-1.2-2.4-1.2c-0.1,0-0.3,0-0.4,0c-9.1,1.3-51,8.7-57.1,34 c0,0.1,0,0.2-0.1,0.4l-5.7,41.2c-0.2,1.8,1.1,3.4,3,3.4h66.3h49h66.3c1.8,0,3.2-1.6,3-3.4L199.8,211.5z"></path> </g> <g> <path class="st0" d="M118.4,175c0-1.5-0.6-2.8-1.6-3.9c-2.2,0.5-4.5,0.7-6.9,0.7c-2.3,0-4.6-0.2-6.7-0.7c-1,1.1-1.5,2.4-1.5,3.9 c0,3.7,3.7,6.8,8.4,6.8C114.7,181.7,118.4,178.7,118.4,175z"></path> </g> <g> <path class="st0" d="M76.8,130.7c0.7,0,1.4-0.1,2-0.3l5.5,14.9l0.1,0c2.9,11.4,13.3,19.9,25.5,19.9c12.3,0,22.6-8.5,25.5-19.9 l5.5-14.9c0.7,0.2,1.4,0.4,2.1,0.4c3.9,0,7-3.2,7-7v-10.1c0-3.4-2.4-6.2-5.5-6.9V90.2c0-11.8-7.2-22-17.4-26.4 c-4.6-3.7-10.7-5.8-17.3-5.8c-6.6,0-12.6,2.1-17.3,5.8c-10.2,4.4-17.4,14.6-17.4,26.4v16.5c-3.2,0.7-5.5,3.5-5.5,6.9v10.1 C69.8,127.6,72.9,130.7,76.8,130.7z"></path> </g> </g> </svg> 