<?xml version="1.0" encoding="UTF-8"?> <!-- Generator: Adobe Illustrator 24.0.0, SVG Export Plug-In . SVG Version: 6.00 Build 0) --> <svg xmlns="http://www.w3.org/2000/svg" xmlns:xlink="http://www.w3.org/1999/xlink" version="1.1" id="Layer_1" x="0px" y="0px" viewBox="0 0 300 300" style="enable-background:new 0 0 300 300;" xml:space="preserve"> <style type="text/css"> .st0{fill:#FFFFFF;} </style> <g> <g> <g> <path class="st0" d="M186.9,69.3c0,0,30.5-22,54.1,14.3c13.1-3.9,12.9-3.9,12.9-3.9l-10.1,44.5L206.3,94l12-3.7l4-1.1 C222.3,89.2,214.4,68.2,186.9,69.3z"></path> </g> </g> <g> <g> <path class="st0" d="M191.1,237.1c0,0-6,37.2-48.4,28.1c-6.5,12.1-6.4,11.8-6.4,11.8l-24.3-38.6l47.9-5.2l-5.9,11.1l-2,3.6 C152,247.9,172.5,257.2,191.1,237.1z"></path> </g> </g> <g> <g> <path class="st0" d="M70.4,127.8c0,0-28.6-24.5,1.3-55.9c-6.9-11.8-6.8-11.6-6.8-11.6l45.6-0.6L90,103.2l-6.4-10.9l-2-3.6 C81.5,88.8,62.9,101.4,70.4,127.8z"></path> </g> </g> <g> <g> <g> <path class="st0" d="M151.6,49.7c6.6,0,12-5.4,12-12v-2.6c0-6.6-5.4-12-12-12c-6.6,0-12,5.4-12,12v2.6 C139.6,44.3,145,49.7,151.6,49.7z"></path> </g> </g> <g> <g> <path class="st0" d="M151.6,54.3c-1.5,0-2.8,1.3-2.8,2.8v8.6c0,1.5,1.3,2.8,2.8,2.8c1.5,0,2.8-1.3,2.8-2.8v-8.6 C154.4,55.6,153.1,54.3,151.6,54.3z"></path> </g> </g> <g> <path class="st0" d="M169.9,53.7h-5.3c-0.3,0-0.6,0.2-0.8,0.4l-4.8,7.9L152.4,74c-0.3,0.6-1.2,0.6-1.6,0l-6.6-11.9l-4.8-7.9 c-0.2-0.3-0.5-0.4-0.8-0.4h-5.3c-2.5,0-4.5,2-4.5,4.5v45.3c0,2.5,2,4.5,4.5,4.5c2.4,0,4.3-1.9,4.3-4.3V90.3 c0-0.5,0.4-0.9,0.9-0.9h0.6c0.5,0,0.9,0.4,0.9,0.9v66.2c0,0.5,0.4,0.9,0.9,0.9h9.5v-41.3h2.4v41.3h9.5c0.5,0,0.9-0.4,0.9-0.9 V90.3c0-0.5,0.4-0.9,0.9-0.9h0.6c0.5,0,0.9,0.4,0.9,0.9v14.1c0,2,1.6,3.6,3.6,3.6h0.7c2.5,0,4.5-2,4.5-4.5V58.2 C174.3,55.7,172.3,53.7,169.9,53.7z"></path> </g> </g> <g> <g> <g> <path class="st0" d="M58.5,163.8c6.6,0,12-5.4,12-12v-2.6c0-6.6-5.4-12-12-12c-6.6,0-12,5.4-12,12v2.6 C46.5,158.3,51.9,163.8,58.5,163.8z"></path> </g> </g> <g> <g> <path class="st0" d="M58.5,168.3c-1.5,0-2.8,1.3-2.8,2.8v8.6c0,1.5,1.3,2.8,2.8,2.8c1.5,0,2.8-1.3,2.8-2.8v-8.6 C61.3,169.6,60.1,168.3,58.5,168.3z"></path> </g> </g> <g> <path class="st0" d="M76.8,167.7h-5.3c-0.3,0-0.6,0.2-0.8,0.4l-4.8,7.9L59.3,188c-0.3,0.6-1.2,0.6-1.6,0l-6.6-11.9l-4.8-7.9 c-0.2-0.3-0.5-0.4-0.8-0.4h-5.3c-2.5,0-4.5,2-4.5,4.5v45.3c0,2.5,2,4.5,4.5,4.5c2.4,0,4.3-1.9,4.3-4.3v-13.4 c0-0.5,0.4-0.9,0.9-0.9h0.6c0.5,0,0.9,0.4,0.9,0.9v66.2c0,0.5,0.4,0.9,0.9,0.9h9.5v-41.3h2.4v41.3h9.5c0.5,0,0.9-0.4,0.9-0.9 v-66.2c0-0.5,0.4-0.9,0.9-0.9h0.6c0.5,0,0.9,0.4,0.9,0.9v14.1c0,2,1.6,3.6,3.6,3.6h0.7c2.5,0,4.5-2,4.5-4.5v-45.3 C81.2,169.8,79.2,167.7,76.8,167.7z"></path> </g> </g> <g> <g> <g> <path class="st0" d="M241.5,163.8c6.6,0,12-5.4,12-12v-2.6c0-6.6-5.4-12-12-12c-6.6,0-12,5.4-12,12v2.6 C229.4,158.3,234.9,163.8,241.5,163.8z"></path> </g> </g> <g> <g> <path class="st0" d="M241.5,168.3c-1.5,0-2.8,1.3-2.8,2.8v8.6c0,1.5,1.3,2.8,2.8,2.8c1.5,0,2.8-1.3,2.8-2.8v-8.6 C244.3,169.6,243,168.3,241.5,168.3z"></path> </g> </g> <g> <path class="st0" d="M259.7,167.7h-5.3c-0.3,0-0.6,0.2-0.8,0.4l-4.8,7.9l-6.6,11.9c-0.3,0.6-1.2,0.6-1.6,0l-6.6-11.9l-4.8-7.9 c-0.2-0.3-0.5-0.4-0.8-0.4h-5.3c-2.5,0-4.5,2-4.5,4.5v45.3c0,2.5,2,4.5,4.5,4.5c2.4,0,4.3-1.9,4.3-4.3v-13.4 c0-0.5,0.4-0.9,0.9-0.9h0.6c0.5,0,0.9,0.4,0.9,0.9v66.2c0,0.5,0.4,0.9,0.9,0.9h9.5v-41.3h2.4v41.3h9.5c0.5,0,0.9-0.4,0.9-0.9 v-66.2c0-0.5,0.4-0.9,0.9-0.9h0.6c0.5,0,0.9,0.4,0.9,0.9v14.1c0,2,1.6,3.6,3.6,3.6h0.7c2.5,0,4.5-2,4.5-4.5v-45.3 C264.2,169.8,262.2,167.7,259.7,167.7z"></path> </g> </g> </g> </svg> 