<?xml version="1.0" encoding="UTF-8"?> <!-- Generator: Adobe Illustrator 24.0.0, SVG Export Plug-In . SVG Version: 6.00 Build 0) --> <svg xmlns="http://www.w3.org/2000/svg" xmlns:xlink="http://www.w3.org/1999/xlink" version="1.1" id="Layer_1" x="0px" y="0px" viewBox="0 0 300 300" style="enable-background:new 0 0 300 300;" xml:space="preserve"> <style type="text/css"> .st0{fill:#0F4774;} </style> <g> <g> <path class="st0" d="M115.1,189.6c2,0.2,3.9,0.3,5.9,0.3l0.8,0c1.6,0,3.3-0.1,4.9-0.3H115.1z"></path> </g> <g> <path class="st0" d="M130.7,137.6c0-2.4-2.4-4.3-5.4-4.3c-3,0-5.4,1.9-5.4,4.3c0,2.4,2.4,4.3,5.4,4.3 C128.3,142,130.7,140,130.7,137.6z"></path> </g> <g> <path class="st0" d="M125.3,142.8c-2.9,0-5.4,3.2-6,7.6l6,8l6-8C130.7,146,128.3,142.8,125.3,142.8z"></path> </g> <g> <path class="st0" d="M168.6,169.9c4.3-4.3,8-9.1,10.9-14.2c-7.6-12.1-29.2-15.9-34.4-16.7c-0.7-0.1-1.4,0.2-1.8,0.7l-12,15.9l-6,8 l-6-8l-12-15.9c-0.4-0.6-1.1-0.8-1.8-0.7c-5.9,0.8-32.7,5.6-36.6,21.8c0,0.1,0,0.2,0,0.2l-0.2,1.4c2.2,3.2,4.7,6.3,7.5,9.1 c10.5,10.4,24.1,16.7,38.9,18.1h11.6C142.4,188.2,157.2,181.4,168.6,169.9z"></path> </g> <g> <path class="st0" d="M104,109.3c0.5,0,0.9-0.1,1.3-0.2l3.5,9.5l0,0c1.9,7.3,8.5,12.7,16.4,12.7c7.9,0,14.5-5.4,16.4-12.7l3.5-9.5 c0.4,0.1,0.9,0.2,1.4,0.2c2.5,0,4.5-2,4.5-4.5v-6.5c0-2.1-1.5-4-3.5-4.4V83.3c0-7.6-4.6-14.1-11.2-16.9c-3-2.3-6.8-3.7-11.1-3.7 c-4.2,0-8.1,1.4-11.1,3.7c-6.5,2.8-11.2,9.3-11.2,16.9v10.6c-2,0.4-3.5,2.3-3.5,4.4v6.5C99.5,107.3,101.5,109.3,104,109.3z"></path> </g> <g> <path class="st0" d="M199.1,176.5c0.4,0,0.7,0.1,1,0.1c-0.3-0.1-0.6-0.1-0.9-0.1C199.2,176.5,199.2,176.5,199.1,176.5z"></path> </g> <g> <path class="st0" d="M278.4,246.9l-65-59l-6.8-6.1c12.3-17.5,18.6-37.9,18.9-58.3c0.4-26.1-9.3-52.4-29.1-72.2 c-5-5-10.5-9.4-16.3-13.2c-16.5-10.7-35.5-16-54.5-16c-0.2,0-0.4,0-0.7,0l-0.7,0C98.1,22.6,71.8,32.9,51.7,53 c-20.1,20.1-30.4,46.4-30.8,72.5c-0.4,26.1,9.3,52.4,29.1,72.2c19.4,19.4,45.1,29.1,70.7,29.1c0.5,0,0.9,0,1.4,0 c21.6-0.3,43.2-7.4,61.4-21.1l6.1,6.8l58.3,64.9c2.6,2.4,14.4-6,20.8-12.2C275.4,259.1,281,249.4,278.4,246.9z M121.9,199 c-0.3,0-0.6,0-0.9,0c-18.8,0-37.2-7-51.2-21c-14.3-14.3-21.2-33-21-52.1c0.3-19.1,7.8-38.3,22.6-53.2 c14.9-14.9,34.1-22.4,53.2-22.6c0.3,0,0.6,0,0.9,0c18.8,0,37.2,7,51.2,21c14.3,14.3,21.2,33,21,52.1c-0.3,19.1-7.8,38.3-22.6,53.2 C160.2,191.2,141,198.7,121.9,199z M199.1,176.5c0,0,0.1,0,0.1,0c0.3,0,0.6,0.1,0.9,0.1C199.8,176.6,199.5,176.5,199.1,176.5z"></path> </g> </g> </svg> 