<?xml version="1.0" encoding="UTF-8"?> <!-- Generator: Adobe Illustrator 24.0.0, SVG Export Plug-In . SVG Version: 6.00 Build 0) --> <svg xmlns="http://www.w3.org/2000/svg" xmlns:xlink="http://www.w3.org/1999/xlink" version="1.1" id="Layer_1" x="0px" y="0px" viewBox="0 0 300 300" style="enable-background:new 0 0 300 300;" xml:space="preserve"> <style type="text/css"> .st0{fill-rule:evenodd;clip-rule:evenodd;fill:#FFFFFF;} .st1{fill:#FFFFFF;} </style> <g> <path class="st0" d="M78.2,79c-2.9,21.4-16.9,20.6-19.8,0.1v0v0v0l0,0v0v0v0l0-0.2v0v0v0v0l0-0.2v0l0,0c-9.3,0-22.1-1.4-30.6,0.2 c-5.1,0.9-9.1,5.4-9.1,10.8l0,0v74.5c0,6,5,10.9,11,10.9l0,0c5,0,9.2-3.3,10.6-7.8v80.9c0,7.7,6.3,14,14.1,14l0,0 c7.1,0,13.1-5.3,14-12.1c0.9,6.8,6.8,12.1,14,12.1l0,0c7.7,0,14.1-6.3,14.1-14V100.5h71c6.1,0,11-4.9,11-10.9l0,0 c0-6-5-10.9-11-10.9c-29.7,0-59.4,0-89.1,0L78.2,79z"></path> <path class="st0" d="M68.7,74.8c10.2,0,18.6-8.3,18.6-18.4S79,37.9,68.7,37.9c-10.2,0-18.6,8.3-18.6,18.5S58.5,74.8,68.7,74.8 L68.7,74.8z"></path> <path class="st1" d="M129.9,175.3c0,0.1,0,0.2,0,0.3v25.1c0,2.9-2.4,5.4-5.4,5.4l0,0c-3,0-5.4-2.4-5.4-5.4v-25.1c0-0.1,0-0.2,0-0.3 h-2.1v-12h149.3c0.8,0,1.5-0.3,2-0.8c0.5-0.5,0.8-1.2,0.8-2V59.9c0-0.8-0.3-1.5-0.8-2c-0.5-0.5-1.2-0.8-2-0.8H117.1V45h70.7 c-0.1-0.4-0.2-0.8-0.2-1.3l0,0c0-2.9,2.4-5.4,5.4-5.4h12.4c3,0,5.4,2.4,5.4,5.4l0,0c0,0.4-0.1,0.9-0.2,1.3h55.7 c4.1,0,7.9,1.7,10.6,4.4c2.7,2.7,4.4,6.4,4.4,10.5v100.6c0,4.1-1.7,7.8-4.4,10.5c-2.7,2.7-6.5,4.4-10.6,4.4h-8c0,0.1,0,0.2,0,0.3 v25.1c0,2.9-2.4,5.4-5.4,5.4l0,0c-3,0-5.4-2.4-5.4-5.4v-25.1c0-0.1,0-0.2,0-0.3H129.9z"></path> </g> </svg> 