<?xml version="1.0" encoding="UTF-8"?> <!-- Generator: Adobe Illustrator 24.0.0, SVG Export Plug-In . SVG Version: 6.00 Build 0) --> <svg xmlns="http://www.w3.org/2000/svg" xmlns:xlink="http://www.w3.org/1999/xlink" version="1.1" id="Layer_1" x="0px" y="0px" viewBox="0 0 300 300" style="enable-background:new 0 0 300 300;" xml:space="preserve"> <style type="text/css"> .st0{fill:#FFFFFF;} </style> <g> <g> <g> <path class="st0" d="M155.7,99.3c0,2.5-2.5,4.6-5.7,4.6c-3.1,0-5.7-2.1-5.7-4.6c0-2.5,2.5-4.6,5.7-4.6 C153.1,94.7,155.7,96.8,155.7,99.3z"></path> </g> <g> <path class="st0" d="M156.4,112.8c-0.7-4.6-3.3-8.1-6.4-8.1c-3.1,0-5.7,3.4-6.4,8.1l6.4,8.5L156.4,112.8z"></path> </g> <g> <path class="st0" d="M213.7,152.1l-3.9-28c0-0.1,0-0.2,0-0.2c-4.1-17.2-32.5-22.2-38.7-23.1c-0.7-0.1-1.5,0.2-1.9,0.8l-12.7,16.9 l-6.4,8.5l-6.4-8.5l-12.7-16.9c-0.4-0.6-1.2-0.9-1.9-0.8c-6.2,0.9-34.6,5.9-38.7,23.1c0,0.1,0,0.2,0,0.2l-3.9,28 c-0.2,1.2,0.8,2.3,2,2.3h45h33.3h45C212.9,154.4,213.8,153.3,213.7,152.1z"></path> </g> <g> <path class="st0" d="M173.5,53V41.8c0-8-4.9-14.9-11.8-17.9c-3.1-2.5-7.2-3.9-11.7-3.9c-4.5,0-8.6,1.4-11.7,3.9 c-6.9,3-11.8,9.9-11.8,17.9V53c-2.1,0.5-3.8,2.4-3.8,4.7v6.8c0,2.6,2.2,4.8,4.8,4.8c0.5,0,0.9-0.1,1.4-0.2l3.7,10.1l0,0 c2,7.7,9,13.5,17.3,13.5c8.3,0,15.3-5.8,17.3-13.5l3.7-10.1c0.5,0.1,0.9,0.2,1.4,0.2c2.6,0,4.8-2.2,4.8-4.8v-6.8 C177.2,55.4,175.6,53.5,173.5,53z"></path> </g> </g> <g> <g> <g> <path class="st0" d="M57.6,261.6c-0.1,0.1-0.2,0.2-0.3,0.3c-2.8,2.2-6.2,3.4-9.8,3.4c-3.6,0-7-1.2-9.8-3.4 c-0.1-0.1-0.2-0.2-0.3-0.3c-7,3.5-11.9,10.3-12.7,18.4h45.6C69.6,271.9,64.6,265,57.6,261.6z"></path> </g> <g> <path class="st0" d="M39,258.2c2.4,2,5.4,3,8.5,3c3.1,0,6.1-1,8.5-3c3.3-2.6,5.2-6.5,5.2-10.7c0-7.5-6.1-13.7-13.7-13.7 c-7.5,0-13.7,6.1-13.7,13.7C33.8,251.7,35.7,255.6,39,258.2z"></path> </g> </g> <g> <g> <path class="st0" d="M160.1,261.6c-0.1,0.1-0.2,0.2-0.3,0.3c-2.8,2.2-6.2,3.4-9.8,3.4c-3.6,0-7-1.2-9.8-3.4 c-0.1-0.1-0.2-0.2-0.3-0.3c-7,3.5-11.9,10.3-12.7,18.4h45.6C172.1,271.9,167.1,265,160.1,261.6z"></path> </g> <g> <path class="st0" d="M141.5,258.2c2.4,2,5.4,3,8.5,3c3.1,0,6.1-1,8.5-3c3.3-2.6,5.2-6.5,5.2-10.7c0-7.5-6.1-13.7-13.7-13.7 s-13.7,6.1-13.7,13.7C136.3,251.7,138.2,255.6,141.5,258.2z"></path> </g> </g> <g> <g> <path class="st0" d="M262.6,261.6c-0.1,0.1-0.2,0.2-0.3,0.3c-2.8,2.2-6.2,3.4-9.8,3.4c-3.6,0-7-1.2-9.8-3.4 c-0.1-0.1-0.2-0.2-0.3-0.3c-7,3.5-11.9,10.3-12.7,18.4h45.6C274.6,271.9,269.6,265,262.6,261.6z"></path> </g> <g> <path class="st0" d="M244,258.2c2.4,2,5.4,3,8.5,3c3.1,0,6.1-1,8.5-3c3.3-2.6,5.2-6.5,5.2-10.7c0-7.5-6.1-13.7-13.7-13.7 c-7.5,0-13.7,6.1-13.7,13.7C238.8,251.7,240.7,255.6,244,258.2z"></path> </g> </g> </g> <g> <path class="st0" d="M250.8,182h-96.7v-13.8c0-2.3-1.8-4.1-4.1-4.1c-2.3,0-4.1,1.8-4.1,4.1V182H49.2c-2.3,0-4.1,1.8-4.1,4.1v34.3 c0,2.3,1.8,4.1,4.1,4.1c2.3,0,4.1-1.8,4.1-4.1v-30.2h92.6v30.2c0,2.3,1.8,4.1,4.1,4.1c2.3,0,4.1-1.8,4.1-4.1v-30.2h92.6v30.2 c0,2.3,1.8,4.1,4.1,4.1c2.3,0,4.1-1.8,4.1-4.1v-34.3C254.9,183.8,253,182,250.8,182z"></path> </g> </g> </svg> 