<?xml version="1.0" encoding="UTF-8"?> <!-- Generator: Adobe Illustrator 24.0.0, SVG Export Plug-In . SVG Version: 6.00 Build 0) --> <svg xmlns="http://www.w3.org/2000/svg" xmlns:xlink="http://www.w3.org/1999/xlink" version="1.1" id="Layer_1" x="0px" y="0px" viewBox="0 0 300 300" style="enable-background:new 0 0 300 300;" xml:space="preserve"> <style type="text/css"> .st0{fill:#FFFFFF;} </style> <g> <g> <rect x="180.4" y="212.4" class="st0" width="21.8" height="6.4"></rect> </g> <g> <path class="st0" d="M137.2,82.6c17.6,0,31.8-14.3,31.8-31.8c0-17.6-14.3-31.8-31.8-31.8c-17.6,0-31.8,14.3-31.8,31.8 C105.4,68.4,119.7,82.6,137.2,82.6z"></path> </g> <g> <path class="st0" d="M150.9,263.5v-36.5c0-4.5,3.7-8.2,8.2-8.2h4.9v-7c0-5.9,4.8-10.8,10.8-10.8h5.6v-12.1l17.6,6.3v-81 l-31.6-25.8l-10.9,22.6l-6.4-19.4v67.3v6.3h-6.3h-11.3h-6.3v-6.3V88.5l-6.4,22.5L108,88.4l-31.6,25.8v81l17.6-6.3V281h39.1v-70 h8.1v70h39.1v-9.3h-21.3C154.6,271.8,150.9,268.1,150.9,263.5z"></path> </g> <g> <rect x="175.4" y="212.4" class="st0" width="5" height="6.4"></rect> </g> <g> <path class="st0" d="M137.2,92.1c-3.9,0-7.1,3.2-7.1,7.1c0,3,1.9,5.5,4.5,6.6h5.3c2.6-1.1,4.5-3.6,4.5-6.6 C144.3,95.3,141.1,92.1,137.2,92.1z"></path> </g> <g> <path class="st0" d="M85,196.3l-4.9,1.9c-2.1,1.9-2.9,5-1.8,7.7c1.4,3.7,5.5,5.5,9.2,4.1c3.7-1.4,5.5-5.5,4.1-9.2 C90.5,198.1,87.9,196.4,85,196.3z"></path> </g> <g> <path class="st0" d="M194.5,198.3l-4.9-2c-2.8,0-5.5,1.7-6.6,4.4c0,0.1,0,0.2-0.1,0.3h13.2C195.8,200,195.3,199.1,194.5,198.3z"></path> </g> <g> <rect x="131.6" y="112.1" class="st0" width="11.3" height="46.8"></rect> </g> <g> <path class="st0" d="M218.4,222h-8.1v-10.2c0-4.2-3.4-7.6-7.6-7.6h-28c-4.2,0-7.6,3.4-7.6,7.6V222h-8.1c-2.8,0-5.1,2.3-5.1,5.1 v36.5c0,2.8,2.3,5.1,5.1,5.1h59.3c2.8,0,5.1-2.3,5.1-5.1v-36.5C223.5,224.3,221.2,222,218.4,222z M205.3,222h-33.1v-10.2 c0-1.4,1.1-2.5,2.5-2.5h28c1.4,0,2.5,1.1,2.5,2.5V222z"></path> </g> </g> </svg> 