<?xml version="1.0" encoding="UTF-8"?> <!-- Generator: Adobe Illustrator 24.0.0, SVG Export Plug-In . SVG Version: 6.00 Build 0) --> <svg xmlns="http://www.w3.org/2000/svg" xmlns:xlink="http://www.w3.org/1999/xlink" version="1.1" id="Layer_1" x="0px" y="0px" viewBox="0 0 300 300" style="enable-background:new 0 0 300 300;" xml:space="preserve"> <style type="text/css"> .st0{fill:#104776;} </style> <g> <g> <path class="st0" d="M174.4,229.3c0,2.3-1.9,4.2-4.2,4.2h-40.3c-2.3,0-4.2-1.9-4.2-4.2v-15.2H16.2v39.4c0,11.1,9.1,20.2,20.2,20.2 H81h20.2h97.5h20.2h44.7c11.1,0,20.2-9.1,20.2-20.2v-39.4H174.4V229.3z"></path> </g> <g> <path class="st0" d="M125.6,197.9c0-2.3,1.9-4.2,4.2-4.2h40.3c2.3,0,4.2,1.9,4.2,4.2v7.4h109.4v-96.5c0-11.1-9.1-20.2-20.2-20.2 H36.4c-11.1,0-20.2,9.1-20.2,20.2v96.5h109.4V197.9z"></path> </g> <g> <path class="st0" d="M101.3,56.6c0-5.6,4.5-10.1,10.1-10.1h77.3c5.6,0,10.1,4.5,10.1,10.1v25.7H219V56.6 c0-16.7-13.6-30.3-30.3-30.3h-77.3c-16.7,0-30.3,13.6-30.3,30.3v25.7h20.2V56.6z"></path> </g> <g> <rect x="129.8" y="197.9" class="st0" width="40.3" height="31.4"></rect> </g> </g> </svg> 