<?xml version="1.0" encoding="UTF-8"?> <!-- Generator: Adobe Illustrator 24.0.0, SVG Export Plug-In . SVG Version: 6.00 Build 0) --> <svg xmlns="http://www.w3.org/2000/svg" xmlns:xlink="http://www.w3.org/1999/xlink" version="1.1" id="Layer_1" x="0px" y="0px" viewBox="0 0 500 500" style="enable-background:new 0 0 500 500;" xml:space="preserve"> <style type="text/css"> .st0{fill:#4D6381;} </style> <g> <path class="st0" d="M242.6,426.9c0,0.3,0,0.5,0,0.8C242.6,427.7,242.6,427.4,242.6,426.9z"></path> <path class="st0" d="M36.1,142.6c1.2,0.7,1.8,2.3,1.8,2.3l1.3-1.5c0,0,0,0,0.1,1.1c0.1,1.1,1.5,1.8,3.3,3.1 c1.7,1.2,3.5,3.3,3.5,3.3l1,2.4l-2.3-1.7c0,0,0.4,1.9,1.3,2.4c0.9,0.5,1.5,2.4,1.5,2.4s1.1-0.6,2.5,0.6s2.1,2.9,2.1,2.9l-1.2-1 c0,0,0,0,0.4,1.1c0.4,1.1,3,2.8,3,2.8l0.2-1.7c0,0,1.2,1,2.6,2.3s5.4,2.6,5.4,2.6c-1.1-4-5.4-6.2-7.4-7.1c-2-0.9-6.4-4.2-6.4-4.2 s2,0.7,5.1,1.8c3.1,1.1,8.7,6.8,8.7,6.8l-1.4-3.7l4.4,4.1c0,0,1.7,3.7,4.8,5.7c3.2,2,11.9,4.9,11.9,4.9s-2.7,0.2-6.1-0.6 c-3.4-0.8-9-2.6-9-2.6s1,2.9,3.3,3.6s6.1,3.9,6.1,3.9s0,0-2.5-0.9c-2.5-0.9-5.3-1.3-5.3-1.3s4.6,2.4,7.8,4.6 c3.2,2.2,7.2,4.1,9.4,4.2c2.2,0.1,6.8,2.5,6.8,2.5s0,0-1.7-1.2s-3.7-4.9-3.7-4.9s0.9,0.8,2.9,2c2,1.2,4.9,3.5,4.9,3.5 s0.1,1.9,1.6,2.6c1.4,0.7,3.4,1.4,3.4,1.4s-3.1,10.1-5.2,14.7c-2.1,4.6-3.6,7.1-3,7.4c0.6,0.2,22.1,12.9,27.6,16.3 c5.5,3.4,13.2,8.1,13.2,8.1l-2.8-4.5c0,0,10.6,5.8,14.6,8.5c4,2.7,7.4,6.6,7.4,6.6c-0.9-1.3-3.6-8-3.6-8s5.6,5.1,6.8,6.9 c1.2,1.8,5.3,4.3,5.3,4.3c-0.7-1.6-1.7-4.3-1.7-4.3s5.1,5.1,7.7,7.4c2.6,2.3,4.3,3,4.3,3c-1.2-0.7-3.2-6.1-3.2-6.1 c2.1,2.6,6.5,5.8,6.5,5.8s7.3-1.1,11.3-3.3c4-2.2,11.4-8.8,11.4-8.8l-2.9,5.4c0,0,0,0,4.3-1.4c4.3-1.4,21.2-13.9,29.8-19.8 c8.6-5.9,17.5-16.4,17.5-16.4s4.2-5.8,8.3-6.9c4-1.1,5.3-2.9,5.3-2.9c-0.3,6.3-0.1,13.5-0.1,13.5c-2-0.4-10.6-2.8-10.6-2.8l-2,3.2 c0,0,4.5,1.9,7.9,3c3.4,1.1,5.4,2.3,7.9,6.3c2.5,3.9,3.5,10.4,3.5,10.4c-2.7,0.5-6.8,1.1-6.8,1.1c4.1,3.8,15.6,14.5,15.6,14.5 c-4.6-3-14.1-8.8-14.1-8.8s4.1,7.7,8.4,12.8c4.2,5.2,10.1,10.2,10.1,10.2c-3.7-1.9-11.4-6-11.4-6c-2.2,3.2-5.9,9.8-5.9,9.8 s-7.2-11.5-10.2-15.2c-3-3.6-8.2-9.8-8.2-9.8c0.4,5.2,2.8,8.6,4.2,12.3c1.4,3.7,3.1,8.3,3.1,8.3s-1-2.4-2.9-5.8 c-1.9-3.4-4.9-6.8-4.9-6.8s1.7,12.2,5.4,20.7c3.7,8.5,8.8,11.7,10.4,17.6c1.5,5.9,2.8,19,2.8,19s-4.7-12-8.3-19.4 c-3.6-7.4-8.5-14.7-8.5-14.7c0,6.9-1,19.3-1,19.3l3.5,2.2l-3,0.2l-1.2,2.6l3.2-1.6c0,0-1.7,3.4-1.4,7c0.3,3.6-1.3,7.8-1.4,10.5 c-0.1,2.8-1.2,2.8-1.2,2.8s0.9,1,2,0.4c1.1-0.6,1.4-3.1,1.4-3.1s2.2,7.3,4.6,20.8c2.4,13.6,4.3,35.7,4.3,35.7s-2.7-6.1-4.5-15.6 c-1.8-9.5-5.9-23.2-5.9-23.2s-0.3,7.4-1.7,18c-1.4,10.5-4.9,29.5-3.8,29.4c1.1-0.1,4.2,0.8,4.2,0.8s-1.4,14.1-0.9,25.1 c0.5,9.1,0.8,17,0.9,19.5c-0.1-5.7,2.5-13.4,2.5-13.4s-4.4,54-1.4,71.3c1.1,6.7,1.7,12.1,2,16.3h142.8c1.5-12.7,3.7-33.1,3.4-37.1 c-0.4-6,2.8-28.5,0.8-44c-2-15.5-5.4-24.9-5.4-24.9l-3.2,1.1l-4.3-5.5c0,0,5.3,0.7,5.7-0.4c0.5-1.1,0-3.8,0-3.8s1.4-0.1,1.8-1.5 c0.4-1.4,0.3-3.6,0.6-14.3c0.3-10.7-1.8-42.4-2.4-50.1c-0.6-7.6-2.9-16.5-2.9-20.9c-0.1-4.4-1.4-14.5-2-16.1 c-0.7-1.6-0.3-4.1,0.3-6.6c0.6-2.5,0.1-6.1,0.2-8.3c0.1-2.2,2.5-10.4,5.5-18.5c3-8.2,5.4-23.5,6.5-26.3c1.2-2.8,2.1-5.1,2.1-5.1 s1,1.9,1.5,5.1c0.5,3.3,3.1,8,3.1,8s0.9,0.5,2,0.9c1.1,0.5,1.8,1.5,2.7,3.1c0.9,1.6,3.8,2.5,3.8,2.5l0.6-3.6c0,0,2.1,10.3,6.8,14.3 c4.7,4,10.3,9.7,10.3,9.7l-6-3.4c0,0,1.8,2.6,3.3,3.3c1.4,0.7,3.4,1.9,6.3,3.1c2.8,1.2,8.9,1,8.9,1s0,0-1.2-1.6 c-1.2-1.6-4.2-7.9-4.2-7.9c1.4,0.7,4.5,1.3,4.5,1.3c1.1,4,5.2,10.6,5.2,10.6l-1.8,1.2c0,0,5.8,0.1,10-1.6c4.3-1.7,5.9-5.7,5.9-5.7 l-4.1,3.3c0,0,2.3-1.8,4-8.8c1.7-7,0.7-15.7,0.7-15.7c2.5,7.8,1.7,15.5,1.7,15.5s0,0,0.9-2c0.9-2,3.8-11,3.8-15.1 c0-4.1-2-8.9-2-8.9l-1,4.7c0.2-7.7-5-15.3-5-15.3s0,0,1.7,0.4c1.7,0.4,3.7,1.9,3.7,1.9l0.9-2.3c0,0,1.3,2.4,1.7,4.8 c0.5,2.4,1.4,7.6,1.4,7.6s0.6-7.2,0.3-11.3c-0.3-4.1-2.9-9.7-2.9-9.7s0,0,1.2,1.3s2.3,4.8,2.3,4.8c0.3-2.8,0.5-8.6,0-10.4 c-0.4-1.9-0.3-4.6-1.3-6.5c-1-1.9-1.8-6.2-1.8-6.2c0.4-2.2,3.2-9,5.3-13.6c2.1-4.6,2.1-5.1,2.7-8.2c0.6-3.1,2.3-5.7,3-7.9 c0.7-2.2,0.9-6.4,0.9-6.4l-1.1-4l0.9,1.3c0,0-0.1-5.2-0.5-6.3s-0.7-1.9-0.7-1.9s-1.1-0.5-1.2-1c0-0.5-0.9-1.3-0.9-1.3 s-0.6-0.8-1.5-2.4c-0.9-1.6-2-1.2-2-1.2s-0.3,0.3-0.4,1.7c-0.2,1.4,0.8,3.2,0.9,4.3c0.1,1.1-0.3,3.9-1.5,5.6s-0.8,3.9-0.8,3.9 s-2.5,3.2-4.8,6.1c-2.3,2.9-4.2,2.5-4.2,2.5l0.5-0.6c0,0,0,0-1.4-0.4c-1.4-0.4-1.5-1.8-1.5-1.8l-0.2,1.7c0,0-0.3-0.8-0.5-2.4 c-0.1-1.6,0.5-4.4,0.9-6.9c0.4-2.5-0.1-4.4,0.1-6.3c0.1-1.9,0.1-6.6,0.1-6.6l-0.8,0.3c0,0-0.7-1.6-2.1-1.8 c-1.4-0.2-2.4,1.6-2.4,1.6l-0.3,3.9l-1-2.4c0,0-0.5,1.1-0.6,3.1c-0.1,1.9-0.1,5.5-0.1,5.5l1.2-1.7c0,0-0.6,3.1-0.4,5.5 c0.2,2.5-1.8,9.2-1.8,9.2l1.6-1.2c0,0,0.3,0-0.3,3c-0.6,3.1-1.6,3.7-2.6,5.7c-0.9,2-0.1,6.3,0.6,8.5c0.7,2.1-0.1,5.5-0.1,5.5 c1.3-0.9,4-1.1,4-1.1c-3.2,1.9-4.8,5-4.8,5l2.6-1.3c0,0-2.5,3.5-2.4,4.6c0.1,1.1-0.4,2-1.6,4.8c-1.2,2.8-3.1,6.5-3.1,6.5l4.4-4.2 c0,0-1.4,3.1-3.4,5.7s-3.9,6.1-3.9,6.1s8.1-5,8-3.6c-0.2,1.4-2.3,2.9-3.5,4.4c-1.3,1.5-2.8,3.5-2.8,3.5s-0.8-0.2-2.7-2.5 c-1.8-2.3-2.8-5-5.9-12.2c-3-7.2-7.9-10.7-8.1-12.9c-0.2-2.2-0.9-4.3-0.9-4.3s-1.1-0.5-2.3-1.2c-1.2-0.7-4-2.7-4-2.7 s1.1-0.6,2.1-0.7c1.1-0.1,2.8,0.6,2.8,0.6c-0.4-1.6-1.4-3.7-1.4-3.7s-2.8-1.2-3.7-2.2c-0.9-1-1.5-5.7-1.5-5.7l1.3,2.1l2.8,0.9 c0,0-1.9-2.9-2.7-6.4c-0.8-3.5,0-6.9-0.6-11.2c-0.6-4.4-1.8-9.2-1.8-9.2l-0.7,1.7l-1.5-5.4c0,0-4.8-2.4-6.5-2.5 c-1.7-0.2-16.6-5.3-22.4-6.3c-5.8-0.9-13.3-1.2-13.3-1.2l5.4-1c0,0-3.2-2.5-6-3.7c-2.8-1.2-6.8-2.5-8.8-3.2s-4.8-1.3-4.8-1.3 s-2.1-2-3.6-3.6c-1.5-1.5-5-4-6.5-6.7c-1.6-2.6-4.3-6-4.3-6s0,0,1.1,0.2c1.1,0.2,2.1,1.8,2.1,1.8c1.5-13.6,2.6-20.5,3.1-21.1 c0.5-0.6,1.8-1.8,2.2-3.2c0.4-1.4,0.9-2.5,0.9-2.5l0.7,2.4c0,0,0.2-1.4,0.9-2.8c0.7-1.4,1.6-4.5,2.5-6.5c0.9-2,2.8-6.3,3.3-7.9 c0.4-1.7,0-3.6-1.1-3.8c-1.1-0.2-3.2,0.8-3.2,0.8s0.7-2,1.1-3.4c0.4-1.4,1.2-6.4,1.1-10.8c-0.1-4.4-0.9-11.5-1.6-14.2 c-0.8-2.7-1.7-4-1.7-4l0.8-0.1c0,0-1.9-2.9-1.7-4c0.2-1.1-1.5-2.4-1.5-2.4l1.4,0.4c0,0-3.6-4.7-5.7-6.4c-2.1-1.8-7.1-3.6-10.2-4.7 c-3.1-1.1-9.2-1.8-9.2-1.8l1.1-0.6c0,0-4.5-1.3-8.1-1.3c-3.6,0-11.4,2.5-13.9,4.6c-2.6,2.1-5.2,4.5-5.2,4.5l0.9-2 c0,0-2.9,1.6-7.6,8s-7.2,17.6-8.3,20.7c-1.1,3.1-1.3,8.9-1.3,8.9l1.2,1.8l0.1,1.9c0,0,1.4,0.4,1.5,1.5c0.1,1.1-0.1,2.8-0.1,2.8 s-0.6-0.2-1.5-1.3c-0.9-1-2-0.9-2-0.4c0,0.5,1.4,7,2.4,10.3c1.1,3.2,0.8,7.6,1.5,8.7s2.4,3.1,2.4,3.1l-1.7-0.4c0,0,1.5,2.4,2.1,2.3 c0.5,0,1.6-0.4,1.6-0.4s0,0-0.2,1.7c-0.2,1.7,1,6.2,1,6.2s0.7-2,0.6-3.6c-0.1-1.6,0.5-4.4,0.6-6.1c0.2-1.7-0.9-4.1-0.9-5.1 c-0.1-1.1,0.6-3.6,0.6-3.6c0.4,1.9,3.5,5.8,3.5,5.8l-0.1-4.4c0,0,6.2,5.6,7.2,8c1,2.4,3.8,6.3,3.8,6.3L302,84 c0.6,3.8,1.3,13.4,1.3,13.4s0,0-1.4-3.5c-1.4-3.5-5.1-9-5.1-9c1,9.3,0.6,22.2,0.6,22.2l4.1-0.3c0,0-2.4,1.5-4.7,3.1 c-2.4,1.5-3.9,2.5-3.9,2.5l4.2,0.5c0,0,0,0-4.3,0.9c-4.3,0.9-6.7,2.2-6.7,2.2l3.3,0.3l-8.1,1.4c0,0-11.5,1.1-18.7,3.6 c-7.2,2.5-22.2,4.4-22.2,4.4s-1.4-0.4-3.6-0.6c-2.2-0.1-6,4.3-6,4.3s4-1.1,7.3,1.9c3.3,3.1,5.2,10.9,5.2,10.9s-2.1-2.3-3.6-3.9 c-1.5-1.5-4-2.2-4-2.2l2.4-0.7c0,0-4.7-3.5-6.7-2c-2.1,1.5-3.7,5-3.7,5s2.7-0.5,4.7,1c2,1.5,5.9,5.1,5.9,5.1s-6.9-4.2-9-2.9 c-2.1,1.3-4.9,4.2-4.9,4.2s1.9-1,1.9,0.1c0.1,1.1-1.1,3.7-4.4,7.7c-3.3,4.1-8.8,14.7-8.8,14.7s0,0,1.7,0.7c1.7,0.7,4.5,5.7,4.5,5.7 l-5.1-2.4c0,0-4.4,3.4-5.7,5.1s-3.8,3.9-3.8,3.9s0,0,0.9,1.6c0.9,1.6,3,6.6,3,6.6s-4.4-3.8-6.3-2.8c-1.9,1-3.7,1.7-3.7,1.7 s-2.8,2.4-4.3,4.4c-1.5,2-2.5,3.8-4.3,5c-1.8,1.2-3.2,4.6-3.2,4.6l0.8-3.4c0,0,0,0-2.1,1.5c-2.1,1.5-3.8,4.1-4.3,5.5 c-0.4,1.4-2.9,1.3-2.9,1.3s-1.4-0.4-3.3-0.3c-1.9,0.1-2.3,2.9-2.3,2.9c-0.6-0.8-1-2.7-1-2.7c-1.4,0.1-1.5,1.8-2.9,1.6 c-1.4-0.2-2.6-1.5-2.6-1.5s0,0-1.4,0.1c-1.4,0.1-3.8,1.1-3.8,1.1c0.5-1.1,2.2-3.5,2.2-3.5s-2.4,0.7-3.8,0.3c-1.4-0.4-4-2.4-4-2.4 l2.7-0.2c-1.7-0.4-4.8-1.3-5.9-1.8c-1.1-0.5-2.5-0.9-2.5-0.9c1-0.9,3.6-0.3,3.6-0.3s0,0-0.9-1.3c-0.9-1.3-6.6-4.2-9.5-5.3 c-2.8-1.2-5.9-2.3-5.9-2.3s-3.3-0.6-5.6-1.8c-2.3-1.2-5.2-2.9-5.2-2.9l3.9,0.3l5.2,2.9c0,0-3.8-3.6-6.4-5c-2.6-1.5-11-6.9-11.9-8.2 c-0.9-1.3-2.9-2.3-2.9-2.3s0,0-0.9-0.8c-0.9-0.8-5-4-5-4l1.9,2.9c0,0-2.6-2-4.7-3.5c-2-1.5-3.4-1.9-3.4-1.9 c1.3-1.5,1.9-3.4,1.9-3.4s0.4,1.9,1,2.7c0.6,0.8,1.5,1.5,1.5,1.5s-1.3-2.6-1.4-4.6c-0.1-1.9-1.2-4.6-1.2-4.6l-0.9,3.1 c0,0-0.2-2.2-1.1-4c-1-1.9-2-5.3-2-5.3l1.8,1.8c0,0-3.8-7.1-5.7-9.5c-1.8-2.3-4.7-4-6.6-6.9c-1.9-2.9-3.5-5.8-4.9-7.3 c-1.5-1.5-2.1-2.9-2.1-2.9l-0.4,2.2c-0.4-2.2-2.6-5.3-2.6-5.3l0.1,1.4c0,0,0-0.3-1.4,0.1c-1.3,0.4-1,2.3-0.9,2.5l-0.5-2.4 c-0.9,2.5-0.1,5.8,1.5,9c1.6,3.2,5.8,8.1,7.3,9.9c1.5,1.8,2.6,5.6,2.6,5.6l-1.8-1.5c0,0-1.6,0.7-5.2,0.7c-3.6,0-5.9-1.2-8.4-1.6 c-2.5-0.4-6.2-1.7-6.2-1.7s-2.3-0.9-4.3-2.4c-2-1.5-4.9-2.7-4.9-2.7s-2.3-1.2-4.9-2.7c-2.6-1.5-4.9-3.2-7.8-4.6 c-2.9-1.4-5-0.5-4.9,0.4c0.1,0.8,3,2.8,3,2.8s0.2,2.5,1,2.7c0.8,0.2,7.3,5.5,8.2,6.5c0.9,1,2.6,1.7,4.6,2.7c2,0.9,5,3.7,5,3.7 s-3.1-0.9-5.7-2.6c-2.6-1.7-5.5-3.7-5.5-3.7s-6.1-4.2-9.5-5.9c-3.4-1.7-5-1.3-6.1-0.4C33.8,140.9,35,141.9,36.1,142.6z"></path> </g> </svg> 