<?xml version="1.0" encoding="UTF-8"?> <!-- Generator: Adobe Illustrator 24.0.0, SVG Export Plug-In . SVG Version: 6.00 Build 0) --> <svg xmlns="http://www.w3.org/2000/svg" xmlns:xlink="http://www.w3.org/1999/xlink" version="1.1" id="Layer_1" x="0px" y="0px" viewBox="0 0 300 300" style="enable-background:new 0 0 300 300;" xml:space="preserve"> <style type="text/css"> .st0{fill:#0F4774;} </style> <g> <g> <path class="st0" d="M269.1,69.7h-99.9v18h99.9c1,0,1.8,0.8,1.8,1.8v90v11.8v12v28.2c0,1-0.8,1.8-1.8,1.8h-30.8h-11.8H215H30.9 c-1,0-1.8-0.8-1.8-1.8V89.5c0-1,0.8-1.8,1.8-1.8H119v-18H30.9C19.9,69.7,11,78.6,11,89.5v142.1c0,10.9,8.9,19.9,19.9,19.9h192.6 h16.1h29.5c10.9,0,19.9-8.9,19.9-19.9v-25.3V189V89.5C289,78.6,280.1,69.7,269.1,69.7z"></path> </g> <g> <path class="st0" d="M132.9,100.2h23.4c4,0,7.2-3.7,7.2-8.3v-1.7V76.3V56.9c0-4.6-3.2-8.3-7.2-8.3h-23.4c-4,0-7.2,3.7-7.2,8.3 v19.4v13.9v1.7C125.7,96.5,128.9,100.2,132.9,100.2z"></path> </g> <g> <rect x="49.8" y="136.4" class="st0" width="85.3" height="12.1"></rect> </g> <g> <rect x="49.8" y="175.2" class="st0" width="85.3" height="12.1"></rect> </g> <g> <path class="st0" d="M152.9,198.2h57.5c3.8-8.8,10.4-16.2,18.6-21.1c-4-5.4-9.2-9.9-15.3-12.9c-0.2,0.2-0.4,0.4-0.6,0.5 c-5.2,4.1-11.4,6.3-18.1,6.3c-6.6,0-12.9-2.2-18.1-6.3c-0.2-0.2-0.4-0.4-0.6-0.5C163.4,170.6,154.3,183.3,152.9,198.2z"></path> </g> <g> <path class="st0" d="M179.3,158.1c4.5,3.6,10,5.5,15.7,5.5c5.8,0,11.2-1.9,15.7-5.5c6-4.8,9.5-12,9.5-19.7 c0-13.9-11.3-25.2-25.2-25.2c-13.9,0-25.2,11.3-25.2,25.2C169.8,146,173.2,153.2,179.3,158.1z"></path> </g> <g> <path class="st0" d="M267.3,175.9c-3.7-1-7.5-1.5-11.5-1.5c-8.5,0-16.4,2.4-23.2,6.4c-8.2,4.9-14.8,12.2-18.6,21.1 c-2.4,5.5-3.7,11.6-3.7,18c0,3.4,0.4,6.7,1.1,9.9H223c-0.9-3.1-1.5-6.4-1.5-9.9c0-6.6,1.9-12.8,5.2-18c2.8-4.6,6.7-8.4,11.3-11.2 c5.2-3.1,11.2-5,17.7-5c4.1,0,7.9,0.7,11.5,2V175.9z"></path> </g> <g> <path class="st0" d="M232.5,219.9c0,3.5,0.8,6.9,2.2,9.9h30.8c1,0,1.8-0.8,1.8-1.8v-28.2c-3.4-1.9-7.3-3.1-11.5-3.1 C242.9,196.7,232.5,207.1,232.5,219.9z"></path> </g> </g> </svg> 