<?xml version="1.0" encoding="UTF-8"?> <svg xmlns="http://www.w3.org/2000/svg" xmlns:xlink="http://www.w3.org/1999/xlink" version="1.1" id="Layer_1" x="0px" y="0px" viewBox="0 0 1419.9 353.8" style="enable-background:new 0 0 1419.9 353.8;" xml:space="preserve"> <style type="text/css"> .st0{fill:#606060;} .st1{fill:#FFFFFF;} .st2{fill:#0A6EB0;} .st3{fill:url(#SVGID_1_);} .st4{fill:url(#SVGID_00000088100638546455980230000003991447730230365117_);} .st5{fill:url(#SVGID_00000010312892644647722330000012060512820938961043_);} .st6{fill:url(#SVGID_00000083059095871646791190000004867294101464757417_);} .st7{fill:url(#SVGID_00000020392779192559449560000001371695370162478504_);} .st8{fill:url(#SVGID_00000176020638441073514600000016735264162640529536_);} .st9{fill:url(#SVGID_00000132076843042002987700000012265786299264147378_);} .st10{fill:url(#SVGID_00000015322880213350420450000014299399663384830095_);} .st11{fill:url(#SVGID_00000081617976058048740380000002483881161419624339_);} .st12{fill:url(#SVGID_00000050664490839201718310000017664040061191153827_);} .st13{fill:url(#SVGID_00000009573613264151643680000007324599326936756149_);} .st14{fill:url(#SVGID_00000160151612521940139120000013358108533097167537_);} .st15{fill:url(#SVGID_00000119110959055563480310000009641163447304828600_);} .st16{fill:url(#SVGID_00000179626274777436373540000010761938422633426567_);} .st17{fill:url(#SVGID_00000085948838511437485430000007279692744706183059_);} .st18{fill:url(#SVGID_00000070841021810574961270000009953501006544705452_);} .st19{fill:url(#SVGID_00000087373211542030650890000009825950615739047614_);} .st20{fill:url(#SVGID_00000089532391515012978280000002147124025192582043_);} .st21{fill:url(#SVGID_00000111898339574562221630000006541865781726399385_);} .st22{fill:url(#SVGID_00000104703175387759857730000000805601696668124812_);} .st23{fill:url(#SVGID_00000175294107886331033830000010051198181744525482_);} .st24{fill:url(#SVGID_00000050627646859653847510000014320325046324560026_);} .st25{fill:url(#SVGID_00000024689264872415418180000016354270855924706478_);} .st26{fill:url(#SVGID_00000182488203233569096930000010153602144088106123_);} .st27{fill:url(#SVGID_00000029752071201054666060000015083448156289652612_);} .st28{fill:url(#SVGID_00000121261114182145111660000005550046326094234538_);} </style> <g id="Automation"> </g> <g id="Practice"> </g> <g> <g> <path class="st0" d="M608.4,278.5h-5.3v-9.1h26.6c10.9,0,18.5,7.6,18.5,18.9s-7.6,19.1-18.5,19.1h-10.5v20h-10.7L608.4,278.5 L608.4,278.5z M627.7,298.3c6,0,9.5-3.9,9.5-10c0-6-3.4-9.8-9.3-9.8h-8.7v19.8H627.7z"></path> <path class="st0" d="M656,296.4c0-1.2-0.7-1.8-1.8-1.8h-3.3v-8.8h9.5c3.7,0,5.6,1.6,5.6,5.1v2.5c0,1.6-0.2,2.6-0.2,2.6h0.2 c1.9-6,6.9-10.7,13.2-10.7c0.9,0,1.9,0.2,1.9,0.2v10.2c0,0-1.1-0.2-2.5-0.2c-4.4,0-9.5,2.5-11.4,8.7c-0.6,2-0.9,4.3-0.9,6.8v16.5 H656V296.4z"></path> <path class="st0" d="M707.3,301.3h1.3V301c0-6-2.4-8.2-7.7-8.2c-1.9,0-5.6,0.5-5.6,2.8v2.2h-9.6v-4.4c0-7.8,11-8.6,15.3-8.6 c13.9,0,18,7.3,18,16.6v15.5c0,1.1,0.7,1.8,1.8,1.8h3.3v8.7h-9.3c-3.8,0-5.3-2.1-5.3-4.6c0-1.1,0.1-1.8,0.1-1.8h-0.2 c0,0-3.2,7.4-12.6,7.4c-7.4,0-14.2-4.7-14.2-13C682.5,302.3,700.5,301.3,707.3,301.3z M699.3,320.3c5.6,0,9.5-5.9,9.5-11v-1H707 c-5.4,0-14,0.7-14,6.5C693,317.7,695.1,320.3,699.3,320.3z"></path> <path class="st0" d="M750.5,284.8c5.4,0,15.1,2.2,15.1,9.4v4.9h-9.2v-2.3c0-2.3-3.4-3.3-6-3.3c-7.2,0-12.3,5.5-12.3,13 c0,8.5,6.3,12.8,13,12.8c7.1,0,12.3-5.6,12.3-5.6l4.3,7.2c0,0-6.2,7.5-17.6,7.5c-13.7,0-22.6-9.7-22.6-21.8 C727.7,294.8,736.2,284.8,750.5,284.8z"></path> <path class="st0" d="M775.4,294H770v-8.3h5.6v-11.4h10.1v11.4h9.5v8.3h-9.5v16.8c0,6.9,5.4,7.8,8.3,7.8c1.1,0,1.9-0.2,1.9-0.2v9.1 c0,0-1.3,0.2-3.2,0.2c-5.8,0-17.3-1.7-17.3-15.7L775.4,294L775.4,294z"></path> <path class="st0" d="M805.2,296.4c0-1.2-0.7-1.8-1.8-1.8h-3.3v-8.8h9.9c3.8,0,5.5,1.7,5.5,5.6V317c0,1.1,0.7,1.8,1.8,1.8h3.3v8.7 h-9.9c-3.8,0-5.5-1.6-5.5-5.6V296.4z M805.7,269.4h9v9.6h-9V269.4z"></path> <path class="st0" d="M847.4,284.8c5.4,0,15.1,2.2,15.1,9.4v4.9h-9.2v-2.3c0-2.3-3.4-3.3-6-3.3c-7.2,0-12.3,5.5-12.3,13 c0,8.5,6.3,12.8,13,12.8c7.1,0,12.3-5.6,12.3-5.6l4.3,7.2c0,0-6.2,7.5-17.6,7.5c-13.7,0-22.6-9.7-22.6-21.8 C824.6,294.8,833.1,284.8,847.4,284.8z"></path> <path class="st0" d="M889.2,284.8c11.9,0,18.5,8.7,18.5,19.8c0,1.2-0.2,3.8-0.2,3.8h-28.8c0.8,7.4,6.2,11.2,12.5,11.2 c6.7,0,11.7-4.7,11.7-4.7l4.3,7.2c0,0-6.4,6.3-16.8,6.3c-13.8,0-22.4-10-22.4-21.8C868,293.8,876.7,284.8,889.2,284.8z M897,301.2 c-0.2-5-3.6-8.4-7.8-8.4c-5.3,0-9.1,3.2-10.2,8.4H897z"></path> <path class="st0" d="M932.3,318.4h1.3c1.4,0,2-0.3,2.5-1.8l17.2-47.2h11.2l17.2,47.2c0.5,1.5,1.1,1.8,2.5,1.8h1.3v9.1h-6.4 c-4.1,0-5.6-1.1-6.9-4.7l-3.6-10.1H949l-3.6,10.1c-1.3,3.7-2.7,4.7-6.8,4.7h-6.5v-9.1H932.3z M966.3,303.7l-5-14.5 c-1.1-3.2-2.3-8.7-2.3-8.7h-0.2c0,0-1.2,5.5-2.3,8.7l-5,14.5H966.3z"></path> <path class="st0" d="M992.6,296.4c0-1.2-0.7-1.8-1.8-1.8h-3.3v-8.8h9.9c3.8,0,5.5,1.7,5.5,5.5v19.2c0,5.1,1.3,8.5,6.5,8.5 c7.5,0,11.7-6.6,11.7-14.1v-19.1h10.4v31.1c0,1.1,0.7,1.8,1.8,1.8h3.3v8.7h-9.6c-3.6,0-5.5-1.7-5.5-4.7v-1.1c0-1,0.1-1.9,0.1-1.9 h-0.2c-2,4.3-7.2,8.7-14.4,8.7c-8.9,0-14.4-4.5-14.4-15.9L992.6,296.4L992.6,296.4z"></path> <path class="st0" d="M1044.5,294h-5.4v-8.3h5.6v-11.4h10.1v11.4h9.5v8.3h-9.5v16.8c0,6.9,5.4,7.8,8.3,7.8c1.1,0,1.9-0.2,1.9-0.2 v9.1c0,0-1.3,0.2-3.2,0.2c-5.8,0-17.3-1.7-17.3-15.7V294z"></path> <path class="st0" d="M1092,284.8c12.8,0,22.9,9.1,22.9,21.8c0,12.8-10.1,21.8-22.9,21.8c-12.7,0-22.8-9-22.8-21.8 S1079.3,284.8,1092,284.8z M1092,319.6c6.8,0,12.4-5.2,12.4-13c0-7.7-5.6-13-12.4-13c-6.7,0-12.3,5.3-12.3,13 C1079.6,314.4,1085.3,319.6,1092,319.6z"></path> <path class="st0" d="M1123.7,296.4c0-1.2-0.7-1.8-1.8-1.8h-3.3v-8.8h9.6c3.7,0,5.5,1.7,5.5,4.7v1.2c0,0.9-0.1,1.8-0.1,1.8h0.2 c2-4.1,6.9-8.7,13.5-8.7c6.3,0,10.4,2.9,12.2,8.6h0.2c2.2-4.5,7.6-8.6,14.2-8.6c8.7,0,13.6,4.9,13.6,15.9V317 c0,1.1,0.7,1.8,1.8,1.8h3.2v8.7h-9.8c-3.9,0-5.6-1.6-5.6-5.6v-19.3c0-4.7-0.9-8.3-5.7-8.3c-5.1,0-8.8,4.3-10,9.6 c-0.5,1.6-0.7,3.4-0.7,5.3v18.3h-10.4v-24.8c0-4.5-0.7-8.3-5.6-8.3c-5.2,0-8.7,4.3-10.1,9.6c-0.4,1.6-0.7,3.4-0.7,5.2v18.3h-10.3 v-31.1L1123.7,296.4L1123.7,296.4z"></path> <path class="st0" d="M1220.9,301.3h1.3V301c0-6-2.4-8.2-7.7-8.2c-1.9,0-5.6,0.5-5.6,2.8v2.2h-9.6v-4.4c0-7.8,11-8.6,15.3-8.6 c13.9,0,18,7.3,18,16.6v15.5c0,1.1,0.7,1.8,1.8,1.8h3.3v8.7h-9.3c-3.8,0-5.3-2.1-5.3-4.6c0-1.1,0.1-1.8,0.1-1.8h-0.2 c0,0-3.2,7.4-12.6,7.4c-7.4,0-14.2-4.7-14.2-13C1196.1,302.3,1214.1,301.3,1220.9,301.3z M1212.9,320.3c5.6,0,9.5-5.9,9.5-11v-1 h-1.8c-5.4,0-14,0.7-14,6.5C1206.6,317.7,1208.6,320.3,1212.9,320.3z"></path> <path class="st0" d="M1245.6,294h-5.4v-8.3h5.6v-11.4h10.1v11.4h9.5v8.3h-9.5v16.8c0,6.9,5.4,7.8,8.3,7.8c1.1,0,1.9-0.2,1.9-0.2 v9.1c0,0-1.3,0.2-3.2,0.2c-5.8,0-17.3-1.7-17.3-15.7V294z"></path> <path class="st0" d="M1275.4,296.4c0-1.2-0.7-1.8-1.8-1.8h-3.3v-8.8h9.9c3.8,0,5.5,1.7,5.5,5.6V317c0,1.1,0.7,1.8,1.8,1.8h3.3v8.7 h-9.9c-3.8,0-5.5-1.6-5.5-5.6V296.4z M1275.9,269.4h9v9.6h-9V269.4z"></path> <path class="st0" d="M1317.6,284.8c12.8,0,22.9,9.1,22.9,21.8c0,12.8-10.1,21.8-22.9,21.8c-12.7,0-22.8-9-22.8-21.8 C1294.8,293.8,1304.9,284.8,1317.6,284.8z M1317.6,319.6c6.8,0,12.4-5.2,12.4-13c0-7.7-5.6-13-12.4-13c-6.7,0-12.3,5.3-12.3,13 C1305.2,314.4,1310.9,319.6,1317.6,319.6z"></path> <path class="st0" d="M1349.3,296.4c0-1.2-0.7-1.8-1.8-1.8h-3.3v-8.8h9.6c3.7,0,5.5,1.7,5.5,4.7v1.2c0,0.9-0.2,1.8-0.2,1.8h0.2 c1.8-3.5,6.3-8.7,14.7-8.7c9.2,0,14.5,4.8,14.5,15.9V317c0,1.1,0.7,1.8,1.8,1.8h3.3v8.7h-9.9c-3.9,0-5.6-1.6-5.6-5.6v-19.1 c0-5.1-1.3-8.5-6.5-8.5c-5.6,0-9.7,3.5-11.2,8.5c-0.6,1.7-0.8,3.6-0.8,5.6v19.1h-10.3L1349.3,296.4L1349.3,296.4z"></path> </g> </g> <g> <g> <path class="st0" d="M514,289.3h-5.3v-4.6h5.4v-11.3h5.4v11.3h10.2v4.6h-10.2V310c0,9.6,6.1,10.8,9.2,10.8c1.1,0,1.9-0.2,1.9-0.2 v4.9c0,0-1,0.2-2.3,0.2c-4.7,0-14.2-1.5-14.2-15.1v-21.3H514z"></path> <path class="st0" d="M556.9,283.7c11.9,0,21.5,9.1,21.5,21.1c0,12.3-9.6,21.5-21.5,21.5s-21.5-9.2-21.5-21.5 C535.4,292.8,545.1,283.7,556.9,283.7z M557,321.5c8.7,0,15.8-7.1,15.8-16.6c0-9.2-7.1-16.1-15.8-16.1s-15.9,6.9-15.9,16.1 C541.1,314.3,548.2,321.5,557,321.5z"></path> </g> </g> <g id="sign"> <path class="st1" d="M223.3,196.9c1.1-2.9,0.4-5.7,0.3-8.5c-0.2-6.3-0.6-12.5-0.8-18.8c-0.1-3.7,0-7.4-0.1-11c0-1.2-0.3-2.5-0.6-4 c-5.4-0.8-10.6-0.5-15.8-0.8c-5-0.3-9.9-1.1-14.9-1c-5.1,0.1-10.2-1.7-16-0.3c-1,6.4-1.6,12.9-1.7,19.3c-0.1,4.5,0.4,9.1,0.8,13.6 c0.4,3.9,1,7.7,1.7,11.6c0.3,1.6,0.8,3.4,2.9,4.5c4.6-0.5,9.6-1,14.5-1.5c5-0.5,9.9-0.8,14.9-1.4 C213.4,197.8,218.5,198.6,223.3,196.9z M235.3,258.7c-0.4-6.2-2.9-11.6-4-17.3c-1.1-5.5-2.1-11-3.3-16.5 c-1.2-5.6-1.1-11.6-3.4-16.9c-29.8,2.3-39.9,3.4-43.1,4.9c-0.1,0.4-0.2,0.9-0.2,1.3c0.1,0.9,0.3,1.7,0.6,2.5 c3.4,10.1,7.8,19.8,13.4,28.8c3.1,4.9,6.7,9.5,10.1,14.3c2.2,3.2,5.1,4.3,9,3.4c4.8-1.1,9.8-1.9,14.6-2.9 C231,259.9,233,259.3,235.3,258.7z M195,98c-8.1,13.5-13.8,27.1-16.3,42.4c7.6,0.5,14.6,1.9,21.7,1.7c7.3-0.2,14.5,2.3,21.7,0.8 c2.4-7,1.6-14,2.5-20.9c0.9-7,2.4-13.9,2.7-21.3C216.3,99.7,205.9,98,195,98z M268,108.7c-8.5-1.9-16.5-3.7-24.5-5.5 c-1.4-0.3-2.9,0-4.2,0c-2.1,6.9-4.6,24.5-4.9,33.7c-0.1,2.3-0.6,4.7,0.4,6.8c0.6,0.4,1,0.7,1.4,0.8c8.6,0.6,17.2,1.1,25.8,1.6 c0.6,0,1.1-0.5,1.9-0.8C265.2,133.3,266.6,121.3,268,108.7z M264.4,192.7c-0.1-10.8-0.3-21.6-0.5-32.3c-0.1-2.6-1-3.5-3.6-3.7 c-7.6-0.5-15.1-0.9-22.7-1.3c-1.2-0.1-2.5,0.2-4.1,0.3c-1.2,11.6-0.1,22.7,0.7,33.9c0.1,1.9-0.2,3.9,1.2,5.6 C241.1,195.9,259.3,194.4,264.4,192.7z M309.4,231.8c-1-4.9-2-10-3.1-15c-1.2-5.2-1.2-10.7-3.1-15.6c-5.5-0.7-20.7,0.6-25.3,2.1 c-0.9,5.3-0.9,5.7,2.5,22.3c1.1,5.2,1.3,10.7,4.3,15.3C290.2,240.1,305.1,234.6,309.4,231.8z M279.4,111.2 c-2.9,10.4-3.2,20.8-4.5,31.1c-0.2,1.4,0.2,2.9,0.4,4.2c7.8,1.9,20.6,2.7,26.3,1.5c0.6-5,1.4-10.1,1.7-15.2 c0.2-5.3,2.4-10.5,1.2-16.4C296,114.7,287.9,112.6,279.4,111.2z M274.2,158.3c-0.1,2.1-0.4,3.8-0.4,5.4c0.4,8.6,0.9,17.3,1.4,25.9 c0,0.6,0.5,1.2,0.8,1.7c6.6,1,20.3-0.2,26-2.3c-0.2-4.7,0.2-9.7-0.6-14.6c-0.8-4.8,0.5-9.9-1.1-14.5 C294.1,158.6,280.5,157.7,274.2,158.3z M334,162.2c-5.5-1.8-15-2.4-21.6-1.3c-1.7,5.7-1.2,19.8,1,27.4c2.5,1.3,5-0.2,7.5-0.2 c2.4,0,4.8-0.1,7.1-0.4c2.5-0.3,5.2,0.5,7.3-1.7c-0.3-7.6-0.5-15.2-0.8-22.7C334.5,162.9,334.2,162.6,334,162.2z M320.3,228.4 c3.3-0.3,6.7-1.7,10.1-3c3.5-1.4,7.6-1.6,10.4-4.4c-1.3-7.1-2.4-13.9-3.7-20.7c-0.2-1-0.9-1.8-1.4-2.9c-7.2,1.3-14.5,0.1-21.5,2.8 c0.4,7.8,1.9,15.2,3.5,22.6C318.1,224.6,318.3,226.6,320.3,228.4z M361.7,153.2c0.5-0.7,1-1.1,1-1.4c0.7-6.2,1.4-12.4,2-18.6 c0.1-1-0.1-2.1-0.2-3.4c-5.2-1.8-10.3-3.1-15.7-3.2c-1.5,2.3-1.9,4.7-2.2,7c-0.5,4.1-0.9,8.1-1.3,12.2c-0.1,1.1-0.2,2.2-0.2,3.2 c0,1.8,0.9,3,2.6,3.1C352.6,152.6,357.3,152.9,361.7,153.2z M345.4,162.3c-0.6,0.8-0.8,1-0.8,1.2c-1.2,6.9,0.7,13.7,1,20.6 c0.1,1.5,1.6,1.9,3,1.8c3.4-0.2,6.9-0.5,10.3-0.8c1.2-0.1,2.4-0.6,3.5-0.9c0.8-4.6,0.1-16.9-1.2-21c-4.1-0.4-8.3-0.8-12.6-1.2 C347.5,161.9,346.4,162.2,345.4,162.3z M347.3,196.6c-0.1,1.1-0.5,1.9-0.3,2.7c0.9,5.3,1.9,10.6,3,15.9c0.4,2,1.6,2.9,3.1,2.5 c4.7-1.3,9.6-2.4,14.2-5c-1.2-6-2-11.9-3.8-17.9C358,195.3,352.6,195.2,347.3,196.6z M375.9,132c-0.5,1.1-1,2.1-1.2,3.1 c-0.7,4.7-1.4,9.4-2,14.1c-0.1,0.8-0.2,1.8,0.1,2.5c0.4,0.9,1.3,2,2.1,2.1c3.6,0.6,7.3,1,10.9,1.1c2.5,0.1,3.4-0.9,3.7-3.5 c0.5-4.1,1-8.1,1.4-12.2c0.1-1.2-0.1-2.5-0.2-3.9C385.9,133.4,381,132.7,375.9,132z M387.8,164.6c-4.3-0.4-8.1-0.7-12-1 c-3-0.2-4.3,0.7-4.1,3.5c0.3,5.2,1,10.3,1.5,15.4c0,0.2,0.3,0.3,0.9,1c4-0.4,8.5-0.7,12.9-1.4c1.4-0.2,2.2-1.5,2.2-2.9 C389.4,174.6,389.6,169.8,387.8,164.6z M374.2,194.8c1.2,5.2,0.7,10.3,3.6,15.2c4.8-1.6,9.6-2.4,14.1-4.9 c-0.2-4.5-0.5-8.7-2.7-12.9c-4.4,0.5-8.7,0.9-13,1.4C375.7,193.6,375.2,194.2,374.2,194.8z M412.8,140c-2.3-0.6-3.9-1.2-5.6-1.6 c-1.9-0.4-3.7-0.7-5.6-1c-0.5,0.9-1.1,1.4-1.2,1.9c-0.6,3.9-1.2,7.7-1.7,11.6c-0.1,0.6-0.1,1.3,0,2c0.1,1.7,1.1,3.1,2.7,3.2 c3.2,0.3,6.4,0.9,9.7-0.3C412.8,150.7,413.5,145.7,412.8,140z M440,155.9c0.1-2.2,0.2-4.1,0.2-6c0-2.2-1.3-3.6-3.4-4.2 c-3.6-1-7.1-2-10.7-2.8c-2.2-0.5-3.4,0.2-3.8,2.4c-0.5,3-0.9,6-1.2,9c-0.2,1.9,1.2,3.3,3.2,3.2c4.3-0.2,8.6-0.5,13-0.7 C437.9,156.6,438.5,156.3,440,155.9z M398.3,165.7c-1.1,5.1,0.1,9.5,0.7,13.9c0.1,0.6,1.6,1.4,2.5,1.5c3.2,0.2,6.3-0.6,9.6-1.4 c1.2-3.7,0.7-7.4,0.4-11c-0.1-1.7-1.3-2.8-3-2.9C405.3,165.6,402.1,165.7,398.3,165.7z M421.2,178.1c4,0.3,13.6-0.9,16.4-2 c0.2-0.1,0.4-0.1,0.6-0.3c2-1.2,2.1-3.1,2-5.1c-0.1-1.6-1-2.5-3-2.8c-3.4-0.5-6.8-0.9-10.2-1.1c-1.8-0.1-3.9-0.7-5.9,1.1 C420.3,171,420.5,174.3,421.2,178.1z M413.6,198.5c0.1-3-0.4-5.4-1.6-7.9c-4-0.4-7.8-0.5-11.2,1.4c0,5.8,0.1,6.4,2.7,9.9 C406.8,201.6,410,200.4,413.6,198.5z M424,195.9c4.8-1.4,8.9-2.7,12.8-4.3c1.7-0.7,1.9-1.6,0.8-4.6c-4.7,1.5-10,0-15,2.9 C423,191.7,423.4,193.3,424,195.9z"></path> <path class="st2" d="M306.9,31.9c36.5,0,70.9,14.5,96.8,40.8c26,26.4,40.3,61.5,40.3,98.8s-14.3,72.4-40.3,98.8 c-25.9,26.3-60.2,40.8-96.8,40.8s-70.9-14.5-96.8-40.8c-26-26.4-40.3-61.5-40.3-98.8s14.3-72.4,40.3-98.8 C236,46.4,270.4,31.9,306.9,31.9 M306.9,11.6c-86.9,0-157.4,71.6-157.4,159.9S220,331.4,306.9,331.4s157.4-71.6,157.4-159.9 S393.9,11.6,306.9,11.6L306.9,11.6z"></path> <linearGradient id="SVGID_1_" gradientUnits="userSpaceOnUse" x1="149.5512" y1="40.3816" x2="463.5233" y2="40.3816" gradientTransform="matrix(1 0 0 -1 0 212)"> <stop offset="0" style="stop-color:#004C96"></stop> <stop offset="1" style="stop-color:#0B6FB3"></stop> </linearGradient> <path class="st3" d="M149.7,172.8c-0.4-22.9,3.8-43.4,11.9-63.1c7.2-17.7,17.5-33.3,30.4-47.4c10.1-11,21.3-20.4,34-28 c12.9-7.7,26.5-14,41.3-17.3c4.2-0.9,8.4-2.2,12.7-3c12.9-2.3,25.9-3,38.9-1.8c22.1,1.9,43,8.1,62.5,18.8 c10.7,5.9,20.5,12.9,29.5,21.2c10.7,9.9,20.2,20.9,28,33.3c13.3,21.4,21.2,44.6,23.7,69.6c0.3,2.6,0.6,5.2,0.7,7.8 c0.1,2.2,0.5,4.4-0.1,6.5c-1,3.9-0.8,7.8-0.7,11.7c0.3,11.2-1.6,22.1-4.6,32.8c-1.9,6.9-4.3,13.7-7,20.3 c-5.5,14-13.4,26.7-22.9,38.5c-16.8,20.9-37.2,36.9-62.1,47c-19.7,8-40.2,12.2-61.6,11.9c-16-0.2-31.6-2.8-46.7-7.7 c-11.6-3.8-22.5-9-32.9-15.5c-9.6-6-18.5-13-26.7-20.7c-6.5-6.1-12.1-13.1-17.4-20.2c-15.4-20.6-24.7-43.7-29.1-68.9 C150,189.5,149.2,180.4,149.7,172.8z M423.1,74.2c-1-1.9-1.4-3-2.1-3.7c-5.6-5.7-10.9-11.8-17.1-17c-15.3-12.8-32.5-22.3-51.6-28.3 c-12.7-3.9-25.7-6.1-39-6.8c-12.2-0.6-24.3,0.9-36.2,3c-16.8,3-32.7,8.8-47.3,17.6c-5.9,3.6-11.7,7.6-16.9,12.1 c-10.5,9.1-20.1,19.2-27.1,31.4c-0.4,0.7-1.1,1.4-1.5,2.1c-3.9,7.3-7.7,14.6-11.6,21.8c-1,1.9-0.9,3.7,0.9,5.2 c0.6,0.5,1.1,1.3,1.4,1.7c-1.8,5.8-3.5,11.1-5.2,16.5c-2.9,8.9-4.5,18.1-5,27.4c-0.5,8.7,0,17.3,0.3,26c0.4,12.6,2.9,25,7.3,36.8 c9.4,25.1,24.1,46.4,44.9,63.5c25.3,20.8,54.5,30.7,87,31.6c9.1,0.3,18.2-0.9,27.1-2.4c15-2.6,29.7-6.2,43.8-12 c9.5-3.9,18.2-9.1,26.3-15.4c1.7-1.3,3.3-3,4.2-4.9c0.6-1.4,0-3.3-0.1-5.2c3.7-4.6,7.3-9.6,11.4-14c4-4.4,6.6-9.6,9.9-14.5 c3.3-5,6.4-10.2,9.5-15.3c2.4,0,4.5,0,6.6,0c2.7-5,4.8-10,6.5-15.1c2.9-8.4,4.8-17.1,6.1-25.9c0.5-3.3,1-6.9-0.6-10.4 c-2.1,0.1-4.1,0.2-6.4,0.3c-0.6-6.4-1.5-12.4-1.8-18.4c-0.6-12.9-3-25.4-7-37.6c-0.5-1.6-1.2-3.3-1.7-4.9 c-2.2-8.2-5.9-15.8-10.1-23.2c-3.4-5.9-7.3-11.3-11.3-16.6c-1.1-1.5-2.6-2.8-2.6-5.3C416.9,74.5,419.5,74.4,423.1,74.2z"></path> <g> <linearGradient id="SVGID_00000170258576339170898920000015520760111569600427_" gradientUnits="userSpaceOnUse" x1="23.4972" y1="34.0741" x2="82.3" y2="34.0741" gradientTransform="matrix(1 0 0 -1 0 212)"> <stop offset="0" style="stop-color:#0B6FB3"></stop> <stop offset="1" style="stop-color:#004C96"></stop> </linearGradient> <path style="fill:url(#SVGID_00000170258576339170898920000015520760111569600427_);" d="M23.8,143.9c7.9-0.8,47.8,1.3,56.1,3 c0.1,1.1,0.4,2.3,0.4,3.6c-0.3,12.4-0.1,24.7,1,37c0.5,6,0.7,12.1,1,18.5c-1,0.3-2.2,1-3.3,1.1c-7.5,0.8-15.1,1.6-22.6,2.4 c-9,0.9-18.1,1.8-27.2,2.6c-0.6,0.1-1.3-0.1-2.3-0.2c-0.3-0.9-0.9-1.8-0.9-2.8c-0.6-8.9-0.8-17.7-1.6-26.6 c-1-10.8-0.9-21.6-0.9-32.5C23.5,148.1,23.7,146.2,23.8,143.9z"></path> <linearGradient id="SVGID_00000149375139425905511740000004970462453665420941_" gradientUnits="userSpaceOnUse" x1="95.3798" y1="-36.9487" x2="165.4" y2="-36.9487" gradientTransform="matrix(1 0 0 -1 0 212)"> <stop offset="0" style="stop-color:#0B6FB3"></stop> <stop offset="1" style="stop-color:#004C96"></stop> </linearGradient> <path style="fill:url(#SVGID_00000149375139425905511740000004970462453665420941_);" d="M144.5,212.5c2.1,6.9,3.9,13.2,6,19.3 c2,6,4.1,11.9,6.5,17.7c2.4,6,5.9,11.4,8.4,17.4c-3.5,1.9-48,16.7-55.4,18.5c-0.6-0.9-1.6-1.9-1.9-3c-1.8-6.7-3.7-13.4-5.1-20.2 c-2.5-12.3-4.7-24.7-7-37c-0.5-2.5-1-5.1-0.2-8c3.6-0.5,7.2-1.3,10.9-1.5C119.1,215.2,131.4,212.4,144.5,212.5z"></path> <linearGradient id="SVGID_00000181796981508584243400000010960743543300836511_" gradientUnits="userSpaceOnUse" x1="91.4337" y1="35.4765" x2="140.4325" y2="35.4765" gradientTransform="matrix(1 0 0 -1 0 212)"> <stop offset="0" style="stop-color:#0B6FB3"></stop> <stop offset="1" style="stop-color:#004C96"></stop> </linearGradient> <path style="fill:url(#SVGID_00000181796981508584243400000010960743543300836511_);" d="M94.7,205.4c-1.5-1.8-1.7-3.8-1.8-5.7 c-1-15.8-1.7-31.6-1.3-47.5c0-1.3,0.2-2.5,0.3-4.2c1.4-0.2,2.6-0.7,3.8-0.6c4.8,0.2,9.5,0.7,14.3,1c6.5,0.3,13,0.4,19.5,0.8 c3,0.2,6,0.6,9.1,0.9c0.9,6,0,11.6,0,17.2c0.1,5.6,0.4,11.3,0.6,16.9c0.2,5.6,1.8,11.1,1,17.1c-5,1.7-10.3,0.8-15.4,1.4 c-5,0.6-9.9,1.2-14.9,1.6C104.8,204.6,99.8,206.3,94.7,205.4z"></path> </g> <g> <linearGradient id="SVGID_00000117672210233942042080000010353055438876391577_" gradientUnits="userSpaceOnUse" x1="173.6947" y1="35.4677" x2="223.8608" y2="35.4677" gradientTransform="matrix(1 0 0 -1 0 212)"> <stop offset="0" style="stop-color:#0B6FB3"></stop> <stop offset="1" style="stop-color:#004C96"></stop> </linearGradient> <path style="fill:url(#SVGID_00000117672210233942042080000010353055438876391577_);" d="M223.3,196.9c-4.8,1.7-9.8,0.9-14.7,1.5 s-9.9,0.9-14.9,1.4c-4.9,0.5-9.9,1-14.5,1.5c-2.1-1-2.6-2.8-2.9-4.5c-0.7-3.8-1.3-7.7-1.7-11.6c-0.4-4.5-0.9-9.1-0.8-13.6 c0.1-6.4,0.8-12.9,1.7-19.3c5.7-1.4,10.8,0.4,16,0.3c5-0.1,9.9,0.7,14.9,1c5.1,0.3,10.3,0,15.8,0.8c0.2,1.5,0.5,2.8,0.6,4 c0.1,3.7-0.1,7.4,0.1,11c0.2,6.3,0.6,12.5,0.8,18.8C223.6,191.2,224.4,194,223.3,196.9z"></path> <linearGradient id="SVGID_00000074438998198183153910000016446399577792580239_" gradientUnits="userSpaceOnUse" x1="181.2727" y1="-23.7513" x2="235.3" y2="-23.7513" gradientTransform="matrix(1 0 0 -1 0 212)"> <stop offset="0" style="stop-color:#0B6FB3"></stop> <stop offset="1" style="stop-color:#004C96"></stop> </linearGradient> <path style="fill:url(#SVGID_00000074438998198183153910000016446399577792580239_);" d="M235.3,258.7c-2.2,0.6-4.3,1.1-6.3,1.6 c-4.9,1-9.8,1.8-14.6,2.9c-3.9,0.9-6.7-0.2-9-3.4c-3.3-4.8-7-9.4-10.1-14.3c-5.7-9-10.1-18.7-13.4-28.8c-0.3-0.8-0.5-1.7-0.6-2.5 c-0.1-0.4,0.1-0.8,0.2-1.3c3.2-1.5,13.3-2.7,43.1-4.9c2.3,5.4,2.2,11.3,3.4,16.9c1.2,5.5,2.2,11,3.3,16.5 C232.4,247.1,234.8,252.5,235.3,258.7z"></path> <linearGradient id="SVGID_00000066492679551628216510000003494355331676913326_" gradientUnits="userSpaceOnUse" x1="178.6154" y1="91.2591" x2="227.2702" y2="91.2591" gradientTransform="matrix(1 0 0 -1 0 212)"> <stop offset="0" style="stop-color:#0B6FB3"></stop> <stop offset="1" style="stop-color:#004C96"></stop> </linearGradient> <path style="fill:url(#SVGID_00000066492679551628216510000003494355331676913326_);" d="M195,98c10.9,0,21.4,1.7,32.3,2.8 c-0.3,7.4-1.8,14.3-2.7,21.3c-0.9,6.8-0.1,13.9-2.5,20.9c-7.2,1.5-14.5-1-21.7-0.8c-7.1,0.2-14.1-1.2-21.7-1.7 C181.1,125.1,186.8,111.5,195,98z"></path> <linearGradient id="SVGID_00000162314317200132431000000014606058566726908573_" gradientUnits="userSpaceOnUse" x1="234.1867" y1="87.5167" x2="268" y2="87.5167" gradientTransform="matrix(1 0 0 -1 0 212)"> <stop offset="0" style="stop-color:#0B6FB3"></stop> <stop offset="1" style="stop-color:#004C96"></stop> </linearGradient> <path style="fill:url(#SVGID_00000162314317200132431000000014606058566726908573_);" d="M268,108.7c-1.4,12.6-2.8,24.5-4.1,36.5 c-0.7,0.3-1.3,0.8-1.9,0.8c-8.6-0.5-17.2-1-25.8-1.6c-0.4,0-0.7-0.4-1.4-0.8c-1-2.1-0.5-4.4-0.4-6.8c0.3-9.1,2.8-26.8,4.9-33.7 c1.3,0,2.8-0.3,4.2,0C251.5,105,259.5,106.8,268,108.7z"></path> <linearGradient id="SVGID_00000052081922185347874390000001124528875903988627_" gradientUnits="userSpaceOnUse" x1="233.0694" y1="36.6994" x2="264.4" y2="36.6994" gradientTransform="matrix(1 0 0 -1 0 212)"> <stop offset="0" style="stop-color:#0B6FB3"></stop> <stop offset="1" style="stop-color:#004C96"></stop> </linearGradient> <path style="fill:url(#SVGID_00000052081922185347874390000001124528875903988627_);" d="M264.4,192.7c-5.2,1.7-23.3,3.2-28.9,2.4 c-1.4-1.6-1-3.7-1.2-5.6c-0.8-11.2-1.9-22.4-0.7-33.9c1.6-0.1,2.8-0.4,4.1-0.3c7.6,0.4,15.1,0.8,22.7,1.3c2.6,0.2,3.5,1.1,3.6,3.7 C264.2,171.2,264.3,182,264.4,192.7z"></path> <linearGradient id="SVGID_00000176022702718360324450000004431611310915609488_" gradientUnits="userSpaceOnUse" x1="277.3453" y1="-9.0526" x2="309.3529" y2="-9.0526" gradientTransform="matrix(1 0 0 -1 0 212)"> <stop offset="0" style="stop-color:#0B6FB3"></stop> <stop offset="1" style="stop-color:#004C96"></stop> </linearGradient> <path style="fill:url(#SVGID_00000176022702718360324450000004431611310915609488_);" d="M309.4,231.8c-4.2,2.7-19.2,8.2-24.7,9.2 c-3-4.6-3.2-10.1-4.3-15.3c-3.4-16.6-3.4-17-2.5-22.3c4.6-1.5,19.7-2.8,25.3-2.1c1.9,4.9,1.9,10.4,3.1,15.6 C307.4,221.9,308.4,227,309.4,231.8z"></path> <linearGradient id="SVGID_00000100347951221846511700000001650401417053018542_" gradientUnits="userSpaceOnUse" x1="274.8987" y1="82.1164" x2="304.7749" y2="82.1164" gradientTransform="matrix(1 0 0 -1 0 212)"> <stop offset="0" style="stop-color:#0B6FB3"></stop> <stop offset="1" style="stop-color:#004C96"></stop> </linearGradient> <path style="fill:url(#SVGID_00000100347951221846511700000001650401417053018542_);" d="M279.4,111.2c8.5,1.5,16.6,3.5,25,5.2 c1.2,5.8-1,11-1.2,16.4c-0.2,5.1-1.1,10.2-1.7,15.2c-5.6,1.2-18.5,0.4-26.3-1.5c-0.1-1.3-0.5-2.8-0.4-4.2 C276.2,132,276.5,121.6,279.4,111.2z"></path> <linearGradient id="SVGID_00000103982734374771891940000017362485415668685495_" gradientUnits="userSpaceOnUse" x1="273.8799" y1="37.1218" x2="302.1" y2="37.1218" gradientTransform="matrix(1 0 0 -1 0 212)"> <stop offset="0" style="stop-color:#0B6FB3"></stop> <stop offset="1" style="stop-color:#004C96"></stop> </linearGradient> <path style="fill:url(#SVGID_00000103982734374771891940000017362485415668685495_);" d="M274.2,158.3c6.2-0.6,19.9,0.2,26.2,1.6 c1.6,4.6,0.3,9.6,1.1,14.5c0.8,4.9,0.5,9.9,0.6,14.6c-5.8,2.1-19.5,3.3-26,2.3c-0.2-0.5-0.7-1.1-0.8-1.7c-0.5-8.6-1-17.2-1.4-25.9 C273.8,162.1,274.1,160.4,274.2,158.3z"></path> <linearGradient id="SVGID_00000119081331590752693950000015536827479508156561_" gradientUnits="userSpaceOnUse" x1="311.4286" y1="37.3889" x2="335.3447" y2="37.3889" gradientTransform="matrix(1 0 0 -1 0 212)"> <stop offset="0" style="stop-color:#0B6FB3"></stop> <stop offset="1" style="stop-color:#004C96"></stop> </linearGradient> <path style="fill:url(#SVGID_00000119081331590752693950000015536827479508156561_);" d="M334,162.2c0.2,0.4,0.5,0.8,0.5,1.1 c0.3,7.5,0.5,15,0.8,22.7c-2.1,2.2-4.8,1.4-7.3,1.7c-2.4,0.3-4.7,0.4-7.1,0.4c-2.5,0-5,1.6-7.5,0.2c-2.2-7.6-2.7-21.7-1-27.4 C319,159.8,328.5,160.4,334,162.2z"></path> <linearGradient id="SVGID_00000067949220304796924640000000457945567360083109_" gradientUnits="userSpaceOnUse" x1="314.2335" y1="-0.85" x2="340.799" y2="-0.85" gradientTransform="matrix(1 0 0 -1 0 212)"> <stop offset="0" style="stop-color:#0B6FB3"></stop> <stop offset="1" style="stop-color:#004C96"></stop> </linearGradient> <path style="fill:url(#SVGID_00000067949220304796924640000000457945567360083109_);" d="M320.3,228.4c-2-1.8-2.2-3.8-2.6-5.7 c-1.6-7.4-3.1-14.7-3.5-22.6c7-2.7,14.2-1.5,21.5-2.8c0.5,1.1,1.2,2,1.4,2.9c1.3,6.8,2.4,13.6,3.7,20.7c-2.7,2.8-6.8,3-10.4,4.4 C327.1,226.8,323.7,228.1,320.3,228.4z"></path> <linearGradient id="SVGID_00000125581914753305480490000002425939499618451072_" gradientUnits="userSpaceOnUse" x1="345.3" y1="72.05" x2="364.8247" y2="72.05" gradientTransform="matrix(1 0 0 -1 0 212)"> <stop offset="0" style="stop-color:#0B6FB3"></stop> <stop offset="1" style="stop-color:#004C96"></stop> </linearGradient> <path style="fill:url(#SVGID_00000125581914753305480490000002425939499618451072_);" d="M361.7,153.2c-4.4-0.3-9.1-0.6-13.8-1 c-1.7-0.2-2.6-1.3-2.6-3.1c0-1.1,0-2.2,0.2-3.2c0.4-4.1,0.8-8.2,1.3-12.2c0.3-2.3,0.6-4.7,2.2-7c5.4,0.1,10.5,1.3,15.7,3.2 c0.1,1.3,0.3,2.3,0.2,3.4c-0.6,6.2-1.3,12.4-2,18.6C362.7,152.1,362.3,152.4,361.7,153.2z"></path> <linearGradient id="SVGID_00000177453019545244695960000007181483210211210174_" gradientUnits="userSpaceOnUse" x1="344.2257" y1="38.1507" x2="362.722" y2="38.1507" gradientTransform="matrix(1 0 0 -1 0 212)"> <stop offset="0" style="stop-color:#0B6FB3"></stop> <stop offset="1" style="stop-color:#004C96"></stop> </linearGradient> <path style="fill:url(#SVGID_00000177453019545244695960000007181483210211210174_);" d="M345.4,162.3c1-0.1,2.1-0.5,3.1-0.4 c4.3,0.3,8.5,0.8,12.6,1.2c1.3,4,2,16.4,1.2,21c-1.1,0.3-2.3,0.8-3.5,0.9c-3.4,0.4-6.9,0.6-10.3,0.8c-1.4,0.1-2.9-0.3-3-1.8 c-0.3-6.9-2.2-13.6-1-20.6C344.6,163.3,344.8,163.1,345.4,162.3z"></path> <linearGradient id="SVGID_00000152235018392390759990000010313792854946952375_" gradientUnits="userSpaceOnUse" x1="346.9448" y1="5.7035" x2="367.278" y2="5.7035" gradientTransform="matrix(1 0 0 -1 0 212)"> <stop offset="0" style="stop-color:#0B6FB3"></stop> <stop offset="1" style="stop-color:#004C96"></stop> </linearGradient> <path style="fill:url(#SVGID_00000152235018392390759990000010313792854946952375_);" d="M347.3,196.6c5.3-1.4,10.6-1.3,16.2-1.8 c1.8,6,2.6,11.9,3.8,17.9c-4.7,2.6-9.5,3.7-14.2,5c-1.5,0.4-2.7-0.5-3.1-2.5c-1.1-5.3-2-10.6-3-15.9 C346.8,198.5,347.2,197.7,347.3,196.6z"></path> <linearGradient id="SVGID_00000100371935567782449450000016879069488490827951_" gradientUnits="userSpaceOnUse" x1="372.5627" y1="68.4966" x2="390.8651" y2="68.4966" gradientTransform="matrix(1 0 0 -1 0 212)"> <stop offset="0" style="stop-color:#0B6FB3"></stop> <stop offset="1" style="stop-color:#004C96"></stop> </linearGradient> <path style="fill:url(#SVGID_00000100371935567782449450000016879069488490827951_);" d="M375.9,132c5.1,0.7,9.9,1.4,14.7,3.4 c0.1,1.4,0.3,2.7,0.2,3.9c-0.4,4.1-0.9,8.1-1.4,12.2c-0.3,2.6-1.3,3.6-3.7,3.5c-3.7-0.2-7.3-0.6-10.9-1.1 c-0.8-0.1-1.6-1.3-2.1-2.1c-0.3-0.7-0.2-1.7-0.1-2.5c0.6-4.7,1.3-9.4,2-14.1C374.9,134.1,375.5,133.1,375.9,132z"></path> <linearGradient id="SVGID_00000034782006094012050290000004941844896320680362_" gradientUnits="userSpaceOnUse" x1="371.6714" y1="38.3774" x2="389.3387" y2="38.3774" gradientTransform="matrix(1 0 0 -1 0 212)"> <stop offset="0" style="stop-color:#0B6FB3"></stop> <stop offset="1" style="stop-color:#004C96"></stop> </linearGradient> <path style="fill:url(#SVGID_00000034782006094012050290000004941844896320680362_);" d="M387.8,164.6c1.8,5.2,1.6,10,1.5,14.7 c0,1.4-0.8,2.6-2.2,2.9c-4.4,0.7-8.9,1-12.9,1.4c-0.7-0.7-0.9-0.9-0.9-1c-0.5-5.1-1.2-10.3-1.5-15.4c-0.2-2.9,1.2-3.8,4.1-3.5 C379.7,163.9,383.5,164.2,387.8,164.6z"></path> <linearGradient id="SVGID_00000085227164012344535620000008603211387211159445_" gradientUnits="userSpaceOnUse" x1="374.1809" y1="11" x2="391.9601" y2="11" gradientTransform="matrix(1 0 0 -1 0 212)"> <stop offset="0" style="stop-color:#0B6FB3"></stop> <stop offset="1" style="stop-color:#004C96"></stop> </linearGradient> <path style="fill:url(#SVGID_00000085227164012344535620000008603211387211159445_);" d="M374.2,194.8c1-0.6,1.5-1.2,2.1-1.3 c4.3-0.5,8.6-0.9,13-1.4c2.2,4.2,2.5,8.4,2.7,12.9c-4.5,2.5-9.4,3.3-14.1,4.9C374.9,205.1,375.4,200,374.2,194.8z"></path> <linearGradient id="SVGID_00000083054706115233016820000014849340971630486419_" gradientUnits="userSpaceOnUse" x1="398.7249" y1="65.0206" x2="413.0622" y2="65.0206" gradientTransform="matrix(1 0 0 -1 0 212)"> <stop offset="0" style="stop-color:#0B6FB3"></stop> <stop offset="1" style="stop-color:#004C96"></stop> </linearGradient> <path style="fill:url(#SVGID_00000083054706115233016820000014849340971630486419_);" d="M412.8,140c0.6,5.7,0,10.7-1.6,15.8 c-3.3,1.3-6.5,0.6-9.7,0.3c-1.6-0.1-2.6-1.5-2.7-3.2c-0.1-0.6-0.1-1.3,0-2c0.5-3.9,1.1-7.7,1.7-11.6c0.1-0.6,0.6-1.1,1.2-1.9 c1.8,0.3,3.7,0.6,5.6,1C408.9,138.8,410.5,139.4,412.8,140z"></path> <linearGradient id="SVGID_00000011032992304642086420000017356225114816798084_" gradientUnits="userSpaceOnUse" x1="421.1085" y1="61.9694" x2="440.1544" y2="61.9694" gradientTransform="matrix(1 0 0 -1 0 212)"> <stop offset="0" style="stop-color:#0B6FB3"></stop> <stop offset="1" style="stop-color:#004C96"></stop> </linearGradient> <path style="fill:url(#SVGID_00000011032992304642086420000017356225114816798084_);" d="M440,155.9c-1.4,0.4-2,0.7-2.6,0.8 c-4.3,0.3-8.6,0.5-13,0.7c-2,0.1-3.4-1.2-3.2-3.2c0.3-3,0.7-6,1.2-9c0.3-2.1,1.5-2.9,3.8-2.4c3.6,0.8,7.1,1.8,10.7,2.8 c2.1,0.6,3.4,2,3.4,4.2C440.2,151.8,440,153.7,440,155.9z"></path> <linearGradient id="SVGID_00000104679047204765727550000000798445899803405448_" gradientUnits="userSpaceOnUse" x1="397.8337" y1="38.6567" x2="411.8181" y2="38.6567" gradientTransform="matrix(1 0 0 -1 0 212)"> <stop offset="0" style="stop-color:#0B6FB3"></stop> <stop offset="1" style="stop-color:#004C96"></stop> </linearGradient> <path style="fill:url(#SVGID_00000104679047204765727550000000798445899803405448_);" d="M398.3,165.7c3.8,0,7-0.1,10.2,0 c1.7,0.1,2.8,1.3,3,2.9c0.3,3.6,0.8,7.2-0.4,11c-3.2,0.8-6.3,1.6-9.6,1.4c-0.9-0.1-2.4-0.8-2.5-1.5 C398.3,175.2,397.2,170.8,398.3,165.7z"></path> <linearGradient id="SVGID_00000046297135143549832430000007402652575203890878_" gradientUnits="userSpaceOnUse" x1="420.5356" y1="39.5994" x2="440.1733" y2="39.5994" gradientTransform="matrix(1 0 0 -1 0 212)"> <stop offset="0" style="stop-color:#0B6FB3"></stop> <stop offset="1" style="stop-color:#004C96"></stop> </linearGradient> <path style="fill:url(#SVGID_00000046297135143549832430000007402652575203890878_);" d="M421.2,178.1c-0.8-3.8-1-7.1-0.2-10.2 c2-1.7,4-1.2,5.9-1.1c3.4,0.2,6.8,0.7,10.2,1.1c2,0.3,2.9,1.1,3,2.8c0.2,2,0.1,3.9-2,5.1c-0.2,0.1-0.4,0.2-0.6,0.3 C434.9,177.2,425.2,178.4,421.2,178.1z"></path> <linearGradient id="SVGID_00000141439010162738993400000007165300985337105569_" gradientUnits="userSpaceOnUse" x1="400.7835" y1="15.8686" x2="413.6054" y2="15.8686" gradientTransform="matrix(1 0 0 -1 0 212)"> <stop offset="0" style="stop-color:#0B6FB3"></stop> <stop offset="1" style="stop-color:#004C96"></stop> </linearGradient> <path style="fill:url(#SVGID_00000141439010162738993400000007165300985337105569_);" d="M413.6,198.5c-3.6,1.8-6.8,3-10.2,3.4 c-2.5-3.6-2.7-4.1-2.7-9.9c3.5-1.9,7.2-1.8,11.2-1.4C413.2,193.1,413.7,195.6,413.6,198.5z"></path> <linearGradient id="SVGID_00000127026688262332157170000013801775156362292363_" gradientUnits="userSpaceOnUse" x1="422.6335" y1="20.55" x2="438.2717" y2="20.55" gradientTransform="matrix(1 0 0 -1 0 212)"> <stop offset="0" style="stop-color:#0B6FB3"></stop> <stop offset="1" style="stop-color:#004C96"></stop> </linearGradient> <path style="fill:url(#SVGID_00000127026688262332157170000013801775156362292363_);" d="M424,195.9c-0.6-2.6-0.9-4.2-1.3-6 c4.9-2.9,10.2-1.4,15-2.9c1.1,3,0.9,3.9-0.8,4.6C432.8,193.2,428.8,194.5,424,195.9z"></path> </g> </g> <g id="Blue"> <path class="st2" d="M807.2,203.8c1.1,0,2-0.9,2-2V90.3c0-4.1-0.2-4.1-4.4-4.1c-7.9,0-15.9,0-23.8,0c-2.3,0-4.1,1.8-4.1,4.1 c0,22.2,0,44.3,0,66.5c0,7.7-3.7,13.4-9.6,17.9c-7,5.4-15.2,6.8-23.7,5.5c-5.1-0.7-9.6-3.1-12.6-7.8c-3.9-6.1-5.2-12.9-5.3-19.8 c-0.3-20.8,0-41.7,0-62.5c0-3.9,0-3.9-4-3.9c-7.7,0-15.4,0-23.1,0c-4.4,0-4.4,0-4.4,4.2c0,18.2,0,36.5,0,54.7 c0,9.5-0.2,19,2.4,28.4c3.6,13,10.8,22.8,23.2,28.2c8.8,3.9,18.2,4.8,27.9,4c11.2-1,21.3-4.5,30-11.7c1.6-1.3,2.3-0.9,2.5,0.9 c0.1,1.4,0.1,4.6,0.1,6.8c0,1.1,0.9,1.9,2,1.9h24.9L807.2,203.8L807.2,203.8z"></path> <path class="st2" d="M809.1,142.7"></path> <path class="st2" d="M929.1,153.3c3.3,0,4.8-0.9,4.9-4.3c0-5.3,0.4-10.6,0.2-15.9c-0.4-12-4.6-22.7-12.7-31.5 c-8.8-9.6-20-14.8-32.8-16.7C875.8,83,863.4,84,851.5,89c-8.5,3.6-16,8.6-21.9,15.9c-7.6,9.4-12.1,20-13.6,32.1 c-1.5,11.8-0.8,23.3,3.8,34.1c6.6,15.6,18.6,25.4,34.5,30.7c10.2,3.4,20.7,4,31.4,3.8c13.2-0.2,26-2.2,38.4-6.7 c3.9-1.4,4.1-1.8,2.9-5.9c-1.2-4.4-2.5-8.7-3.5-13.2c-1.1-4.8-1.4-5-6.2-3.5c-14.2,4.4-28.5,7.2-43.5,4.3 c-13.4-2.6-22.9-9.3-26.9-22.7c-1.1-3.8-0.5-4.7,3.4-4.7L929.1,153.3L929.1,153.3z M851.1,130c-2.8,0-3.6-0.9-2.6-3.2 c3-7,7.2-13.1,14.3-16.6c7.3-3.6,14.9-3.7,22.5-2c9.3,2.1,14.6,8.4,17.1,17.2c1.1,3.9,0.5,4.6-3.5,4.6L851.1,130L851.1,130z"></path> <path class="st2" d="M542.4,195.3c0.9-0.3,1.8-0.2,2.6,0.3c3.4,2.2,6.7,4.6,10.4,6.1c9.6,4,19.8,5,30.2,4.1 c14-1.3,26.2-6.5,36.3-16.1c12.4-11.8,17.8-26.9,18.1-43.7c0.1-6.2-0.8-12.5-1.9-18.6c-2.1-11.9-8-21.9-17.1-29.8 c-8.5-7.5-18.5-12.1-29.8-13c-7.6-0.6-15.5-0.4-23,0.8c-6.9,1.1-13.4,3.8-19.2,7.9c-1,0.7-2.4,0.8-3.5,0.2l0,0 c-1.1-0.6-1.7-1.7-1.7-2.9c0-8.1,0-16.3,0-24.4l0,0c0-8.9-0.1-21.1,0-30h-31.6v168.5h27.7c0.1-1.4,0.2-4.7,0.4-6.7 C540.6,196.7,541.4,195.7,542.4,195.3L542.4,195.3z M545.3,131.5c1.8-6.8,9.2-17.4,19.1-20.8c13.3-4.7,25.4-2.3,35.3,8.2 c4.1,4.3,6.2,9.6,7.5,15.3c2.2,9.3,1.5,18.6-2,27.4c-5.5,14-17.3,20-31,19.7c-10.4-0.2-19.4-4.2-25.6-13c-2.8-3.9-4-9.7-4.2-13.1 C544.1,149.3,543.8,137.2,545.3,131.5z"></path> <path class="st2" d="M678.6,204.5c0-52.3,0-116.2,0-168.5h-31.7l0.1,168.5H678.6z"></path> </g> <g id="Print"> <g> <path class="st0" d="M1310,106c0,1.5,1.2,2.6,2.6,2.6c4.4-0.1,10.5-0.1,13.9,0.1c1.1,0,2.6,0.8,2.6,3.8 c-0.1,18.1-0.3,36.3,0.1,54.4c0.1,5.9,0.4,12.7,2.2,18.3c4,13,14.9,18.6,27.5,20.2c9.9,1.2,20.1,1.2,29.9-2.2 c2.8-1,3.1-2.2,3.1-2.2l-1.4-21.1c0,0-0.3-2.1-2.1-1.6c-5.8,1.4-11.7,2.6-17.6,1.7c-2.3-0.3-5.3-1.3-6.4-3 c-1.8-2.6-3.1-6.1-3.1-9.3c-0.3-18.4-0.1-36.7-0.1-55.1c0-4,0-4,4.2-4c8.6-0.1,17.2,0,25.7,0c1.4,0,2.6-1.2,2.6-2.6V86.4 c0-1.4-1.2-2.6-2.6-2.6c-8.3-0.1-18.8-0.1-26.6,0c-2.5,0-3.4-0.6-3.4-3.3c0.2-8.8,0-17.6,0.1-26.4c0-2.7-0.9-3.3-4.4-2.1 c-7.6,2.6-15.5,4.3-23.5,5.5c-3.2,0.5-4.2,1.4-4.2,4.1c0.1,6.1-0.1,12.2,0.1,18.2c0.1,2.9-3.2,3.9-3.2,3.9h-13.4 c-1.4,0-2.6,1.2-2.6,2.6L1310,106L1310,106z"></path> <path class="st0" d="M1297.8,96.3c-7.9-8.7-21.5-12.8-29.6-14c-3.3-0.5-9.1-0.5-13.5,0.1c-5.4,0.7-10.9,1.8-15.9,3.7 c-4.5,1.7-8.4,4.7-12.5,7.3c-2.1,1.4-2.6,0.7-2.7-1.4c-0.1-1.7-0.5-3.4-0.5-5.2c0-2.2-1.1-3.1-3.3-3c-7.8,0-15,0-22.8,0 c-2.4,0-3.1,1-2.9,3.4c0.6,7.6,0.5,15.1,0.6,22.7c0.2,14.7,0.1,29.3,0.1,44c0,15,0,30,0,45c0,5.1,0,5.1,4.9,5.1 c7.7,0,15.4-0.2,23.1,0.1c3.2,0.1,3.7-1.1,3.7-3.9c-0.1-20.3-0.1-40.6,0-60.9c0-4.1,0.5-8.2,1.2-12.2c1-5.5,4.1-9.8,8.6-13.2 c6.1-4.7,13-6.6,20.6-6.1c8.5,0.6,14.9,4.3,18.6,12.1c2.9,6,3.1,12.6,3.1,19.1c0.1,20.5,0.1,41,0,61.6c0,2.6,0.8,3.7,3.6,3.6 c8.2-0.1,16.5-0.1,24.8,0c2.7,0,3.7-0.8,3.6-3.5c-0.3-24.5-0.4-49-0.7-73.5C1309.6,115.2,1305.6,104.9,1297.8,96.3z"></path> <path class="st0" d="M943.3,84.2c-1.4,0-2.6,1.2-2.6,2.6V245c0,3,3.1,3.7,3.1,3.7h25.6c0,0,2.8-0.3,2.8-3.6 c-0.1-14.6-0.1-29.1,0-43.7c0-1.2,0.6-2.2,1.6-2.8l0,0c1-0.6,2.2-0.6,3.2,0c8.7,5,18,7.6,28,7.6c7.3,0,14.5-0.5,21.7-2.9 c7.1-2.3,13.5-5.3,19.2-10.1c11-9.4,17.8-21.3,20.7-35.4c1.6-7.6,1.7-15.2,1.2-22.9c-0.6-8.7-3.3-16.7-7.4-24.3 c-3.5-6.5-8.1-12.1-14-16.8c-8.3-6.6-17.7-10.5-28.2-11.5c-5.4-0.5-11-0.5-16.4,0c-4.9,0.5-10,1.6-14.6,3.5 c-5.4,2.3-10.4,5.6-15.4,8.7c-2,1.2-2.5,0.8-2.4-1.3c0-1.3,0-4.2,0-6.4c0-1.4-1.2-2.6-2.6-2.6L943.3,84.2L943.3,84.2z M975.7,123.7c4.2-8,10.5-13.3,19-15.5c13.3-3.4,25-0.6,33.7,10.6c4.3,5.5,6.3,11.9,7.2,18.8c1.4,9.9,0.3,19.5-4.6,27.7 c-6,9.9-19.1,17.6-33.3,15.5c-10.7-1.6-19.2-6.8-23.5-17.2c-1.2-3-1.6-6.5-1.9-9.8c-0.3-2.9-0.2-8.9-0.2-11.9 C972.3,137.2,972.2,130.5,975.7,123.7z"></path> <path class="st0" d="M1103.8,91.4c0-1.3-0.1-3.8,0-5.6c0-1.1-0.9-2-2-2h-25.2c-1.1,0-2,0.9-2,2v114.5c0,2.8,0.7,3.7,3.6,3.7 c8.1-0.2,16.3-0.1,24.4-0.1c4,0,4,0,4-3.9l0.1-61.2c0.1-3.6,0.4-7.5,1.7-10.8c6-16.1,18.8-20.3,34-17.1c2.5,0.5,3.3,0.6,3.2-2.2 c-0.2-6.1,0-12.2,0-18.2c0-7-0.1-6.9-7-8.2c-8-1.5-15.4,0.6-22.4,3.9c-3.5,1.7-6.4,4.4-9.6,6.7c-0.6,0.4-1.4,0.5-2,0.1l0,0 C1104.1,92.5,1103.8,91.9,1103.8,91.4z"></path> <path class="st0" d="M1147.1,200.9c0,2.7,2.2,2.8,2.2,2.8h28.1c0,0,1.9-0.3,1.9-3.4V85.7c0-1.1-0.9-2-2-2h-28.2c-1.1,0-2,0.9-2,2 V200.9z"></path> </g> <path class="st0" d="M1162.9,40.5c-10.3,0-18.5,6.3-18.4,17.3c0.2,10.9,8,16.7,18.2,16.8c11.4,0.1,19.1-6,19.2-16.6 C1182,47.2,1174.6,40.5,1162.9,40.5z"></path> </g> <g> <path class="st0" d="M1396.3,269v1.8h-3.5v9.1h-2.2v-9.1h-3.5V269H1396.3z M1408.1,279.9l-0.4-6.4c0-0.8,0-1.9-0.1-3h-0.1 c-0.3,1-0.6,2.2-0.9,3.2l-2,6h-2.2l-2-6.2c-0.2-0.8-0.5-2.1-0.8-3.1h-0.1c0,1,0,2-0.1,3l-0.4,6.4h-2.1l0.8-10.9h3.2l1.9,5.3 c0.2,0.8,0.4,1.6,0.7,2.8h0c0.3-1,0.5-1.9,0.8-2.7l1.9-5.4h3.1l0.8,10.9H1408.1z"></path> </g> </svg> 